<svg xmlns="http://www.w3.org/2000/svg" viewBox="0 0 716.3 380" style="enable-background:new 0 0 716.3 380" xml:space="preserve"><style>.st0{display:none}.st1{opacity:.33;fill:#e0e1e2}.st1,.st2,.st3{display:inline}.st2{fill:none;stroke:#808285;stroke-width:2;stroke-miterlimit:10}.st3{opacity:.5}.st4{fill:#aeb0b2}.st5{display:inline;fill:none;stroke:#2969d0;stroke-width:3;stroke-linecap:round;stroke-miterlimit:10}</style><g id="shift-right" class="st0" style="display:block"><path class="st1" d="M357.3 379.8c-7.6-7.6-14.1-14-19.4-19.2-7.7-7.6-11.6-11.4-12.6-12.3-5.2-4.4-8.7-6.4-12.6-11.7-1.4-1.8-3.4-4.5-4.8-8.6-1.3-3.6-1.5-6.2-2-12.6-.6-7.1-.9-10.7-1.2-13.9-.9-8.7-1.5-13.6-3.3-20-.9-3-1.6-4.9-2.2-8.6-.5-3-1.1-6.6-.3-10.9.4-2.1.8-2.7 1.9-6.5 1.2-4.1 2-7.5 2.5-9.7-.6-1.8-1.3-4.3-2-7.4-.6-2.4-1-4.1-1.3-6.3-.3-2.2-.6-5.4-.5-9.3.8-.2 1.5-.5 2.3-.7.8-.3 2.1-.8 3.7-1.1 1.3-.2 5.7-1 9.3 1.3.8.5 1 .9 2.9 3.1 5 5.9 4.9 5.3 6 6.9 3.4 4.7 4.5 9.4 5.1 12.1.9 3.9.9 7 1 10.5 0 3.4-.2 6.2-.4 8.3-.3.7-.6 1.5-1 2.2l.9 1.8c.6.8 1.2 1.7 1.8 2.7 2 3.5 2.4 6.9 2.5 9.1 0 2.8.6 4.7 1.1 5.9.4.9.8 1.5 3.3 5.2 1 1.4 1.8 2.6 2.4 3.5.3-1.8.7-4.5 1-7.7.3-3.3.4-7.3-.2-17-.3-4.9-.5-8.9-1.1-14.8-1.2-11.4-2.2-15.3-3.2-22.8-1.4-11.2-2-17.8-1-26.1.2-2 .7-4.9 1.1-9.8.5-6 .4-7.7.8-12.6.6-8.3.9-12.5 2.5-17.4 1.6-5.2 3.3-10.5 8.2-12.8 3.1-1.5 6.2-1.2 6.7-1.1 3.9.5 6.4 2.8 7.1 3.5 2.2 2.1 3.1 4.4 3.6 6 1 2.9 1.3 5.6 1 11-.4 6.4-1 7.5-1.4 12.4-.6 6.8 0 12.1.4 15.2.7 5.7 1.3 6.1 3.1 15.4.8 4.2 1.3 7.7 2.3 14.7.7 5 1.6 11.5 2.5 19.3 1.1 0 2.2-.1 3.3-.1-.6-3.9-1.5-9.4-2.5-16.2-1.6-10.7-2.4-16.1-2.8-22.8-.6-9.1-.9-14.7.4-20.5.3-1.2.9-3.8 1.3-7.5.5-4.2.1-4.6.5-8.6.6-6.5 2.2-10.6 2.6-11.7 1.1-2.8 1.8-4.6 3.6-6.4.9-1 3.4-3.4 7.4-4 3.9-.5 6.9 1.1 7.8 1.7 3.2 1.8 4.7 4.5 5.2 5.5 1.1 2 1.3 3.7 1.7 6.1.5 3.6.4 6.4.3 7.4-.2 4.7.1 9.4.1 14-.1 8.8 1 16.7 2.5 27.8.9 7 2.3 15.5 4.4 25.1 1.7.6 3.5 1.2 5.2 1.8 1.1-2.8 2.5-7 3.3-12.2.7-4.9.6-8.6.3-14.9-.4-8.8-1.4-15.4-1.7-17-1.1-7-1.9-11.7-3.9-17.9-.9-2.8-2.2-6.3-2.8-11.4-.4-3.8-.2-6.3.7-8.6.6-1.6 1.5-4 3.9-5.5 4.3-2.6 9.7.2 10.2.5 2.2 1.2 3.3 2.8 5.6 5.9 2.7 3.7 4.3 7 4.8 8.1 1.3 2.7 1.7 4.1 4.9 15 2.5 8.4 3.8 12.6 4.2 13.6.5 1.1 1.4 3.2 2.1 6.2.7 2.9.8 5.1.8 6.4.3 9.1.4 13.7.3 16.9-.2 6-.7 14.1-1.9 24.1.6.1 1.4.3 2.4.3s2.2-.1 3.4-.6c1.6-.6 2.7-1.5 4.3-3.1 3.5-3.5 5.5-6.9 5.7-7.2 1.7-2.8 4.5-6.7 8.9-11.3 1.4-3.1 3-6.4 4.8-9.8 2-3.8 4.1-7.3 6.1-10.5 0-1 0-2.5.1-4.4.2-5.7.2-8.5.6-10.5.5-2.3 1.5-7.5 5.8-11 1.3-1.1 5-4.2 10-3.5 4.4.6 7 3.8 7.6 4.7.1 2.7.1 5.5.2 8.3.1 4.8.1 9.6 0 14.3l-.6 3.9c-2.1 9.7-7.3 25.1-10.8 33.5-2 4.8-5.4 12.3-9.4 18.9-1.2 1.9-2.1 3.4-2.1 3.4-3.7 5.6-5.3 7-7.4 10.5-2.1 3.5-3.2 6.6-3.6 7.9-2.2 6.9-.5 8.9-2.9 15.1-.4 1.1-1.2 2.9-1.7 5.6-.4 2.3-.4 4-.4 5.1 0 7.7.5 11.6.5 17.4 0 1.3-.1 3.1-.3 6.7-.4 6.7-.6 10.1-1.1 14-.8 6.1-1.4 5.9-1.8 10.6-.3 3.3-.6 6.6.2 10.8.5 2.6 1.5 6.6 4.4 11.2-37.3-.2-74.2-.3-111.2-.3z"/><path class="st2" d="M357.3 379.8c-7.6-7.6-14.1-14-19.4-19.2-7.7-7.6-11.6-11.4-12.6-12.3-5.2-4.4-8.7-6.4-12.6-11.7-1.4-1.8-3.4-4.5-4.8-8.6-1.3-3.6-1.5-6.2-2-12.6-.6-7.1-.9-10.7-1.2-13.9-.9-8.7-1.5-13.6-3.3-20-.9-3-1.6-4.9-2.2-8.6-.5-3-1.1-6.6-.3-10.9.4-2.1.8-2.7 1.9-6.5 1.2-4.1 2-7.5 2.5-9.7-.6-1.8-1.3-4.3-2-7.4-.6-2.4-1-4.1-1.3-6.3-.3-2.2-.6-5.4-.5-9.3.8-.2 1.5-.5 2.3-.7.8-.3 2.1-.8 3.7-1.1 1.3-.2 5.7-1 9.3 1.3.8.5 1 .9 2.9 3.1 5 5.9 4.9 5.3 6 6.9 3.4 4.7 4.5 9.4 5.1 12.1.9 3.9.9 7 1 10.5 0 3.4-.2 6.2-.4 8.3-.3.7-.6 1.5-1 2.2l.9 1.8c.6.8 1.2 1.7 1.8 2.7 2 3.5 2.4 6.9 2.5 9.1 0 2.8.6 4.7 1.1 5.9.4.9.8 1.5 3.3 5.2 1 1.4 1.8 2.6 2.4 3.5.3-1.8.7-4.5 1-7.7.3-3.3.4-7.3-.2-17-.3-4.9-.5-8.9-1.1-14.8-1.2-11.4-2.2-15.3-3.2-22.8-1.4-11.2-2-17.8-1-26.1.2-2 .7-4.9 1.1-9.8.5-6 .4-7.7.8-12.6.6-8.3.9-12.5 2.5-17.4 1.6-5.2 3.3-10.5 8.2-12.8 3.1-1.5 6.2-1.2 6.7-1.1 3.9.5 6.4 2.8 7.1 3.5 2.2 2.1 3.1 4.4 3.6 6 1 2.9 1.3 5.6 1 11-.4 6.4-1 7.5-1.4 12.4-.6 6.8 0 12.1.4 15.2.7 5.7 1.3 6.1 3.1 15.4.8 4.2 1.3 7.7 2.3 14.7.7 5 1.6 11.5 2.5 19.3 1.1 0 2.2-.1 3.3-.1-.6-3.9-1.5-9.4-2.5-16.2-1.6-10.7-2.4-16.1-2.8-22.8-.6-9.1-.9-14.7.4-20.5.3-1.2.9-3.8 1.3-7.5.5-4.2.1-4.6.5-8.6.6-6.5 2.2-10.6 2.6-11.7 1.1-2.8 1.8-4.6 3.6-6.4.9-1 3.4-3.4 7.4-4 3.9-.5 6.9 1.1 7.8 1.7 3.2 1.8 4.7 4.5 5.2 5.5 1.1 2 1.3 3.7 1.7 6.1.5 3.6.4 6.4.3 7.4-.2 4.7.1 9.4.1 14-.1 8.8 1 16.7 2.5 27.8.9 7 2.3 15.5 4.4 25.1 1.7.6 3.5 1.2 5.2 1.8 1.1-2.8 2.5-7 3.3-12.2.7-4.9.6-8.6.3-14.9-.4-8.8-1.4-15.4-1.7-17-1.1-7-1.9-11.7-3.9-17.9-.9-2.8-2.2-6.3-2.8-11.4-.4-3.8-.2-6.3.7-8.6.6-1.6 1.5-4 3.9-5.5 4.3-2.6 9.7.2 10.2.5 2.2 1.2 3.3 2.8 5.6 5.9 2.7 3.7 4.3 7 4.8 8.1 1.3 2.7 1.7 4.1 4.9 15 2.5 8.4 3.8 12.6 4.2 13.6.5 1.1 1.4 3.2 2.1 6.2.7 2.9.8 5.1.8 6.4.3 9.1.4 13.7.3 16.9-.2 6-.7 14.1-1.9 24.1.6.1 1.4.3 2.4.3m27.1 25.4c-2.1 3.5-3.2 6.6-3.6 7.9-2.2 6.9-.5 8.9-2.9 15.1-.4 1.1-1.2 2.9-1.7 5.6-.4 2.3-.4 4-.4 5.1 0 7.7.5 11.6.5 17.4 0 1.3-.1 3.1-.3 6.7-.4 6.7-.6 10.1-1.1 14-.8 6.1-1.4 5.9-1.8 10.6-.3 3.3-.6 6.6.2 10.8.5 2.6 1.5 6.6 4.4 11.2"/><path class="st5" d="M448.1 249.9c1 0 2.2-.1 3.4-.6 1.6-.6 2.7-1.5 4.3-3.1 3.5-3.5 5.5-6.9 5.7-7.2 1.7-2.8 4.5-6.7 8.9-11.3 1.4-3.1 3-6.4 4.8-9.8 2-3.8 4.1-7.3 6.1-10.5 0-1 0-2.5.1-4.4.2-5.7.2-8.5.6-10.5.5-2.3 1.5-7.5 5.8-11 1.3-1.1 5-4.2 10-3.5 4.4.6 7 3.8 7.6 4.7.1 2.7.1 5.5.2 8.3.1 4.8.1 9.6 0 14.3l-.6 3.9c-2.1 9.7-7.3 25.1-10.8 33.5-2 4.8-5.4 12.3-9.4 18.9-1.2 1.9-2.1 3.4-2.1 3.4-3.7 5.6-5.3 7-7.4 10.5"/><g class="st3"><path class="st4" d="M493.9 181.8v5.2c.1 1.7.2 3.4.5 5.1l.3 1.2c.1.4.2.7.5 1 .5.6 1.2 1 1.9 1.4 1.5.8 3.1 1.3 4.8 1.5-1.7.2-3.5-.1-5.2-.8-.8-.3-1.6-.8-2.3-1.5-.3-.3-.6-.9-.7-1.3-.1-.4-.2-.9-.3-1.3-.3-1.7-.4-3.5-.3-5.2.1-1.9.4-3.7.8-5.3z"/></g><g class="st3"><path class="st4" d="M306.2 243.8c.7-.6 1.1-1.3 1.3-2.1.2-.8.2-1.6.2-2.4 0-.8-.1-1.7-.2-2.5l-.2-2.5c-.1-1.7-.2-3.4-.6-5-.2-.8-.4-1.6-.8-2.4-.3-.7-.8-1.4-1.7-1.8.9.1 1.6.8 2.1 1.5.5.8.8 1.6 1.1 2.4.5 1.7.7 3.4.8 5.1.1 1.7.3 3.4.2 5.2 0 .9-.2 1.8-.5 2.6s-.9 1.5-1.7 1.9z"/></g></g><g id="key-1" class="st0" style="display:block"><path class="st1" d="M292.3 210.4c-7.8-.6-19.2 6.1-22.4 7.8-3.2 1.7-10.5 8.8-14.5 14.1-4 5.2-2.9 8.8-3.2 9.4-.3.5-1.6.6-2.6 1.2s-10.3 12.7-12.1 14.7c-1.9 1.9-2.6 1.9-2.4 4.2-5.3.1-9.7 5.6-11.1 5.7-1.4.1-2.5-4.1-6.4-7.4-3.9-3.3-7.6-4.6-7.7-8.8-.1-4.3 7.8-18.9 12.5-25.7 4.7-6.8 13.5-15.5 16.8-19.1 3.3-3.6 7.5-10 10.2-13.6 2.8-3.7 11.7-11.8 14.3-13.8 2.6-2 6.5-6.4 8.4-13 1.9-6.6 3.4-15.4-4.9-18.8-8.3-3.4-19.3 7.4-22.4 10.7v-1c-3.8-15.9-14.8-20.5-17.8-21s-7.2-2.8-9.1-3c-1.8-.2-4.9 0-8.2.1-3.3.1-13.5-1.3-16.2-1.3l-.9-.4s-6.8-5.1-17.6-4c-7.6-1.8-14.9-2.2-19.9-.6 0 0 6.1-8.7 4.2-18.1-1.9-9.4-12.2-12-16.1-12.7-3.9-.7-4.3 6.5-4.9 10.2-.6 3.7-6.4 14.7-7.1 16.7-.7 2-.4 3.3-.5 4.4-.2 1.1-9.8 19.1-10.7 20.8-.9 1.6-2.2 4.4-2.3 6.2-.1 1.8-4 6.5-5.3 9.7-1.3 3.2-.7 7.8-3.3 16-2.6 8.3-7.5 17.2-9.7 21.6-2.1 4.4-5.1 15.5-6.6 21s-8.4 23-9.4 25.8c-1.1 2.8-1.4 6.1-4 12.5s-6.4 24.9-6.7 27.7c-.4 2.8-10 24.9-10.5 25.5-.5.6-4.1 10.9-11.7 25.6S19.1 384 19.1 384h115.1c4.6-13.7 15.8-30.3 18.4-34.3 2.6-4 11.5-13.1 19.2-17.9 7.7-4.7 17.8-7.5 30.4-10.9 12.6-3.4 24.2-3.4 32.2-5.6 8-2.2 14.5-14 17.1-18.4 2.6-4.4 18.6-26.8 19.8-28.3 1.3-1.5.5-2.4.7-2.7.2-.3 1.1.3 1.6-.1.5-.3 3.6-5.4 4.6-6.7 1-1.3.1-2.5.3-2.8.2-.3.8.2 1.2 0 .4-.2 1.1-1.9 3.1-8.3s3.8-7.1 4.3-8.3c.5-1.2-.5-2-.1-3.3.4-1.2 6-5.7 8.6-9 2.6-3.3 6.1-9 6.2-9.6.1-.6.8-1.3.8-1.3s-2.5-5.5-10.3-6.1zm-87.1-21.5c-2.3 2.2-6.7 6.2-10.5 9.4l-.6-.9c-3.3-4.6 3.7-13.1 5.2-15.6 1.5-2.4 15.3-15.7 16.9-18.7 1.3.7 4.5.5 5.9-.4.3 1.3 1.7 3.7 3.3 4.4.6.3 1.3.1 2-.2l.9.2c-6.9 4.2-19.7 18.5-23.1 21.8z"/><path class="st2" d="M159.3 108.8c1.9 9.4-4.2 18.1-4.2 18.1 5-1.6 12.2-1.2 19.9.6 10.8-1.1 17.6 4 17.6 4l.9.4c2.7 0 12.9 1.4 16.2 1.3s6.4-.3 8.2-.1c1.8.2 6.1 2.5 9.1 3s14 5.1 17.9 20.9M19.1 384s23.7-29.7 31.3-44.4 11.2-25 11.7-25.6c.5-.6 10.1-22.6 10.5-25.5.4-2.8 4.1-21.3 6.7-27.7 2.6-6.4 2.9-9.7 4-12.5s7.9-20.3 9.4-25.8 4.5-16.6 6.6-21c2.1-4.4 7.1-13.3 9.7-21.6 2.6-8.3 2-12.9 3.3-16 1.3-3.2 5.2-7.9 5.3-9.7.1-1.8 1.4-4.5 2.3-6.2s10.6-19.7 10.7-20.8c.2-1.1-.2-2.3.5-4.4.8-2 6.5-13.1 7.1-16.7"/><path class="st2" d="M230.1 166.1c5.8-2 11.7-4.8 14.8-8.1s14.1-14.1 22.4-10.7 6.8 12.2 4.9 18.8-5.9 11-8.4 13c-2.6 2-11.5 10.1-14.3 13.8-2.8 3.7-6.9 10-10.2 13.6-3.3 3.6-12.2 12.2-16.8 19-4.7 6.8-12.6 21.4-12.5 25.7.1 4.3 3.7 5.5 7.7 8.8s5 7.5 6.4 7.4c1.4-.1 5.8-5.6 11.1-5.7-.2-2.4.6-2.3 2.4-4.2 1.9-1.9 11.2-14.1 12.1-14.7s2.3-.7 2.6-1.2c.3-.5-.8-4.2 3.2-9.4s11.3-12.4 14.5-14.1c3.2-1.7 14.6-8.4 22.4-7.8 7.8.6 10.3 6.2 10.3 6.2s-.7.7-.8 1.3c-.1.6-3.6 6.4-6.2 9.6-2.6 3.3-8.1 7.8-8.6 9-.4 1.2.6 2 .1 3.3-.5 1.2-2.3 1.9-4.3 8.3s-2.7 8.1-3.1 8.3c-.4.2-1-.4-1.2 0-.2.3.7 1.5-.3 2.8-1 1.3-4.1 6.4-4.6 6.7-.5.3-1.4-.3-1.6 0-.2.3.5 1.2-.7 2.7-1.3 1.5-17.2 23.9-19.8 28.3s-9.1 16.2-17.1 18.4c-8 2.2-19.5 2.3-32.2 5.6s-22.6 6.1-30.4 10.9c-7.7 4.7-16.6 13.9-19.2 17.8s-13.8 20.5-18.4 34.3"/><path class="st5" d="M156.1 125.3s4.8-7.1 3.2-16.5c-1.3-7.6-6.5-8.9-7.9-9.2-2.3-2.5-6.5-4-8.2-3.6-1.8.4-4 5.2-4.9 10.2-.7 3.7-6.4 14.7-7.1 16.7-.8 2-.4 3.3-.5 4.4-.2 1.1-9.8 19.1-10.7 20.8s-2.2 4.4-2.3 6.2c-.1 1.8-4 6.5-5.3 9.7-1.3 3.2-.7 7.8-3.3 16-2.6 8.3-7.5 17.2-9.7 21.6"/><path class="st2" d="M192.6 131.5s-6.8-5.1-17.6-4c-11.2-2.6-21.6-2.2-25.1 2.9s-13.2 22.7-15.7 28.2-7.5 21.8-9.3 24.3c-1.8 2.4-5 5.1-5 5.1m19.8 1.5c3.3-1.1 7.9-2.4 12.4-7.5s23.6-33.1 27.6-37.5c4-4.4 11.2-12.7 13.9-12.7s12.9 1.4 16.2 1.3 6.4-.3 8.2-.1c1.8.2 6.1 2.5 9.1 3s14 5.1 17.9 20.9c-4.1 6.5-12.8 6.8-14.4 7.9-1.6 1.1-3.6 3-5.2 2.3-1.6-.7-3-3.2-3.3-4.4-1.4 1-4.6 1.2-5.9.4-1.6 3-15.4 16.2-16.8 18.7-1.5 2.5-8.5 11-5.2 15.6"/><path class="st2" d="M188.9 202.7c2.5-1.4 12.4-10.2 16.2-13.9S224.3 168 230 166c5.8-2 11.7-4.8 14.8-8.1m-28.7 5.2s2.4-2.4 3.6-4.9m2.3 4.4s0-1.5 3.2-2"/><g class="st3"><path class="st4" d="M151.3 101c.1 1.6-.2 3.1-.7 4.6-.5 1.5-1.2 3-2.2 4.2-.5.6-1.1 1.2-1.9 1.6-.2.1-.4.2-.6.2-.2.1-.4.1-.6.1-.4.1-.8.1-1.2.1-1.6-.1-3.3-.8-4.3-2 1.3.9 2.8 1.3 4.3 1.2.7-.1 1.5-.2 2-.5.6-.3 1.1-.8 1.6-1.4.9-1.1 1.6-2.5 2.2-3.9.3-.7.6-1.4.8-2.1.2-.6.4-1.4.6-2.1z"/></g><g class="st3"><path class="st4" d="M285.2 234.3c-.5-.5-1-.9-1.4-1.5-.4-.6-.6-1.3-.7-2-.3-1.4.1-2.9.8-4.1.4-.7.8-1.2 1.3-1.7s.9-1 1.4-1.4c1-.9 2-1.8 3.1-2.5-.9.9-1.8 1.9-2.7 2.9-.8 1-1.8 2-2.3 3.1-.5 1.1-.8 2.4-.8 3.6.1.6.1 1.2.4 1.8.2.6.6 1.2.9 1.8z"/></g></g></svg>