<svg xmlns="http://www.w3.org/2000/svg" viewBox="0 0 716.3 380" style="enable-background:new 0 0 716.3 380" xml:space="preserve"><style>.st0{display:none}.st1{opacity:.33;fill:#e0e1e2}.st1,.st2,.st3{display:inline}.st2{fill:none;stroke:#808285;stroke-width:2;stroke-miterlimit:10}.st3{opacity:.5}.st4{fill:#aeb0b2}.st5{display:inline;fill:none;stroke:#2969d0;stroke-width:3;stroke-linecap:round;stroke-miterlimit:10}</style><g id="u" class="st0" style="display:block"><path class="st1" d="M373.1 380c-1.6-2.6-4.3-6.8-8-11.5-4.5-5.6-6.4-6.9-11.1-12.5-4.5-5.4-7.4-9.9-10.4-14.6-5.7-8.9-4.9-9.3-10.4-17.5-2.4-3.6-3.9-5.6-8.7-12.7-3.5-5.3-4.9-7.6-6.1-11-.4-1.2-1.1-3.4-1.9-10.2-.6-5.3-.2-10.3-1.1-15.5-.3-1.7-.6-3-.8-3.7-.6-2.2-1.1-3.3-1.7-4.9-.5-1.4-2-5.3-2.5-10.1-.2-1.4-.3-3.2-.2-5.2-.6-1.1-1.2-2.2-1.7-3.3-.3-1.1-.5-2.4-.6-3.9-.1-2.7.3-5 .8-6.5 1.8-3 3.5-6.1 5.3-9.1 2.4-3.7 4.8-7.3 7.2-11 .2-.9.5-2.3.8-4 1-5.6 1.2-7.2 1.9-10 .9-3.4 1.2-5.1 2.2-6.6 1.6-2.3 3.8-3.5 5.3-4-.2-2-.4-5.2-.7-9.1-1.1-14.7-.8-14.3-1.5-22.1 0-.1-.7-7.7-1.3-17.5-.2-3-.3-5.2.2-8.2.5-2.5 1.3-7.2 5.1-11.3 1.5-1.7 3.9-4.2 7.8-4.8 3.7-.5 6.7 1.1 7.8 1.8 1.4.9 2.2 1.8 3 2.7.6.6 2.8 3.1 4.5 7.6 1.1 2.8 1.4 5 1.7 7.3.7 4.6.2 5.8.9 12.4.2 2.1.3 3.2.6 4.7.7 3.9 1.8 6.7 3.4 10.5 2.4 5.8 3.3 7.9 4.1 10 2.2 5.4 3.2 9.3 5.2 16.7 1.3 4.8 2.7 10.9 4 18.1.6-.1 1.1-.3 1.7-.4.3-1.3.6-2.7.9-4-.2-5.1-.2-10.5.2-16 0-.7.1-1.3.2-2-.4-1.3-.7-2.4-.9-3.2-1-3.9-.8-9-.9-9.9-.2-1.1-.9-1.6-1.5-2.5-.5-.7-1-1.8-1-3.5-.8-.9-1.7-2.1-2.5-3.7-.1-.1-1.3-2.6-1.6-5-.7-5.4 3.4-10.3 4.1-11.1.3-.6.8-1.5 1.6-2.3 3.1-3.2 7.5-3.2 8.7-3.2 2.7 0 4.8.8 6.2 1.5 2 .1 4.1.3 6.3.5 3.4.3 6.7.8 9.7 1.3 1.4-.3 3.7-.6 6.4 0 4.6 1 7.4 3.9 8.4 5 1.3.5 5.7 3 6.4 3.5 1.5.4 3.1.9 4.8 1.6 3 1.2 5.4 2.7 7.2 4.1 1 .3 2 .5 3 .8 0-1.2-.1-3 0-5.2.1-2.4.1-3.6.3-4.5.9-3.6 3.2-5.8 4-6.5 1.1-1 2.2-1.5 2.9-1.9.3-.5.8-1.2 1.6-1.8 2-1.4 4.4-.9 5.2-.8 3.4.7 5.2 3.4 5.6 4.1.7 1 .7 1.4 1.9 4.5.8 2 1.5 3.7 2 4.7 2.2 3.4 3.6 6.4 4.5 8.7 1.1 2.9 2.9 10.7 3.9 15.6 1.9 8.9 4.4 19.4 4.1 27.7-.3 6.9-1.4 12.5-3.4 22.1-.6 2.9-1.3 6-1.6 10.4-.3 3.8-.1 6.6-.1 8 .2 6.5-.3 12.3-1.4 23.8-1 10.5-1.7 12.4-2 20.6-.2 4.9.1 4.3-.1 8.6-.4 10.3-1.8 12.4-2.4 21.9-.5 6.9-.2 12.2 0 15.5.2 3.2.5 9.5 1.9 16.1 1.2 6.1 3.9 15.5 10.5 26.3-35.9-.4-71.9-.4-107.9-.4z"/><g class="st3"><path class="st4" d="M323.9 216.5c1.1-.5 2.1-1.1 3-1.8.8-.7 1.4-1.7 2-2.7 1.1-2 1.6-4.3 2.4-6.6 0 1.2-.1 2.4-.3 3.6-.2 1.2-.6 2.4-1.2 3.5s-1.3 2.2-2.4 2.9c-1.1.6-2.3 1-3.5 1.1z"/></g><path class="st2" d="M373.1 380c-1.6-2.6-4.3-6.8-8-11.5-4.5-5.6-6.4-6.9-11.1-12.5-4.5-5.4-7.4-9.9-10.4-14.6-5.7-8.9-4.9-9.3-10.4-17.5-2.4-3.6-3.9-5.6-8.7-12.7-3.5-5.3-4.9-7.6-6.1-11-.4-1.2-1.1-3.4-1.9-10.2-.6-5.3-.2-10.3-1.1-15.5-.3-1.7-.6-3-.8-3.7-.6-2.2-1.1-3.3-1.7-4.9-.5-1.4-2-5.3-2.5-10.1-.2-1.4-.3-3.2-.2-5.2-.6-1.1-1.2-2.2-1.7-3.3-.3-1.1-.5-2.4-.6-3.9-.1-2.7.3-5 .8-6.5 1.8-3 3.5-6.1 5.3-9.1 2.4-3.7 4.8-7.3 7.2-11 .2-.9.5-2.3.8-4 1-5.6 1.2-7.2 1.9-10 .9-3.4 1.2-5.1 2.2-6.6 1.6-2.3 3.8-3.5 5.3-4m45.7 18.3c.3-.1.6-.1.9-.2.3-1.3.6-2.7.9-4-.2-5.1-.2-10.5.2-16 0-.7.1-1.3.2-2-.4-1.3-.7-2.4-.9-3.2-1-3.9-.8-9-.9-9.9-.2-1.1-.9-1.6-1.5-2.5-.5-.7-1-1.8-1-3.5-.8-.9-1.7-2.1-2.5-3.7-.1-.1-1.3-2.6-1.6-5-.7-5.4 3.4-10.3 4.1-11.1.3-.6.8-1.5 1.6-2.3 3.1-3.2 7.5-3.2 8.7-3.2 2.7 0 4.8.8 6.2 1.5 2 .1 4.1.3 6.3.5 3.4.3 6.7.8 9.7 1.3 1.4-.3 3.7-.6 6.4 0 4.6 1 7.4 3.9 8.4 5 1.3.5 5.7 3 6.4 3.5 1.5.4 3.1.9 4.8 1.6 3 1.2 5.4 2.7 7.2 4.1 1 .3 2 .5 3 .8 0-1.2-.1-3 0-5.2.1-2.4.1-3.6.3-4.5.9-3.6 3.2-5.8 4-6.5 1.1-1 2.2-1.5 2.9-1.9.3-.5.8-1.2 1.6-1.8 2-1.4 4.4-.9 5.2-.8 3.4.7 5.2 3.4 5.6 4.1.7 1 .7 1.4 1.9 4.5.8 2 1.5 3.7 2 4.7 2.2 3.4 3.6 6.4 4.5 8.7 1.1 2.9 2.9 10.7 3.9 15.6 1.9 8.9 4.4 19.4 4.1 27.7-.3 6.9-1.4 12.5-3.4 22.1-.6 2.9-1.3 6-1.6 10.4-.3 3.8-.1 6.6-.1 8 .2 6.5-.3 12.3-1.4 23.8-1 10.5-1.7 12.4-2 20.6-.2 4.9.1 4.3-.1 8.6-.4 10.3-1.8 12.4-2.4 21.9-.5 6.9-.2 12.2 0 15.5.2 3.2.5 9.5 1.9 16.1 1.2 6.1 3.9 15.5 10.5 26.3"/><path class="st2" d="M336 278.1c1.5-2.9 3.5-7.3 4.5-12.9.7-3.7.7-6.6.8-10.2 0-4.1-.1-9.7-1.1-16.3-.3-4.6-.5-9.2-.8-13.8"/><path class="st5" d="M339.5 224.9c-1.2-4.1-2.5-8.4-3.6-12.9-1.5-5.7-3.4-14.6-4.5-19.9-.2-2-.4-5.2-.7-9.1-1.1-14.7-.8-14.3-1.5-22.1 0-.1-.7-7.7-1.3-17.5-.2-3-.3-5.2.2-8.2.5-2.5 1.3-7.2 5.1-11.3 1.5-1.7 3.9-4.2 7.8-4.8 3.7-.5 6.7 1.1 7.8 1.8 1.4.9 2.2 1.8 3 2.7.6.6 2.8 3.1 4.5 7.6 1.1 2.8 1.4 5 1.7 7.3.7 4.6.2 5.8.9 12.4.2 2.1.3 3.2.6 4.7.7 3.9 1.8 6.7 3.4 10.5 2.4 5.8 3.3 7.9 4.1 10 2.2 5.4 3.2 9.3 5.2 16.7 1.3 4.8 2.7 10.9 4 18.1.3-.1.5-.1.8-.2"/><path class="st2" d="M407.3 147.2c1.2.5 3.5 1.8 5.2 3.1 1.2.9 3 2.3 4.6 4.7 2 3.1 2.4 6.3 2.7 8.7.2 1.5.2 2.7.2 3.6l.3 41.8c.1.8.3 1.8.7 2.8.9 2.8 2.3 5 3.5 6.4m28.3 11.9c-.5-.5-1-1.2-1.5-2.2-.9-2-.7-4-.6-4.8 0 0 2.4-20.9 3.1-31.6.2-2.5.1-5.5 0-11.5-.1-3.5-.2-6-1.2-9-.6-1.6-1.3-3.6-3.2-5.6-1.9-2-4.3-2.8-5.6-3.2"/><g class="st3"><path class="st4" d="M334.1 126.9c.3 1.7.6 3.4 1.1 4.9.3.7.9 1.1 1.7 1.3.8.1 1.6.1 2.5.1 3.4-.1 6.8-.4 10.2-.6h-.1c.5-.1.8-.6 1-1.2.2-.6.3-1.2.3-1.8v-1.9c-.1-.6-.1-1.3-.2-1.9.2.6.4 1.3.5 1.9.1.6.2 1.3.3 2 0 .7 0 1.3-.2 2s-.5 1.4-1.3 1.8h-.1c-1.7.2-3.4.4-5.1.5-1.7.1-3.4.2-5.1.2-.9 0-1.7 0-2.6-.3-.4-.1-.9-.3-1.3-.6s-.7-.8-.8-1.2c-.2-.9-.3-1.7-.4-2.6-.4-.9-.4-1.7-.4-2.6z"/></g></g><g id="shift-left" class="st0" style="display:block"><path class="st1" d="M247 382c3.7-4.7 14.7-21 18.2-26.4 3.5-5.4 11.4-23.8 14.7-28 3.3-4.2 7.3-9.5 5.5-21.9-1.7-12.4-3.2-16.7-2.2-34.4s-2.1-21.2-6.2-29.7c-.8-5.1-2.1-6.5-4-8 .3-3.5 2.1-17.4 3.2-24.5 1.2-7.1-1.2-4.9 0-20s-2.9-25.8-5.5-28.9c-.4-3-3.3-6.4-8.6-7.5-5.2-1.2-10 3.6-10 5.7-1.7.6-7.1 8-4.4 32.2-5.9 14.1-9.6 28.6-10.4 33.5-.9 4.9-4.9 27-6.5 26.1s4.8-22 6.7-35.1c1.9-13.1 3.9-22.2 5.1-28.4 1.2-6.2 1.3-26.5-5.5-29-1.6-5.1-6.5-6.4-11-6.7-4.5-.3-8.3 3.3-8.4 5.4-2 .7-4.1 10.4-3.2 23.9-4.5 4.8-10.6 20-17.4 53.4 0 0 2.2-32.5 6.4-45.8 4.3-13.3 7.4-18.5 4.9-25.9 1.2-3.5-2.1-6.1-6.6-7.5-4.5-1.4-9.6 1-10.6 3.8-3.6.6-9.6 11.3-12.2 19.8-4.8 8.5-10.5 23.5-12.7 32s-3.2 39.6-4.5 41.7c-1.3 2.1-3.6 2.3-5.4.3s-2.3-2.6-2.8-6.3c-.5-3.8-1.4-10.4-2.5-15.3-1-4.9-2.2-14.6-1.8-18.2.4-3.6 5-10 4.5-18.4-.5-8.4-5.8-11.6-7.2-12.7-1.4-1-3-3.4-7.8-2.1-4.8 1.3-7.1 12.3-7.1 12.3s-6.1 11.9-7.1 14.6c-1 2.7-.8 6-1.8 10.4s.3 8.8-1.2 13.2c-1.4 4.4-.8 11.6.8 17.6 1.6 6 .4 6.3 1.7 10.9 1.3 4.5 3.9 10.7 4.8 15 .9 4.3.6 13.8 1.2 21.2s4 11.5 4.9 21.2 2.8 36.7 4.1 44.5c1.3 7.8 2.1 10.2-1.8 22.2H247z"/><path class="st2" d="M247 382c3.7-4.7 14.7-21 18.2-26.4 3.5-5.4 11.4-23.8 14.7-28 3.3-4.2 7.3-9.5 5.5-21.9-1.7-12.4-3.2-16.7-2.2-34.4s-2.1-21.2-6.2-29.7c-.8-5.1-2.1-6.5-4-8 .3-3.5 2.1-17.4 3.2-24.5 1.2-7.1-1.2-4.9 0-20s-2.9-25.8-5.5-28.9c-.4-3-3.3-6.4-8.6-7.5-5.2-1.2-10 3.6-10 5.7-1.7.6-7.1 8-4.4 32.2-5.9 14.1-9.6 28.6-10.4 33.5-.9 4.9-4.9 27-6.5 26.1s4.8-22 6.7-35.1c1.9-13.1 3.9-22.2 5.1-28.4 1.2-6.2 1.3-26.5-5.5-29-1.6-5.1-6.5-6.4-11-6.7-4.5-.3-8.3 3.3-8.4 5.4-2 .7-4.1 10.4-3.2 23.9-4.5 4.8-10.6 20-17.4 53.4 0 0 2.2-32.5 6.4-45.8 4.3-13.3 7.4-18.5 4.9-25.9 1.2-3.5-2.1-6.1-6.6-7.5-4.5-1.4-9.6 1-10.6 3.8-3.6.6-9.6 11.3-12.2 19.8-4.8 8.5-10.5 23.5-12.7 32s-3.2 39.6-4.5 41.7c-1.3 2.1-3.6 2.3-5.4.3s-2.3-2.6-2.8-6.3c-.5-3.8-1.4-10.4-2.5-15.3-1-4.9-2.2-14.6-1.8-18.2.4-3.6 5-10 4.5-18.4-.5-8.4-5.8-11.6-7.2-12.7-1.4-1-3-3.4-7.8-2.1-4.8 1.3-7.1 12.3-7.1 12.3s-6.1 11.9-7.1 14.6c-1 2.7-.8 6-1.8 10.4s.3 8.8-1.2 13.2c-1.4 4.4-.8 11.6.8 17.6 1.6 6 .4 6.3 1.7 10.9 1.3 4.5 3.9 10.7 4.8 15 .9 4.3.6 13.8 1.2 21.2s4 11.5 4.9 21.2 2.8 36.7 4.1 44.5c1.3 7.8 2.1 10.2-1.8 22.2"/><path class="st5" d="M156.5 251.9c-1.8-2.1-2.3-2.6-2.8-6.3-.5-3.8-1.4-10.4-2.5-15.3-1-4.9-2.2-14.6-1.8-18.2.4-3.6 5-10 4.5-18.4-.5-8.4-5.8-11.6-7.2-12.7-1.4-1-3-3.4-7.8-2.1-4.8 1.3-7.1 12.3-7.1 12.3s-6.1 11.9-7.1 14.6c-1 2.7-.8 6-1.8 10.4s.3 8.8-1.2 13.2c-1.4 4.4-.8 11.6.8 17.6 1.6 6 .4 6.3 1.7 10.9 1.3 4.5 3.9 10.7 4.8 15"/><g class="st3"><path class="st4" d="M134.1 192.1c1.2-.3 2.5-.3 3.7-.6 1.2-.3 2.2-.8 3.1-1.6.9-.7 1.8-1.6 2.6-2.6.4-.5.8-1 1.2-1.4.4-.5.7-1 1.2-1.5-.2.6-.5 1.2-.8 1.8-.3.6-.6 1.1-1 1.7-.7 1.1-1.6 2.1-2.6 2.9-1 .8-2.3 1.4-3.6 1.5-1.3.2-2.5-.2-3.8-.2z"/></g><path class="st2" d="M266.3 286.6c-.2-7.4-1.2-21.2 0-29.5 1.2-8.2 6.8-23.4 6.8-23.4M192 250c2.1-4.6 4.7-11.1 5.1-16.4"/></g></svg>