<svg xmlns="http://www.w3.org/2000/svg" viewBox="0 0 716.3 380" style="enable-background:new 0 0 716.3 380" xml:space="preserve"><style>.st0{display:none}.st1{opacity:.33;fill:#e0e1e2}.st1,.st2,.st3{display:inline}.st2{fill:none;stroke:#808285;stroke-width:2;stroke-miterlimit:10}.st3{opacity:.5}.st4{fill:#aeb0b2}.st5{display:inline;fill:none;stroke:#2969d0;stroke-width:3;stroke-linecap:round;stroke-miterlimit:10}</style><g id="key-7" class="st0" style="display:block"><path class="st1" d="M363.9 380.3c-1.6-3-4.1-7.4-7.2-12.6-5.9-9.9-5.2-8.3-7.1-11.6-3.8-6.7-4.7-9.1-7.8-12.9-1-1.2-.6-.5-6-5.9-5.8-5.7-6.7-6.9-7.3-7.7-1.1-1.4-1.8-2.6-4.8-8.7-2.5-5.1-3.8-7.6-5.1-10.5-5.6-12.1-6.1-15.4-10.6-24.2-.4-.8-2.3-3.8-4.4-8.2-.1-.3-.5-.9-.9-1.9-.5-1.3-.6-2.5-.7-3.2-.4-5.2.2-11.9.2-11.9.5-5.7.9-9.9.7-15.2 0-.7-.1-2.2-.4-5.1-.5-6.4-.8-12.8-1.3-19.2-.1-.6-.2-1.9.1-3.5.1-.5.5-2.7 1.9-5.3.7-1.1 1.3-2 2.7-3.4 1.4-1.6 3.5-3.7 6.1-6 .5-.9 1.3-2.1 2.4-3.3.9-.9 1.7-1.7 2.5-2.2.4-1.4.8-2.5 1.2-3.4.8-1.8 1.7-3 2.1-3.4.3-.5.6-.8.9-1.1-.7-2.9-1.7-7-2.7-11.9-1-5.3-2.2-11.4-2.7-19.2-.3-4.4 0-2.9-.3-15.2-.2-6.6-.4-10.1-.4-16.6 0-6 .1-9.4 1.1-13.7.8-3.2 1.8-5.8 3.3-8.3 1.5-2.4 2.7-4.4 5.3-5.6 3-1.5 6.6-1.4 9.3 0 1.4.7 2.3 1.6 3.7 3 2.3 2.3 3.5 4.6 3.7 5 1 2 1.4 3.8 1.8 5.2.4 1.8.6 3.3.7 5.4.2 3.8.2 5.5.2 10.4.1 6.2.3 7.5.4 8.3.4 2.6 1.1 4.4 1.9 6.8 1.4 4.2 2.2 5.2 3.8 9.5 1.2 3.2 1.9 5.8 2.3 7.2.8 2.9 2.1 7.7 2.8 13.3.2 1.4.4 4.2 1.3 7.9.2 1 .4 1.7.6 2.3 1.2 0 2.4-.1 3.6-.1.6-.9 1.4-2.2 2-3.9.6-1.7.8-3.3.8-4.4.9-5.2 1.6-10.9 2-17.2.3-4.5.3-8.7.2-12.7-.2-2-.3-4.8.2-8.2.3-1.5.7-3.8 1.9-6.3.7-1.4 2.9-5.9 8.2-8.7 5.9-3.2 11.7-2.1 13.5-1.7 1.1.2 6.1 1.4 10.5 5.7 2.2 2.2 3.5 4.4 4.3 5.9.1.6.3 1.2.4 1.8.1 4.2.2 8.5.2 12.7 1.9-1.8 3.7-3.2 5.1-4.1 1.9-1.3 3.2-2.1 5.1-2.7 1.7-.5 3.1-.5 4.8-.4 2.3 0 5.7.1 9.7 1.8 1.8.8 3.9 1.7 5.7 3.9 1.2 1.4 1.8 2.8 2.2 3.8.5-.7 1.2-1.7 2.3-2.6 1.2-1.1 3.1-2.8 5.8-3 2.7-.2 4.7 1.2 5.5 1.7 2.9 2.1 4.1 5.3 4.9 7.5.3.7.4 1.3.5 1.7.7.7 1.7 1.7 2.7 3 1 1.3 1.7 2.6 2.3 4 .7 1.5 2.2 5.3 3.3 11.7.3 2 .7 4.7.9 7.9.5 1.3.9 3 1.2 5.1.2 2.1.1 3.8 0 5.2-1.4 8.9-2.9 14.2-4 17.5-1.1 3.1-1.6 4.6-2.6 7.7-1.2 3.8-1.5 5-1.7 6-.7 3.2-.7 5.4-.8 7.7-.1 2.7-.4 8.9-2.1 15.4-1.1 4.3-2.1 5.8-2.7 10.5-.2 1.6-.3 3-.4 5.7-.3 5.5-.1 7.8-.2 12.1 0 1.8-.1 5.8-.7 10.5-.8 6.7-1.6 8-2.5 14.8-.3 2.2-.7 6-.8 10.4-.2 9.5 1 16.7 1.4 18.5 1.3 6.8 3.2 11.9 7.1 20.7 3.6 8.3 8.6 19 14.9 31.5-35.9.1-72 .1-108 .2z"/><g class="st3"><path class="st4" d="M321.3 106.2c.1 1.1.2 2.2.4 3.3.1.5.2 1.1.4 1.6.1.2.2.5.4.7l.2.2c.1.1.2.1.3.2.9.4 2 .5 3.1.6 1.1.1 2.2.1 3.3.1 1.1 0 2.2-.2 3.2-.4 1.1-.2 2.1-.5 2.9-1.1.4-.3.8-.7 1-1.1.2-.5.3-1 .3-1.5.1-1.1 0-2.2.1-3.3.2 1.1.3 2.2.4 3.3 0 .6 0 1.2-.2 1.8-.2.6-.6 1.1-1.1 1.5-1 .8-2.1 1.1-3.2 1.4-1.1.3-2.3.4-3.4.4s-2.3 0-3.4-.1c-1.1-.2-2.3-.3-3.4-.9-.3-.1-.6-.4-.7-.7-.2-.3-.3-.6-.4-.8-.2-.6-.3-1.1-.3-1.7 0-1.2 0-2.3.1-3.5z"/></g><path class="st2" d="M363.9 380.3c-1.6-3-4.1-7.4-7.2-12.6-5.9-9.9-5.2-8.3-7.1-11.6-3.8-6.7-4.7-9.1-7.8-12.9-1-1.2-.6-.5-6-5.9-5.8-5.7-6.7-6.9-7.3-7.7-1.1-1.4-1.8-2.6-4.8-8.7-2.5-5.1-3.8-7.6-5.1-10.5-5.6-12.1-6.1-15.4-10.6-24.2-.4-.8-2.3-3.8-4.4-8.2-.1-.3-.5-.9-.9-1.9-.5-1.3-.6-2.5-.7-3.2-.4-5.2.2-11.9.2-11.9.5-5.7.9-9.9.7-15.2 0-.7-.1-2.2-.4-5.1-.5-6.4-.8-12.8-1.3-19.2-.1-.6-.2-1.9.1-3.5.1-.5.5-2.7 1.9-5.3.7-1.1 1.3-2 2.7-3.4 1.4-1.6 3.5-3.7 6.1-6 .5-.9 1.3-2.1 2.4-3.3.9-.9 1.7-1.7 2.5-2.2.4-1.4.8-2.5 1.2-3.4.8-1.8 1.7-3 2.1-3.4.3-.5.6-.8.9-1.1m37.7-6.4c.7 0 1.3-.1 2-.1.6-.9 1.4-2.2 2-3.9.6-1.7.8-3.3.8-4.4.9-5.2 1.6-10.9 2-17.2.3-4.5.3-8.7.2-12.7-.2-2-.3-4.8.2-8.2.3-1.5.7-3.8 1.9-6.3.7-1.4 2.9-5.9 8.2-8.7 5.9-3.2 11.7-2.1 13.5-1.7 1.1.2 6.1 1.4 10.5 5.7 2.2 2.2 3.5 4.4 4.3 5.9.1.6.3 1.2.4 1.8.1 4.2.2 8.5.2 12.7 1.9-1.8 3.7-3.2 5.1-4.1 1.9-1.3 3.2-2.1 5.1-2.7 1.7-.5 3.1-.5 4.8-.4 2.3 0 5.7.1 9.7 1.8 1.8.8 3.9 1.7 5.7 3.9 1.2 1.4 1.8 2.8 2.2 3.8.5-.7 1.2-1.7 2.3-2.6 1.2-1.1 3.1-2.8 5.8-3 2.7-.2 4.7 1.2 5.5 1.7 2.9 2.1 4.1 5.3 4.9 7.5.3.7.4 1.3.5 1.7.7.7 1.7 1.7 2.7 3 1 1.3 1.7 2.6 2.3 4 .7 1.5 2.2 5.3 3.3 11.7.3 2 .7 4.7.9 7.9.5 1.3.9 3 1.2 5.1.2 2.1.1 3.8 0 5.2-1.4 8.9-2.9 14.2-4 17.5-1.1 3.1-1.6 4.6-2.6 7.7-1.2 3.8-1.5 5-1.7 6-.7 3.2-.7 5.4-.8 7.7-.1 2.7-.4 8.9-2.1 15.4-1.1 4.3-2.1 5.8-2.7 10.5-.2 1.6-.3 3-.4 5.7-.3 5.5-.1 7.8-.2 12.1 0 1.8-.1 5.8-.7 10.5-.8 6.7-1.6 8-2.5 14.8-.3 2.2-.7 6-.8 10.4-.2 9.5 1 16.7 1.4 18.5 1.3 6.8 3.2 11.9 7.1 20.7 3.6 8.3 8.6 19 14.9 31.5"/><path class="st2" d="M316.5 248.5c1.1-1.7 2.7-4.2 3.9-7.6.6-1.6 1.3-4.1 1.9-10.1.4-3.6.5-5.9.6-11.7.2-6 .3-9.5.4-11.8"/><path class="st5" d="M323.3 207.3c.1-3 0-3.9-.1-5.2-.2-3.1-1.1-7.8-2.2-12.4-.7-2.9-1.7-7-2.7-11.9-1-5.3-2.2-11.4-2.7-19.2-.3-4.4 0-2.9-.3-15.2-.2-6.6-.4-10.1-.4-16.6 0-6 .1-9.4 1.1-13.7.8-3.2 1.8-5.8 3.3-8.3 1.5-2.4 2.7-4.4 5.3-5.6 3-1.5 6.6-1.4 9.3 0 1.4.7 2.3 1.6 3.7 3 2.3 2.3 3.5 4.6 3.7 5 1 2 1.4 3.8 1.8 5.2.4 1.8.6 3.3.7 5.4.2 3.8.2 5.5.2 10.4.1 6.2.3 7.5.4 8.3.4 2.6 1.1 4.4 1.9 6.8 1.4 4.2 2.2 5.2 3.8 9.5 1.2 3.2 1.9 5.8 2.3 7.2.8 2.9 2.1 7.7 2.8 13.3.2 1.4.4 4.2 1.3 7.9.2 1 .4 1.7.6 2.3.6 0 1.1 0 1.7-.1"/><path class="st2" d="M404.2 188.3c-2.7-4.3-1.9-10.8-1.7-13.8.7-9.4 1.5-19 2.6-28m27.4 54.6c3.6-17.9 5.9-31.5 6.7-37.2.2-1.9.6-5.1.1-9.1-.4-2.8-1-4.4-1.6-5.9"/><path class="st2" d="M438.6 168.1c.5 3.6.6 7.5.7 10.1 0 .3-3.4 7.8-4.2 10.1"/></g><g id="shift-left" class="st0" style="display:block"><path class="st1" d="M247 382c3.7-4.7 14.7-21 18.2-26.4 3.5-5.4 11.4-23.8 14.7-28 3.3-4.2 7.3-9.5 5.5-21.9-1.7-12.4-3.2-16.7-2.2-34.4s-2.1-21.2-6.2-29.7c-.8-5.1-2.1-6.5-4-8 .3-3.5 2.1-17.4 3.2-24.5 1.2-7.1-1.2-4.9 0-20s-2.9-25.8-5.5-28.9c-.4-3-3.3-6.4-8.6-7.5-5.2-1.2-10 3.6-10 5.7-1.7.6-7.1 8-4.4 32.2-5.9 14.1-9.6 28.6-10.4 33.5-.9 4.9-4.9 27-6.5 26.1s4.8-22 6.7-35.1c1.9-13.1 3.9-22.2 5.1-28.4 1.2-6.2 1.3-26.5-5.5-29-1.6-5.1-6.5-6.4-11-6.7-4.5-.3-8.3 3.3-8.4 5.4-2 .7-4.1 10.4-3.2 23.9-4.5 4.8-10.6 20-17.4 53.4 0 0 2.2-32.5 6.4-45.8 4.3-13.3 7.4-18.5 4.9-25.9 1.2-3.5-2.1-6.1-6.6-7.5-4.5-1.4-9.6 1-10.6 3.8-3.6.6-9.6 11.3-12.2 19.8-4.8 8.5-10.5 23.5-12.7 32s-3.2 39.6-4.5 41.7c-1.3 2.1-3.6 2.3-5.4.3s-2.3-2.6-2.8-6.3c-.5-3.8-1.4-10.4-2.5-15.3-1-4.9-2.2-14.6-1.8-18.2.4-3.6 5-10 4.5-18.4-.5-8.4-5.8-11.6-7.2-12.7-1.4-1-3-3.4-7.8-2.1-4.8 1.3-7.1 12.3-7.1 12.3s-6.1 11.9-7.1 14.6c-1 2.7-.8 6-1.8 10.4s.3 8.8-1.2 13.2c-1.4 4.4-.8 11.6.8 17.6 1.6 6 .4 6.3 1.7 10.9 1.3 4.5 3.9 10.7 4.8 15 .9 4.3.6 13.8 1.2 21.2s4 11.5 4.9 21.2 2.8 36.7 4.1 44.5c1.3 7.8 2.1 10.2-1.8 22.2H247z"/><path class="st2" d="M247 382c3.7-4.7 14.7-21 18.2-26.4 3.5-5.4 11.4-23.8 14.7-28 3.3-4.2 7.3-9.5 5.5-21.9-1.7-12.4-3.2-16.7-2.2-34.4s-2.1-21.2-6.2-29.7c-.8-5.1-2.1-6.5-4-8 .3-3.5 2.1-17.4 3.2-24.5 1.2-7.1-1.2-4.9 0-20s-2.9-25.8-5.5-28.9c-.4-3-3.3-6.4-8.6-7.5-5.2-1.2-10 3.6-10 5.7-1.7.6-7.1 8-4.4 32.2-5.9 14.1-9.6 28.6-10.4 33.5-.9 4.9-4.9 27-6.5 26.1s4.8-22 6.7-35.1c1.9-13.1 3.9-22.2 5.1-28.4 1.2-6.2 1.3-26.5-5.5-29-1.6-5.1-6.5-6.4-11-6.7-4.5-.3-8.3 3.3-8.4 5.4-2 .7-4.1 10.4-3.2 23.9-4.5 4.8-10.6 20-17.4 53.4 0 0 2.2-32.5 6.4-45.8 4.3-13.3 7.4-18.5 4.9-25.9 1.2-3.5-2.1-6.1-6.6-7.5-4.5-1.4-9.6 1-10.6 3.8-3.6.6-9.6 11.3-12.2 19.8-4.8 8.5-10.5 23.5-12.7 32s-3.2 39.6-4.5 41.7c-1.3 2.1-3.6 2.3-5.4.3s-2.3-2.6-2.8-6.3c-.5-3.8-1.4-10.4-2.5-15.3-1-4.9-2.2-14.6-1.8-18.2.4-3.6 5-10 4.5-18.4-.5-8.4-5.8-11.6-7.2-12.7-1.4-1-3-3.4-7.8-2.1-4.8 1.3-7.1 12.3-7.1 12.3s-6.1 11.9-7.1 14.6c-1 2.7-.8 6-1.8 10.4s.3 8.8-1.2 13.2c-1.4 4.4-.8 11.6.8 17.6 1.6 6 .4 6.3 1.7 10.9 1.3 4.5 3.9 10.7 4.8 15 .9 4.3.6 13.8 1.2 21.2s4 11.5 4.9 21.2 2.8 36.7 4.1 44.5c1.3 7.8 2.1 10.2-1.8 22.2"/><path class="st5" d="M156.5 251.9c-1.8-2.1-2.3-2.6-2.8-6.3-.5-3.8-1.4-10.4-2.5-15.3-1-4.9-2.2-14.6-1.8-18.2.4-3.6 5-10 4.5-18.4-.5-8.4-5.8-11.6-7.2-12.7-1.4-1-3-3.4-7.8-2.1-4.8 1.3-7.1 12.3-7.1 12.3s-6.1 11.9-7.1 14.6c-1 2.7-.8 6-1.8 10.4s.3 8.8-1.2 13.2c-1.4 4.4-.8 11.6.8 17.6 1.6 6 .4 6.3 1.7 10.9 1.3 4.5 3.9 10.7 4.8 15"/><g class="st3"><path class="st4" d="M134.1 192.1c1.2-.3 2.5-.3 3.7-.6 1.2-.3 2.2-.8 3.1-1.6.9-.7 1.8-1.6 2.6-2.6.4-.5.8-1 1.2-1.4.4-.5.7-1 1.2-1.5-.2.6-.5 1.2-.8 1.8-.3.6-.6 1.1-1 1.7-.7 1.1-1.6 2.1-2.6 2.9-1 .8-2.3 1.4-3.6 1.5-1.3.2-2.5-.2-3.8-.2z"/></g><path class="st2" d="M266.3 286.6c-.2-7.4-1.2-21.2 0-29.5 1.2-8.2 6.8-23.4 6.8-23.4M192 250c2.1-4.6 4.7-11.1 5.1-16.4"/></g></svg>