<svg xmlns="http://www.w3.org/2000/svg" viewBox="0 0 716.3 380" style="enable-background:new 0 0 716.3 380" xml:space="preserve"><style>.st0{display:none}.st1{opacity:.33;fill:#e0e1e2}.st1,.st2,.st3{display:inline}.st2{fill:none;stroke:#808285;stroke-width:2;stroke-miterlimit:10}.st3{opacity:.5}.st4{fill:#aeb0b2}.st5{display:inline;fill:none;stroke:#2969d0;stroke-width:3;stroke-linecap:round;stroke-miterlimit:10}</style><g id="shift-right" class="st0" style="display:block"><path class="st1" d="M357.3 379.8c-7.6-7.6-14.1-14-19.4-19.2-7.7-7.6-11.6-11.4-12.6-12.3-5.2-4.4-8.7-6.4-12.6-11.7-1.4-1.8-3.4-4.5-4.8-8.6-1.3-3.6-1.5-6.2-2-12.6-.6-7.1-.9-10.7-1.2-13.9-.9-8.7-1.5-13.6-3.3-20-.9-3-1.6-4.9-2.2-8.6-.5-3-1.1-6.6-.3-10.9.4-2.1.8-2.7 1.9-6.5 1.2-4.1 2-7.5 2.5-9.7-.6-1.8-1.3-4.3-2-7.4-.6-2.4-1-4.1-1.3-6.3-.3-2.2-.6-5.4-.5-9.3.8-.2 1.5-.5 2.3-.7.8-.3 2.1-.8 3.7-1.1 1.3-.2 5.7-1 9.3 1.3.8.5 1 .9 2.9 3.1 5 5.9 4.9 5.3 6 6.9 3.4 4.7 4.5 9.4 5.1 12.1.9 3.9.9 7 1 10.5 0 3.4-.2 6.2-.4 8.3-.3.7-.6 1.5-1 2.2l.9 1.8c.6.8 1.2 1.7 1.8 2.7 2 3.5 2.4 6.9 2.5 9.1 0 2.8.6 4.7 1.1 5.9.4.9.8 1.5 3.3 5.2 1 1.4 1.8 2.6 2.4 3.5.3-1.8.7-4.5 1-7.7.3-3.3.4-7.3-.2-17-.3-4.9-.5-8.9-1.1-14.8-1.2-11.4-2.2-15.3-3.2-22.8-1.4-11.2-2-17.8-1-26.1.2-2 .7-4.9 1.1-9.8.5-6 .4-7.7.8-12.6.6-8.3.9-12.5 2.5-17.4 1.6-5.2 3.3-10.5 8.2-12.8 3.1-1.5 6.2-1.2 6.7-1.1 3.9.5 6.4 2.8 7.1 3.5 2.2 2.1 3.1 4.4 3.6 6 1 2.9 1.3 5.6 1 11-.4 6.4-1 7.5-1.4 12.4-.6 6.8 0 12.1.4 15.2.7 5.7 1.3 6.1 3.1 15.4.8 4.2 1.3 7.7 2.3 14.7.7 5 1.6 11.5 2.5 19.3 1.1 0 2.2-.1 3.3-.1-.6-3.9-1.5-9.4-2.5-16.2-1.6-10.7-2.4-16.1-2.8-22.8-.6-9.1-.9-14.7.4-20.5.3-1.2.9-3.8 1.3-7.5.5-4.2.1-4.6.5-8.6.6-6.5 2.2-10.6 2.6-11.7 1.1-2.8 1.8-4.6 3.6-6.4.9-1 3.4-3.4 7.4-4 3.9-.5 6.9 1.1 7.8 1.7 3.2 1.8 4.7 4.5 5.2 5.5 1.1 2 1.3 3.7 1.7 6.1.5 3.6.4 6.4.3 7.4-.2 4.7.1 9.4.1 14-.1 8.8 1 16.7 2.5 27.8.9 7 2.3 15.5 4.4 25.1 1.7.6 3.5 1.2 5.2 1.8 1.1-2.8 2.5-7 3.3-12.2.7-4.9.6-8.6.3-14.9-.4-8.8-1.4-15.4-1.7-17-1.1-7-1.9-11.7-3.9-17.9-.9-2.8-2.2-6.3-2.8-11.4-.4-3.8-.2-6.3.7-8.6.6-1.6 1.5-4 3.9-5.5 4.3-2.6 9.7.2 10.2.5 2.2 1.2 3.3 2.8 5.6 5.9 2.7 3.7 4.3 7 4.8 8.1 1.3 2.7 1.7 4.1 4.9 15 2.5 8.4 3.8 12.6 4.2 13.6.5 1.1 1.4 3.2 2.1 6.2.7 2.9.8 5.1.8 6.4.3 9.1.4 13.7.3 16.9-.2 6-.7 14.1-1.9 24.1.6.1 1.4.3 2.4.3s2.2-.1 3.4-.6c1.6-.6 2.7-1.5 4.3-3.1 3.5-3.5 5.5-6.9 5.7-7.2 1.7-2.8 4.5-6.7 8.9-11.3 1.4-3.1 3-6.4 4.8-9.8 2-3.8 4.1-7.3 6.1-10.5 0-1 0-2.5.1-4.4.2-5.7.2-8.5.6-10.5.5-2.3 1.5-7.5 5.8-11 1.3-1.1 5-4.2 10-3.5 4.4.6 7 3.8 7.6 4.7.1 2.7.1 5.5.2 8.3.1 4.8.1 9.6 0 14.3l-.6 3.9c-2.1 9.7-7.3 25.1-10.8 33.5-2 4.8-5.4 12.3-9.4 18.9-1.2 1.9-2.1 3.4-2.1 3.4-3.7 5.6-5.3 7-7.4 10.5-2.1 3.5-3.2 6.6-3.6 7.9-2.2 6.9-.5 8.9-2.9 15.1-.4 1.1-1.2 2.9-1.7 5.6-.4 2.3-.4 4-.4 5.1 0 7.7.5 11.6.5 17.4 0 1.3-.1 3.1-.3 6.7-.4 6.7-.6 10.1-1.1 14-.8 6.1-1.4 5.9-1.8 10.6-.3 3.3-.6 6.6.2 10.8.5 2.6 1.5 6.6 4.4 11.2-37.3-.2-74.2-.3-111.2-.3z"/><path class="st2" d="M357.3 379.8c-7.6-7.6-14.1-14-19.4-19.2-7.7-7.6-11.6-11.4-12.6-12.3-5.2-4.4-8.7-6.4-12.6-11.7-1.4-1.8-3.4-4.5-4.8-8.6-1.3-3.6-1.5-6.2-2-12.6-.6-7.1-.9-10.7-1.2-13.9-.9-8.7-1.5-13.6-3.3-20-.9-3-1.6-4.9-2.2-8.6-.5-3-1.1-6.6-.3-10.9.4-2.1.8-2.7 1.9-6.5 1.2-4.1 2-7.5 2.5-9.7-.6-1.8-1.3-4.3-2-7.4-.6-2.4-1-4.1-1.3-6.3-.3-2.2-.6-5.4-.5-9.3.8-.2 1.5-.5 2.3-.7.8-.3 2.1-.8 3.7-1.1 1.3-.2 5.7-1 9.3 1.3.8.5 1 .9 2.9 3.1 5 5.9 4.9 5.3 6 6.9 3.4 4.7 4.5 9.4 5.1 12.1.9 3.9.9 7 1 10.5 0 3.4-.2 6.2-.4 8.3-.3.7-.6 1.5-1 2.2l.9 1.8c.6.8 1.2 1.7 1.8 2.7 2 3.5 2.4 6.9 2.5 9.1 0 2.8.6 4.7 1.1 5.9.4.9.8 1.5 3.3 5.2 1 1.4 1.8 2.6 2.4 3.5.3-1.8.7-4.5 1-7.7.3-3.3.4-7.3-.2-17-.3-4.9-.5-8.9-1.1-14.8-1.2-11.4-2.2-15.3-3.2-22.8-1.4-11.2-2-17.8-1-26.1.2-2 .7-4.9 1.1-9.8.5-6 .4-7.7.8-12.6.6-8.3.9-12.5 2.5-17.4 1.6-5.2 3.3-10.5 8.2-12.8 3.1-1.5 6.2-1.2 6.7-1.1 3.9.5 6.4 2.8 7.1 3.5 2.2 2.1 3.1 4.4 3.6 6 1 2.9 1.3 5.6 1 11-.4 6.4-1 7.5-1.4 12.4-.6 6.8 0 12.1.4 15.2.7 5.7 1.3 6.1 3.1 15.4.8 4.2 1.3 7.7 2.3 14.7.7 5 1.6 11.5 2.5 19.3 1.1 0 2.2-.1 3.3-.1-.6-3.9-1.5-9.4-2.5-16.2-1.6-10.7-2.4-16.1-2.8-22.8-.6-9.1-.9-14.7.4-20.5.3-1.2.9-3.8 1.3-7.5.5-4.2.1-4.6.5-8.6.6-6.5 2.2-10.6 2.6-11.7 1.1-2.8 1.8-4.6 3.6-6.4.9-1 3.4-3.4 7.4-4 3.9-.5 6.9 1.1 7.8 1.7 3.2 1.8 4.7 4.5 5.2 5.5 1.1 2 1.3 3.7 1.7 6.1.5 3.6.4 6.4.3 7.4-.2 4.7.1 9.4.1 14-.1 8.8 1 16.7 2.5 27.8.9 7 2.3 15.5 4.4 25.1 1.7.6 3.5 1.2 5.2 1.8 1.1-2.8 2.5-7 3.3-12.2.7-4.9.6-8.6.3-14.9-.4-8.8-1.4-15.4-1.7-17-1.1-7-1.9-11.7-3.9-17.9-.9-2.8-2.2-6.3-2.8-11.4-.4-3.8-.2-6.3.7-8.6.6-1.6 1.5-4 3.9-5.5 4.3-2.6 9.7.2 10.2.5 2.2 1.2 3.3 2.8 5.6 5.9 2.7 3.7 4.3 7 4.8 8.1 1.3 2.7 1.7 4.1 4.9 15 2.5 8.4 3.8 12.6 4.2 13.6.5 1.1 1.4 3.2 2.1 6.2.7 2.9.8 5.1.8 6.4.3 9.1.4 13.7.3 16.9-.2 6-.7 14.1-1.9 24.1.6.1 1.4.3 2.4.3m27.1 25.4c-2.1 3.5-3.2 6.6-3.6 7.9-2.2 6.9-.5 8.9-2.9 15.1-.4 1.1-1.2 2.9-1.7 5.6-.4 2.3-.4 4-.4 5.1 0 7.7.5 11.6.5 17.4 0 1.3-.1 3.1-.3 6.7-.4 6.7-.6 10.1-1.1 14-.8 6.1-1.4 5.9-1.8 10.6-.3 3.3-.6 6.6.2 10.8.5 2.6 1.5 6.6 4.4 11.2"/><path class="st5" d="M448.1 249.9c1 0 2.2-.1 3.4-.6 1.6-.6 2.7-1.5 4.3-3.1 3.5-3.5 5.5-6.9 5.7-7.2 1.7-2.8 4.5-6.7 8.9-11.3 1.4-3.1 3-6.4 4.8-9.8 2-3.8 4.1-7.3 6.1-10.5 0-1 0-2.5.1-4.4.2-5.7.2-8.5.6-10.5.5-2.3 1.5-7.5 5.8-11 1.3-1.1 5-4.2 10-3.5 4.4.6 7 3.8 7.6 4.7.1 2.7.1 5.5.2 8.3.1 4.8.1 9.6 0 14.3l-.6 3.9c-2.1 9.7-7.3 25.1-10.8 33.5-2 4.8-5.4 12.3-9.4 18.9-1.2 1.9-2.1 3.4-2.1 3.4-3.7 5.6-5.3 7-7.4 10.5"/><g class="st3"><path class="st4" d="M493.9 181.8v5.2c.1 1.7.2 3.4.5 5.1l.3 1.2c.1.4.2.7.5 1 .5.6 1.2 1 1.9 1.4 1.5.8 3.1 1.3 4.8 1.5-1.7.2-3.5-.1-5.2-.8-.8-.3-1.6-.8-2.3-1.5-.3-.3-.6-.9-.7-1.3-.1-.4-.2-.9-.3-1.3-.3-1.7-.4-3.5-.3-5.2.1-1.9.4-3.7.8-5.3z"/></g><g class="st3"><path class="st4" d="M306.2 243.8c.7-.6 1.1-1.3 1.3-2.1.2-.8.2-1.6.2-2.4 0-.8-.1-1.7-.2-2.5l-.2-2.5c-.1-1.7-.2-3.4-.6-5-.2-.8-.4-1.6-.8-2.4-.3-.7-.8-1.4-1.7-1.8.9.1 1.6.8 2.1 1.5.5.8.8 1.6 1.1 2.4.5 1.7.7 3.4.8 5.1.1 1.7.3 3.4.2 5.2 0 .9-.2 1.8-.5 2.6s-.9 1.5-1.7 1.9z"/></g></g><g id="x" class="st0" style="display:block"><path class="st1" d="M235.6 381c3.4-6.5 9.1-19 15-23.8s29.6-36.2 36.4-42.4 10.8-11.6 11-20.4c.2-8.8 0-7.2.8-18s1.5-22.7 1.3-25.6c.7-2 1.2-9.4 0-10.2.7-.9.8-4.6-1.3-9.6s-1.2-8.5-2.1-11.4c.5-3.1 3.1-17.4 1.3-23.3-5.5-5.1-20.4.4-26.3 18.5s-3.7 25.8-1.5 27.8c-2.1 1.4-2.6 10-3.2 14.3-.6 4.3-1.3 8.1-.8 9.1-1.7.3-4 6.8-4 8.9 0 2.1-2.9-3.1-10.5-3.1.4-7.4-.4-20.9 9.4-45.3s7.1-30.5 8.8-35.2c1.7-4.6 5.8-15 4.8-27.1-1-12.1-6.3-17.6-12.2-18-5.9-.4-10.4 7.3-11.2 10.4-.9 3-2.4 17.3-4 21.5-1.6 4.2-11.5 25.1-14.7 31s-11.2 28.2-12.7 29.1c-1.4.9-6.1-4-1.4-17.3 4.6-13.3 6.6-22.6 7.1-25.2 2.9-1.6 9.4-9.9 12.5-18.6 3.2-8.6 7.8-21.3.6-27.8s-14.8-1.6-17.1 1.9-6.9 15.7-6.9 15.7-6.6 2.2-12 8.6c-4 .3-7 4.2-7 4.2s-3-1.7-8.8-.6c0-3.7-2.3-25.5-15.4-24.4-3.2-2.2-7.9 1.2-8.4 6.7-.5 5.4.5 23.3.6 25.5-2.7.2-10.8 3.2-12.8 12.2s0 40.2-.6 49.3c-.6 9.1-8.8 17-9.5 29.9-.7 12.9 1.6 48.7 2.5 56.1.9 7.4.6 30.4-9 46.4h101.3z"/><path class="st2" d="M235.6 381c3.4-6.5 9.1-19 15-23.8s29.6-36.2 36.4-42.4 10.8-11.6 11-20.4c.2-8.8 0-7.2.8-18s1.5-22.7 1.3-25.6c.7-2 1.2-9.4 0-10.2.7-.9.8-4.6-1.3-9.6s-1.2-8.5-2.1-11.4c.5-3.1 3.1-17.4 1.3-23.3-5.5-5.1-20.4.4-26.3 18.5s-3.7 25.8-1.5 27.8c-2.1 1.4-2.6 10-3.2 14.3-.6 4.3-1.3 8.1-.8 9.1-1.7.3-4 6.8-4 8.9 0 2.1-2.9-3.1-10.5-3.1.4-7.4-.4-20.9 9.4-45.3s7.1-30.5 8.8-35.2c1.7-4.6 5.8-15 4.8-27.1-1-12.1-6.3-17.6-12.2-18-5.9-.4-10.4 7.3-11.2 10.4-.9 3-2.4 17.3-4 21.5-1.6 4.2-11.5 25.1-14.7 31s-11.2 28.2-12.7 29.1c-1.4.9-6.1-4-1.4-17.3 4.6-13.3 6.6-22.6 7.1-25.2 2.9-1.6 9.4-9.9 12.5-18.6 3.2-8.6 7.8-21.3.6-27.8s-14.8-1.6-17.1 1.9-6.9 15.7-6.9 15.7-6.6 2.2-12 8.6c-4 .3-6.6 3.8-6.6 3.8s-3.4-1.3-9.2-.2c0-3.7-2.3-25.5-15.4-24.4-3.2-2.2-7.9 1.2-8.4 6.7-.5 5.4.5 23.3.6 25.5-2.7.2-10.8 3.2-12.8 12.2s0 40.2-.6 49.3c-.6 9.1-8.8 17-9.5 29.9-.7 12.9 1.6 48.7 2.5 56.1.9 7.4.6 30.4-9 46.4"/><path class="st5" d="M194.9 179.2s1.2-.8-8.2.1-10.7 5.7-15.1 6.1c-9.1.8-19 4.9-20.9 13.9-2 9 0 40.2-.6 49.3"/><path class="st2" d="M170.3 244.3c3.5-3.7 7-5.9 9.9-21.9 2.9-16 9.2-29.5 10.1-33s4.4-9.8 7.7-11.9"/><g class="st3"><path class="st4" d="M295.8 197.5c-2.4.9-4.6 2.5-5.8 4.7-1.2 2.2-1.8 4.7-2 7.2-.1.6-.1 1.3-.1 1.9v.9c0 .3.1.6.1.9.1 1.2.4 2.5 1 3.5 1.1 2.2 3.6 3.5 6.2 3.6-1.3.2-2.6-.1-3.9-.6-1.2-.5-2.3-1.5-3-2.7-.7-1.2-1.1-2.5-1.3-3.8 0-.3-.1-.7-.1-1v-1c0-.7 0-1.3.1-2 .1-1.3.4-2.6.7-3.9.4-1.3.9-2.5 1.7-3.6.8-1.1 1.7-2.1 2.8-2.8 1.1-.6 2.3-1.1 3.6-1.3z"/></g></g></svg>