<svg xmlns="http://www.w3.org/2000/svg" viewBox="0 0 716.3 380" style="enable-background:new 0 0 716.3 380" xml:space="preserve"><style>.st0{display:none}.st1{opacity:.33;fill:#e0e1e2}.st1,.st2,.st3{display:inline}.st2{fill:none;stroke:#808285;stroke-width:2;stroke-miterlimit:10}.st3{opacity:.5}.st4{fill:#aeb0b2}</style><g id="neutral-right" class="st0" style="display:block"><path class="st1" d="M483.3 379.3c-4.7-9.9-8-19.1-9.3-39.5s1.2-22 0-38.1-2.4-12.6-1.2-24.7c1.1-12.1-5.5-27.8-5.6-33.7-.1-5.9.4-26.1-1.4-35.6-1.8-9.5-6-15.6-9-31.9-3-16.3-14.4-26.9-21.7-24.5s-8.5 10-7.6 12.8c-3.2-6.3-5.3-10-7.3-12.4-2-2.4-7.8-5.2-7.8-5.2s-9-1.9-12.5 6.2c-2.9.6-2.9 6.9-2.8 8.6-.7-3.8-2-9.2-3.1-10.9-1.2-1.7-3.5-4.4-6.7-5.8-3.2-1.4-11.4-.9-13.5.8-2.1 1.7-5.9 5.2-5.6 8.6.3 3.5 1.4 6.6 1.6 15.5s3.1 27.7 3.7 32.4 8.7 48 8.7 48-.3.7-.8.2c-.4-.5-9.9-53.3-13.3-61.1 1.3-8.3 2.1-31.8-3.3-37-2.3-5.2-16.3-9.3-21.6 2.4-5.3 11.6-3.6 32.4-4.6 40.4s.1 25.8 1.1 31.1c-.7-5.4-2.5-10.4-5.6-13.5s-8.2-6.2-11.8-7.5c-2.9-1-6.6.3-8.2 1.9-.5.5-1.2 1-1.9 1.1-.8.2-1.5.8-1.5.8 0 1.7 1.3 10.2 6 18.6-1.2 1.8.4 9.3-.9 14.6-1.3 5.2-2.8 8.8-.5 14.8-.9 1.6.3 6 2.3 7.6-1.2 3.7.3 8.4 4.3 18.2 5 12.3 2.5 25.9 6 32.9s7.7 9.4 12.3 16.6c4.5 7.2 22.1 29.7 29.3 35.4s10.2 11.8 10.2 11.8h103.6z"/><path class="st2" d="M483.3 379.3c-4.7-9.9-8-19.1-9.3-39.5s1.2-22 0-38.1-2.4-12.6-1.2-24.7c1.1-12.1-5.5-27.8-5.6-33.7-.1-5.9.4-26.1-1.4-35.6-1.8-9.5-4.5-16.5-9-31.9-5-17.2-14.4-26.9-21.7-24.5s-8.5 10-7.6 12.8c-3.2-6.3-5.3-10-7.3-12.4-1.5-1.8-5.6-4.9-9-5.4-2.5-.4-8.6.1-11.3 6.3-2.6.9-2.9 6.9-2.8 8.6-.7-3.8-2-9.2-3.1-10.9-1.2-1.7-3.5-4.4-6.7-5.8-3.2-1.4-11.4-.9-13.5.8-2.1 1.7-5.9 5.2-5.6 8.6.3 3.5 1.4 6.6 1.6 15.5s3.1 27.7 3.7 32.4 8.7 48 8.7 48-.3.7-.8.2c-.4-.5-9.9-53.3-13.3-61.1 1.3-8.3 2.1-31.8-3.3-37-2.3-5.2-16.3-9.3-21.6 2.4-5.3 11.6-3.6 32.4-4.6 40.4s.1 25.8 1.1 31.1c-.7-5.4-2.5-10.4-5.6-13.5s-8.2-6.2-11.8-7.5c-2.9-1-6.6.3-8.2 2-.6.6-1.4 1.2-2.3 1.3-.7.1-1.1.3-1.1.3 0 1.6 1.1 9.3 5 17 .5 1 .8 2.1.6 3.2-.4 2.9.6 8.9-.5 13.2-1.3 5.2-2.8 8.8-.5 14.8.2 3.2 1.2 6.4 2.3 7.6-.3 4.3.3 8.4 4.3 18.2 5 12.3 2.5 25.9 6 32.9s7.7 9.4 12.3 16.6c4.5 7.2 22.1 29.7 29.3 35.4s10.2 11.8 10.2 11.8"/><path class="st2" d="M343.1 310.4c.3-5.1 2.6-13.8 2.8-16.9.3-3.1-.6 1.3-.8-12.1-.1-13.5-1.3-34.7-3.5-44.2s-1.6-11.4-2.6-14.8m77.4 18.8c-2.2-3.3-4.7-9.1-5-24.5s-4.9-19.1-5.2-29.7-7.9-14-9.2-25.6m46.4 76c.1-3.8.2-23-1.8-34.5s-4-15.9-6.4-21c-2.5-5.2-6.7-13.1-7.9-17.7"/><g class="st3"><path class="st4" d="M316.3 209.3c.9.2 1.7.7 2.5 1.3.7.7 1.2 1.5 1.5 2.4.5 1.8 1 3.5 1.3 5.4.3 1.8.6 3.7.4 5.6 0 .5-.2 1-.3 1.4-.2.5-.5.9-.9 1.2-.8.7-1.8.8-2.7.5.9.1 1.8-.2 2.4-.9.6-.6.7-1.5.7-2.4 0-1.8-.3-3.6-.6-5.3-.3-1.8-.7-3.6-1.1-5.3-.3-1.6-1.5-3.1-3.2-3.9z"/></g></g><g id="tilda" class="st0" style="display:block"><path id="bg" class="st1" d="M270.2 185.6c-7.9-.5-14.3 1.4-24.2 7.2-9.9 5.8-13.6 13.3-14.1 17.5-8 6.9-12.9 22-13.5 25.2-2.4.3-5.5 5.8-6.3 6-.8.3-.6-1.3-.6-3.7 0-2.4-1.9-2.8-2.3-4.8-.4-2 1.3-4.9 1.7-8 .4-3.1-1.3-5.9-1.3-7.3 0-1.4 1.2-3.3 7.7-11.3s12.5-9.4 17-12.3c4.5-2.8 9.3-8.1 19.3-12.6s16.7-11.3 17.8-21.3c1.1-10.1-6.3-12.2-11.6-12.4-5.2-.3-14.3 7.2-14.3 7.2-1.5.2-3.1.6-3.5.6-1.2 0-1.4-1-3.8-1.6v-.1c-.4-5.9-8-12.3-9-13.2-1-.9-1.5-6.3-5-10.3-1.7-11.2-14-18.6-22.4-18-3.2.3-7.8 2.8-12.5 6.1l-.1-.1c-1.9-3.6-5.9-4.6-9.4-6-3.5-1.4-7-7.4-19.5-6.5-12.5.9-14.2 8.2-20.8 16.5-1.2 1.5-2.2 3-3.1 4.4l.3-1.8s.3-11.7-1.9-20.4c-2.2-8.6-9.1-10.4-9.1-10.4s-1.3-2.4-6.5-1.1c-5.3 1.3-4.5 12.1-4.9 18.1-.4 6.1.6 10.5.6 12.2 0 1.7-1.2 3.1-1.9 5.1-.7 2-.4 5.2-.7 6.5-.2 1.3-1.5 2.5-2 4.3-.5 1.8-.5 4.1-1 6.5-.4 2.4-2.7 4.5-4.4 9.2-1.7 4.7-1.7 10.6-3.1 15.4-1.4 4.8-7.1 13.8-9.1 18.3-2 4.6-4.7 12.8-5.7 18-1 5.2-12.4 27.7-15 34.3-2.6 6.6-9.7 27.2-12 34.5-2.3 7.3-19.3 41.4-26.3 57.6-7 16.2-15 25.8-17.7 31-2.7 5.2-3.1 16-3.1 16h108.4c2.3-9.1 16.4-30.3 32.8-47.7 16.4-17.3 31.7-21.6 42.8-27.2 11.1-5.6 36.8-13.5 43.6-22 6.8-8.5 8.9-25.4 12.9-41.9s8-24.4 10-27c2-2.6 1.5-1.9 2-4.3 2-1.2 12.7-11.1 14.3-15.8-.2-2.9-1.6-8.1-9.5-8.6zm-76.4-15.2v-.9s1.2-8.4 7.9-10.5c1.2-.4 2.4-.8 3.5-1.3 3.5-1.3 10.1 4.2 10.1 4.2-5.7 3.1-9 4.6-17.8 7.5-1.3.5-2.5.8-3.7 1z"/><path class="st2" d="M108.5 170.6c3.5-5.1 14.2-16.4 18.5-23.8 4.3-7.5 5.7-15.9 12.4-24.1 6.6-8.2 8.4-15.6 20.8-16.5 12.5-.9 15.9 5.1 19.5 6.5 3.5 1.4 7.5 2.5 9.4 6"/><path class="st2" d="M149.4 152.9c3.6-1.9 15.5-10.7 20.6-17 5.2-6.3 23.2-22.5 31.6-23.2 8.4-.7 20.7 6.8 22.4 18 3.6 4 4 9.3 5 10.3 1 .9 8.6 7.3 9 13.2 0 0-5-2.7-22.8 7.8 0 0-6.6-5.5-10.1-4.2"/><g class="st3"><path class="st4" d="M277.2 189.1c-.6.2-1.2.6-1.7 1s-1.1.8-1.6 1.1c-1 .8-2.1 1.6-3 2.5-1 .8-1.9 1.7-2.8 2.7-.9 1-1.7 2-2.2 3.2.1-1.4.8-2.6 1.6-3.7s1.8-2.1 2.8-2.9c1-.9 2.1-1.7 3.3-2.4 1-.7 2.2-1.4 3.6-1.5z"/></g><g class="st3"><path class="st4" d="M264.8 202.8v6.1c0 .7.1 1.3.3 2-.6-.5-.9-1.2-1.1-1.9-.2-.7-.2-1.4-.3-2.1.1-1.4.3-2.9 1.1-4.1z"/></g><path class="st2" d="M193.8 169.5s1.2-8.4 7.9-10.5c6.7-2.1 11.9-5.9 14.9-9.8"/><path class="st2" d="M180.9 169.5s7.8 2.9 16.6 0 12.1-4.4 17.8-7.5c5.7-3.2 14.6-8.3 19.9-8 5.4.3 5.1 2 6.7 2s10.3-3.4 19.1 6.1M12.8 380.5s.4-10.8 3.1-16c2.7-5.2 10.7-14.8 17.7-31s24-50.3 26.3-57.6 9.3-27.8 12-34.5c2.6-6.6 14-29.1 15-34.3 1-5.2 3.6-13.5 5.7-18s7.7-13.6 9.1-18.3c1.4-4.8 1.3-10.7 3.1-15.4 1.7-4.7 4-6.8 4.4-9.2.4-2.4.5-4.7 1-6.5.5-1.8 1.7-3 2-4.3.2-1.3 0-4.5.7-6.5s1.9-3.5 1.9-5.1-1-6.1-.6-12.1c.4-6.1-.4-16.8 4.9-18.1 5.3-1.3 6.5 1.1 6.5 1.1s6.9 1.7 9.1 10.4c2.2 8.6 1.9 20.3 1.9 20.3"/><path class="st2" d="M245.4 154.8s9.2-7 14.4-6.7 12.7 2.4 11.6 12.4-7.8 16.9-17.8 21.3c-10 4.5-14.8 9.8-19.3 12.6-4.5 2.8-10.5 4.3-17 12.3s-7.7 9.9-7.7 11.3 1.7 4.1 1.3 7.3c-.4 3.2-2.1 6-1.7 8 .4 2 2.3 2.4 2.3 4.8s-.2 3.9.6 3.7c.8-.3 3.9-5.7 6.3-6 .6-3.2 5.5-18.3 13.5-25.2.4-4.3 4.2-11.7 14-17.5s16.3-7.7 24.2-7.2 9.3 5.7 9.3 8.9c-1.6 4.8-12.3 14.6-14.3 15.8-.5 2.5.1 1.7-2 4.3-2 2.6-6 10.5-10 27s-6.1 33.3-12.9 41.9c-6.8 8.5-32.5 16.4-43.6 22.1s-26.4 9.9-42.8 27.2-30.4 38.6-32.8 47.7"/><path d="M92.6 189.1c2.1-4.5 7.7-13.6 9.1-18.3 1.4-4.8 1.3-10.7 3.1-15.4 1.7-4.7 4-6.8 4.4-9.2.4-2.4.5-4.7 1-6.5.5-1.8 1.7-3 2-4.3.2-1.3 0-4.5.7-6.5s1.9-3.5 1.9-5.1-1-6.1-.6-12.1c.4-6.1-.4-16.8 4.9-18.1 5.3-1.3 6.5 1.1 6.5 1.1s6.9 1.7 9.1 10.4c2.2 8.6 1.9 20.3 1.9 20.3" style="display:inline;fill:none;stroke:#2969d0;stroke-width:3;stroke-linecap:round;stroke-miterlimit:10"/><path class="st2" d="M224.1 130.7s-.2 6.6-1.9 10.9"/><g class="st3"><path class="st4" d="M124.7 97.6c.4 1.2.6 2.4.6 3.8 0 .7-.1 1.3-.4 2-.3.6-.7 1.2-1.2 1.7-1.1.9-2.3 1.4-3.6 1.6-.7.1-1.3 0-2-.2-.6-.2-1.2-.6-1.4-1.3.4.5 1 .7 1.6.8.6.1 1.2 0 1.7-.1 1.1-.3 2.2-.8 3.1-1.5.9-.7 1.3-1.8 1.5-3 .1-1.3.1-2.6.1-3.8z"/></g></g></svg>