<svg xmlns="http://www.w3.org/2000/svg" viewBox="0 0 716.3 380" style="enable-background:new 0 0 716.3 380" xml:space="preserve"><style>.st0{display:none}.st1{opacity:.33;fill:#e0e1e2}.st1,.st2,.st3{display:inline}.st2{fill:none;stroke:#808285;stroke-width:2;stroke-miterlimit:10}.st3{opacity:.5}.st4{fill:#aeb0b2}</style><g id="neutral-right" class="st0" style="display:block"><path class="st1" d="M483.3 379.3c-4.7-9.9-8-19.1-9.3-39.5s1.2-22 0-38.1-2.4-12.6-1.2-24.7c1.1-12.1-5.5-27.8-5.6-33.7-.1-5.9.4-26.1-1.4-35.6-1.8-9.5-6-15.6-9-31.9-3-16.3-14.4-26.9-21.7-24.5s-8.5 10-7.6 12.8c-3.2-6.3-5.3-10-7.3-12.4-2-2.4-7.8-5.2-7.8-5.2s-9-1.9-12.5 6.2c-2.9.6-2.9 6.9-2.8 8.6-.7-3.8-2-9.2-3.1-10.9-1.2-1.7-3.5-4.4-6.7-5.8-3.2-1.4-11.4-.9-13.5.8-2.1 1.7-5.9 5.2-5.6 8.6.3 3.5 1.4 6.6 1.6 15.5s3.1 27.7 3.7 32.4 8.7 48 8.7 48-.3.7-.8.2c-.4-.5-9.9-53.3-13.3-61.1 1.3-8.3 2.1-31.8-3.3-37-2.3-5.2-16.3-9.3-21.6 2.4-5.3 11.6-3.6 32.4-4.6 40.4s.1 25.8 1.1 31.1c-.7-5.4-2.5-10.4-5.6-13.5s-8.2-6.2-11.8-7.5c-2.9-1-6.6.3-8.2 1.9-.5.5-1.2 1-1.9 1.1-.8.2-1.5.8-1.5.8 0 1.7 1.3 10.2 6 18.6-1.2 1.8.4 9.3-.9 14.6-1.3 5.2-2.8 8.8-.5 14.8-.9 1.6.3 6 2.3 7.6-1.2 3.7.3 8.4 4.3 18.2 5 12.3 2.5 25.9 6 32.9s7.7 9.4 12.3 16.6c4.5 7.2 22.1 29.7 29.3 35.4s10.2 11.8 10.2 11.8h103.6z"/><path class="st2" d="M483.3 379.3c-4.7-9.9-8-19.1-9.3-39.5s1.2-22 0-38.1-2.4-12.6-1.2-24.7c1.1-12.1-5.5-27.8-5.6-33.7-.1-5.9.4-26.1-1.4-35.6-1.8-9.5-4.5-16.5-9-31.9-5-17.2-14.4-26.9-21.7-24.5s-8.5 10-7.6 12.8c-3.2-6.3-5.3-10-7.3-12.4-1.5-1.8-5.6-4.9-9-5.4-2.5-.4-8.6.1-11.3 6.3-2.6.9-2.9 6.9-2.8 8.6-.7-3.8-2-9.2-3.1-10.9-1.2-1.7-3.5-4.4-6.7-5.8-3.2-1.4-11.4-.9-13.5.8-2.1 1.7-5.9 5.2-5.6 8.6.3 3.5 1.4 6.6 1.6 15.5s3.1 27.7 3.7 32.4 8.7 48 8.7 48-.3.7-.8.2c-.4-.5-9.9-53.3-13.3-61.1 1.3-8.3 2.1-31.8-3.3-37-2.3-5.2-16.3-9.3-21.6 2.4-5.3 11.6-3.6 32.4-4.6 40.4s.1 25.8 1.1 31.1c-.7-5.4-2.5-10.4-5.6-13.5s-8.2-6.2-11.8-7.5c-2.9-1-6.6.3-8.2 2-.6.6-1.4 1.2-2.3 1.3-.7.1-1.1.3-1.1.3 0 1.6 1.1 9.3 5 17 .5 1 .8 2.1.6 3.2-.4 2.9.6 8.9-.5 13.2-1.3 5.2-2.8 8.8-.5 14.8.2 3.2 1.2 6.4 2.3 7.6-.3 4.3.3 8.4 4.3 18.2 5 12.3 2.5 25.9 6 32.9s7.7 9.4 12.3 16.6c4.5 7.2 22.1 29.7 29.3 35.4s10.2 11.8 10.2 11.8"/><path class="st2" d="M343.1 310.4c.3-5.1 2.6-13.8 2.8-16.9.3-3.1-.6 1.3-.8-12.1-.1-13.5-1.3-34.7-3.5-44.2s-1.6-11.4-2.6-14.8m77.4 18.8c-2.2-3.3-4.7-9.1-5-24.5s-4.9-19.1-5.2-29.7-7.9-14-9.2-25.6m46.4 76c.1-3.8.2-23-1.8-34.5s-4-15.9-6.4-21c-2.5-5.2-6.7-13.1-7.9-17.7"/><g class="st3"><path class="st4" d="M316.3 209.3c.9.2 1.7.7 2.5 1.3.7.7 1.2 1.5 1.5 2.4.5 1.8 1 3.5 1.3 5.4.3 1.8.6 3.7.4 5.6 0 .5-.2 1-.3 1.4-.2.5-.5.9-.9 1.2-.8.7-1.8.8-2.7.5.9.1 1.8-.2 2.4-.9.6-.6.7-1.5.7-2.4 0-1.8-.3-3.6-.6-5.3-.3-1.8-.7-3.6-1.1-5.3-.3-1.6-1.5-3.1-3.2-3.9z"/></g></g><g id="key-3" class="st0" style="display:block"><path class="st1" d="M141.4 218c9.1-2.5 16.2-12.3 19.1-17.4 2.9-5.2 4.9-15.1 6.5-21 1.6-5.8 5.6-15 6.9-18.4s.5-3.9 1.4-6.7c.3-1 2.4-4.7 5-9.1-1.8 1.5-7 3.5-10.3 2.9-3.3-.6-11.5 1.6-17.1 5.1-5.7 3.5-12.3 1.2-16.4 7.3-4.1 6-5.6 19.1-5.9 20.2-4 1.5-12.2 1.5-15.3 7-3.2 5.6-2 6.2-3.4 9.2-1.4 3-3.3 7.9-3.4 12.3s.3 22.6-.8 26.2-4.5 12.9-4.9 17.8-.2 25.3-1.1 30.9c-.9 5.6-2.4 35.1-2.6 39-.2 3.9-4.3 16.7-7.8 27.4S78.2 382 78.2 382h116.1c9.7-14.5 31.4-31.6 44.8-43.3 13.4-11.7 26-22.5 29.2-27.7s4.1-19.3 7.6-28.1c3.5-8.7 4-14.6 6.5-20.6 2.5-6 4.9-13.7 5.2-16.5.3-2.9 2-4.5 3-6.3 1-1.8 11.2-14.8 10.8-20.7-.4-5.8-7.6-8.2-13.7-6.9-6.1 1.3-12.6 5-19.2 11.3-6.6 6.3-11.3 16.1-11.3 20s-3.1 4.9-6.8 16.2-3.7 11.3-7.6 14c-3.8 2.7-3.5 4.4-5.8-2.3s-2.7-15.1-2.9-17.9c-.2-2.8 1.9-2.1 2.9-8.6s1.5-13 5.6-24.2c4-11.2 8.4-15.8 13.9-25.4 5.5-9.6 8.8-18 9.8-19.5s11.2-9.7 8.7-17.7-16.6-12.1-22.5-8-1.7 4.8-12.9 11.8c-11.2 7-28 42.2-30 43.9-2 1.7-7.5 1.3-7.3-3.5.2-4.9 7.1-25.8 8.4-33.1 1.3-7.4-.1-11.4 4.3-19.3 4.4-7.9 3.6-14.1 4.5-18.5.9-4.4 2-11.3 1.7-19-.3-7.7-3.7-11-4.7-12s-4.4-6.2-12.7-4.4c-8.3 1.8-7.9 13.1-8.1 14.6-.2 1.4-1.7 2.2-2.7 5.4-1 3.2-.2 7.4-.9 9.7-.7 2.3-15.6 26.6-16.6 29.4-1 2.8-.1 3.4-1.4 6.7s-5.3 12.5-6.9 18.4c-1.6 5.8-3.6 15.8-6.5 21-3.1 4.8-10.2 14.6-19.3 17.1"/><path class="st2" d="M194.2 381.9c9.7-14.5 31.4-31.6 44.8-43.3 13.4-11.7 26-22.5 29.2-27.7s4.1-19.3 7.6-28.1c3.5-8.7 4-14.6 6.5-20.6 2.5-6 4.9-13.7 5.2-16.5.3-2.9 2-4.5 3-6.3 1-1.8 11.2-14.8 10.8-20.7-.4-5.8-7.6-8.2-13.7-6.9-6.1 1.3-12.6 5-19.2 11.3-6.6 6.3-11.3 16.1-11.3 20s-3.1 4.9-6.8 16.2-3.7 11.3-7.6 14c-3.8 2.7-3.5 4.4-5.8-2.3s-2.7-15.1-2.9-17.9c-.2-2.8 1.9-2.1 2.9-8.6s1.5-13 5.6-24.2c4-11.2 8.4-15.8 13.9-25.4 5.5-9.6 8.8-18 9.8-19.5s11.2-9.7 8.7-17.7-16.6-12.1-22.5-8-1.7 4.8-12.9 11.8c-11.2 7-28 42.2-30 43.9-2 1.7-7.5 1.3-7.3-3.5.2-4.9 7.1-25.8 8.4-33.1 1.3-7.4-.1-11.4 4.3-19.3 4.4-7.9 3.6-14.1 4.5-18.5.9-4.4 2-11.3 1.7-19-.3-7.7-3.7-11-4.7-12s-4.4-6.2-12.7-4.4c-8.3 1.8-7.9 13.1-8.1 14.6-.2 1.4-1.7 2.2-2.7 5.4-1 3.2-.2 7.4-.9 9.7-.7 2.3-15.6 26.6-16.6 29.4-1 2.8-.1 3.4-1.4 6.7s-5.3 12.5-6.9 18.4c-1.6 5.8-3.6 15.8-6.5 21-2.9 5.2-10 14.9-19.1 17.4"/><path class="st2" d="M141.4 218c9.1-2.5 16.2-12.3 19.1-17.4 2.9-5.2 4.9-15.1 6.5-21 1.6-5.8 5.6-15 6.9-18.4s.5-3.9 1.4-6.7c.3-1 2.4-4.7 5-9.1-1.8 1.5-7 3.5-10.3 2.9-3.3-.6-11.5 1.6-17.1 5.1-5.7 3.5-12.3 1.2-16.4 7.3-4.1 6-5.6 19.1-5.9 20.2-4 1.5-12.2 1.5-15.3 7-3.2 5.6-2 6.2-3.4 9.2-1.4 3-3.3 7.9-3.4 12.3s.3 22.6-.8 26.2-4.5 12.9-4.9 17.8-.2 25.3-1.1 30.9c-.9 5.6-2.4 35.1-2.6 39-.2 3.9-4.3 16.7-7.8 27.4S78.2 382 78.2 382"/><path class="st2" d="M178.5 146.7c-1.8 1.5-5.2 2.2-8.5 1.6-3.3-.6-11.5 1.6-17.1 5.1-5.7 3.5-12.3 1.2-16.4 7.3-4.1 6-5.6 19.1-5.9 20.2-.3 1.1-1.8 25.6-3.4 31.6-1.6 6-2.3 12.8-9.9 18.2"/><g class="st3"><path class="st4" d="M299.2 216.9c-1.1-.8-2.2-1.6-3.5-2-.6-.2-1.3-.2-1.9-.2-.6.1-1.2.3-1.8.7-1.1.7-1.9 1.7-2.7 2.8-.8 1.1-1.4 2.3-1.9 3.5-.5 1.2-.8 2.5-.9 3.9-.1.7-.1 1.3-.2 2 0 .7-.1 1.3 0 1.9.2 1.2 1 2.4 1.9 3.4.4.6.8 1.1 1.2 1.7.4.6.6 1.3.7 2-.3-1.4-1.3-2.3-2.2-3.3-.9-1-1.9-2.1-2.3-3.6-.2-.7-.2-1.5-.1-2.2 0-.7 0-1.4.1-2.1.1-1.4.4-2.8 1-4.1.5-1.3 1.3-2.5 2.1-3.7.8-1.1 1.8-2.2 3.1-2.9.7-.3 1.4-.6 2.1-.6.7 0 1.5.1 2.1.3 1.2.6 2.3 1.5 3.2 2.5z"/></g><path d="M160.5 200.5c2.9-5.2 4.9-15.1 6.5-21 1.6-5.8 5.6-15 6.9-18.4s.5-3.9 1.4-6.7c1-2.8 15.9-27.1 16.6-29.4.7-2.3-.1-6.5.9-9.7 1-3.2 2.5-3.9 2.7-5.4.2-1.4-.2-12.7 8.1-14.6 8.3-1.8 11.8 3.4 12.7 4.4 1 1 4.4 4.3 4.7 12 .3 7.7-.9 14.6-1.7 19-.9 4.4-.1 10.5-4.5 18.5-4.4 7.9-3 12-4.3 19.3-1.3 7.4-8.2 28.2-8.4 33.1" style="display:inline;fill:none;stroke:#2969d0;stroke-width:3;stroke-linecap:round;stroke-miterlimit:10"/><g class="st3"><path class="st4" d="M198.2 111.4c1.7.2 3.4-.1 5-.5s3.2-1 4.7-1.8c.4-.2.7-.4 1.1-.6.3-.2.5-.5.7-.8.4-.6.7-1.4.9-2.2.4-1.6.7-3.3.9-5 .2 1.7.1 3.4-.2 5.2-.2.9-.4 1.7-.9 2.5-.2.4-.6.8-1 1.1-.4.2-.8.5-1.1.7-1.6.8-3.2 1.4-4.9 1.7-1.8.3-3.6.3-5.2-.3z"/></g></g></svg>