<svg xmlns="http://www.w3.org/2000/svg" viewBox="0 0 716.3 380" style="enable-background:new 0 0 716.3 380" xml:space="preserve"><style>.st0{display:none}.st1{opacity:.33;fill:#e0e1e2}.st1,.st2,.st3{display:inline}.st2{fill:none;stroke:#808285;stroke-width:2;stroke-miterlimit:10}.st3{opacity:.5}.st4{fill:#aeb0b2}</style><g id="neutral-right" class="st0" style="display:block"><path class="st1" d="M483.3 379.3c-4.7-9.9-8-19.1-9.3-39.5s1.2-22 0-38.1-2.4-12.6-1.2-24.7c1.1-12.1-5.5-27.8-5.6-33.7-.1-5.9.4-26.1-1.4-35.6-1.8-9.5-6-15.6-9-31.9-3-16.3-14.4-26.9-21.7-24.5s-8.5 10-7.6 12.8c-3.2-6.3-5.3-10-7.3-12.4-2-2.4-7.8-5.2-7.8-5.2s-9-1.9-12.5 6.2c-2.9.6-2.9 6.9-2.8 8.6-.7-3.8-2-9.2-3.1-10.9-1.2-1.7-3.5-4.4-6.7-5.8-3.2-1.4-11.4-.9-13.5.8-2.1 1.7-5.9 5.2-5.6 8.6.3 3.5 1.4 6.6 1.6 15.5s3.1 27.7 3.7 32.4 8.7 48 8.7 48-.3.7-.8.2c-.4-.5-9.9-53.3-13.3-61.1 1.3-8.3 2.1-31.8-3.3-37-2.3-5.2-16.3-9.3-21.6 2.4-5.3 11.6-3.6 32.4-4.6 40.4s.1 25.8 1.1 31.1c-.7-5.4-2.5-10.4-5.6-13.5s-8.2-6.2-11.8-7.5c-2.9-1-6.6.3-8.2 1.9-.5.5-1.2 1-1.9 1.1-.8.2-1.5.8-1.5.8 0 1.7 1.3 10.2 6 18.6-1.2 1.8.4 9.3-.9 14.6-1.3 5.2-2.8 8.8-.5 14.8-.9 1.6.3 6 2.3 7.6-1.2 3.7.3 8.4 4.3 18.2 5 12.3 2.5 25.9 6 32.9s7.7 9.4 12.3 16.6c4.5 7.2 22.1 29.7 29.3 35.4s10.2 11.8 10.2 11.8h103.6z"/><path class="st2" d="M483.3 379.3c-4.7-9.9-8-19.1-9.3-39.5s1.2-22 0-38.1-2.4-12.6-1.2-24.7c1.1-12.1-5.5-27.8-5.6-33.7-.1-5.9.4-26.1-1.4-35.6-1.8-9.5-4.5-16.5-9-31.9-5-17.2-14.4-26.9-21.7-24.5s-8.5 10-7.6 12.8c-3.2-6.3-5.3-10-7.3-12.4-1.5-1.8-5.6-4.9-9-5.4-2.5-.4-8.6.1-11.3 6.3-2.6.9-2.9 6.9-2.8 8.6-.7-3.8-2-9.2-3.1-10.9-1.2-1.7-3.5-4.4-6.7-5.8-3.2-1.4-11.4-.9-13.5.8-2.1 1.7-5.9 5.2-5.6 8.6.3 3.5 1.4 6.6 1.6 15.5s3.1 27.7 3.7 32.4 8.7 48 8.7 48-.3.7-.8.2c-.4-.5-9.9-53.3-13.3-61.1 1.3-8.3 2.1-31.8-3.3-37-2.3-5.2-16.3-9.3-21.6 2.4-5.3 11.6-3.6 32.4-4.6 40.4s.1 25.8 1.1 31.1c-.7-5.4-2.5-10.4-5.6-13.5s-8.2-6.2-11.8-7.5c-2.9-1-6.6.3-8.2 2-.6.6-1.4 1.2-2.3 1.3-.7.1-1.1.3-1.1.3 0 1.6 1.1 9.3 5 17 .5 1 .8 2.1.6 3.2-.4 2.9.6 8.9-.5 13.2-1.3 5.2-2.8 8.8-.5 14.8.2 3.2 1.2 6.4 2.3 7.6-.3 4.3.3 8.4 4.3 18.2 5 12.3 2.5 25.9 6 32.9s7.7 9.4 12.3 16.6c4.5 7.2 22.1 29.7 29.3 35.4s10.2 11.8 10.2 11.8"/><path class="st2" d="M343.1 310.4c.3-5.1 2.6-13.8 2.8-16.9.3-3.1-.6 1.3-.8-12.1-.1-13.5-1.3-34.7-3.5-44.2s-1.6-11.4-2.6-14.8m77.4 18.8c-2.2-3.3-4.7-9.1-5-24.5s-4.9-19.1-5.2-29.7-7.9-14-9.2-25.6m46.4 76c.1-3.8.2-23-1.8-34.5s-4-15.9-6.4-21c-2.5-5.2-6.7-13.1-7.9-17.7"/><g class="st3"><path class="st4" d="M316.3 209.3c.9.2 1.7.7 2.5 1.3.7.7 1.2 1.5 1.5 2.4.5 1.8 1 3.5 1.3 5.4.3 1.8.6 3.7.4 5.6 0 .5-.2 1-.3 1.4-.2.5-.5.9-.9 1.2-.8.7-1.8.8-2.7.5.9.1 1.8-.2 2.4-.9.6-.6.7-1.5.7-2.4 0-1.8-.3-3.6-.6-5.3-.3-1.8-.7-3.6-1.1-5.3-.3-1.6-1.5-3.1-3.2-3.9z"/></g></g><g id="key-4" class="st0" style="display:block"><path class="st1" d="M135.3 154.7c-2.6.8-14.3 11.5-17.4 16.2-3.1 4.7-5 2.5-6.9 8.1s-.9 20.8 0 27.5c.9 6.7 4.4 12.2 4.4 20.4s-1.6 12.4 1 22.7c2.5 10.3 5.5 15.2 8.1 34.2 2.5 19 5.4 27.2 3.8 32.8-1.6 5.6-10.5 35.8-12.5 39.1s-12 22.4-15.9 27.2h109.3c3.8-5.4 18.3-31.3 22.9-37.6 4.6-6.2 14.9-16.9 18.7-21.5s14.3-23.9 21.9-34.1 13.9-18.7 14.7-24.3c.8-5.6-.9-8.5.6-20.8s1.7-17.9 2.5-22.8c.8-4.9 2.3-5 2.4-10.6.1-5.5-1.9-9.1-.6-18.5 0 0 0-1.3-.3-2.3s5.8-12.6 5.1-19.6-12.7-6-18.6-1.9-10.7 8.7-14.7 16.8c-4 8.1-4.1 14.9-3.8 20.9.2 6-1.6 5.8-3.3 17.9-1.7 12.1-3 12.5-3 12.5s-2.2-1.9-3.4-10.3c-1.2-8.4-1.5-24.7-1.5-29.3s.2-14.4 1.5-24 2.8-15.6 2.8-23.5c0-8 2.1-32.3.6-39.3s-4.4-14.3-11.6-17.6c-7.1-3.3-13.6 2.5-15.2 11.6s-.2 15.3-1.1 19.7c-.5 2.4-1.3 6.3-2.9 11.7-1.5-4.4-7.8-12.7-19.6-14.6s-11.5.3-20.3.7c-8.8.5-10.3 5-13.2 10.2-.7 1.3-1.2 3.2-1.6 5.6-2.3 1.1-4.1 1.4-10.9 1-6.8-.4-5.3 1.7-9.8 2.1-4.4.3-7.9 2.4-10.2 7.7-.7 1.9-1.5 3.8-2 6"/><path class="st2" d="M209.1 382.8c3.8-5.4 18.3-31.3 22.9-37.6 4.6-6.2 14.9-16.9 18.7-21.5s14.3-23.9 21.9-34.1 13.9-18.7 14.7-24.3c.8-5.6-.9-8.5.6-20.8s1.7-17.9 2.5-22.8c.8-4.9 2.3-5 2.4-10.6.1-5.5-1.9-9.1-.6-18.5 0 0 0-1.3-.3-2.3s5.8-12.6 5.1-19.6-12.7-6-18.6-1.9-10.7 8.7-14.7 16.8c-4 8.1-4.1 14.9-3.8 20.9.2 6-1.6 5.8-3.3 17.9-1.7 12.1-3 12.5-3 12.5s-2.2-1.9-3.4-10.3c-1.2-8.4-1.5-24.7-1.5-29.3s.2-14.4 1.5-24 2.8-15.6 2.8-23.5c0-8 2.1-32.3.6-39.3s-4.4-14.3-11.6-17.6c-7.1-3.3-13.6 2.5-15.2 11.6s-.2 15.3-1.1 19.7c-.5 2.4-1.3 6.3-2.9 11.7-1.5-4.4-7.8-12.7-19.6-14.6s-11.5.3-20.3.7c-8.8.5-10.3 5-13.2 10.2-.7 1.3-1.2 3.2-1.6 5.6-2.3 1.1-4.1 1.4-10.9 1-6.8-.4-5.3 1.7-9.8 2.1-4.4.3-7.9 2.4-10.2 7.7-.9 2-1.6 3.9-2.2 6.1"/><path class="st2" d="M135.3 154.7c-2.6.8-14.3 11.5-17.4 16.2-3.1 4.7-5 2.5-6.9 8.1s-.9 20.8 0 27.5c.9 6.7 4.4 12.2 4.4 20.4s-1.6 12.4 1 22.7c2.5 10.3 5.5 15.2 8.1 34.2 2.5 19 5.4 27.2 3.8 32.8-1.6 5.6-10.5 35.8-12.5 39.1s-12 22.4-15.9 27.2m110.4-203.3c-1.4-4.1-4.3-15.6-4.1-23.4 2.1-2.9 9 4.5 9 4.5l-4.9 18.9zm12.1-45.8c-2.7-4-7.1-10.6-19-12.5s-11.5.3-20.3.7c-8.8.5-10.3 5-13.2 10.2-2.9 5.2-2.6 22.7-2.6 28.5 0 5.8 3.1 25.2-6.3 32.8"/><path class="st2" d="M167.3 138.4c-2.3.5-3.1.9-9.9.4-6.8-.4-5.3 1.7-9.8 2.1-4.4.3-7.9 2.4-10.2 7.7s-3.8 9.7-3.1 22.7c.6 13 3.1 24.2 2.2 30.3-1 6.1-3.8 11.3-5.5 12.6"/><g class="st3"><path class="st4" d="M293.3 168.6c-2.3.3-4.6 1-6.1 2.8-.7.8-1.3 1.8-1.8 2.8-.5 1-1 2.1-1.3 3.1-.7 2.1-.6 4.5.2 6.6.4 1.1 1 2 1.7 2.9.7.9 1.6 1.7 2.6 2.2-2.3-.7-4-2.7-5-4.8-.5-1.1-.8-2.3-.9-3.5-.1-1.2.1-2.4.4-3.6.4-1.2.9-2.2 1.4-3.3.6-1 1.2-2.1 2.1-2.9.9-.8 1.9-1.5 3.1-1.9 1.2-.3 2.4-.4 3.6-.4z"/></g><path d="M206.2 189c3.7-2.3 6.7-23.5 11.7-37.5 5-13.9 7.1-22.9 8-27.3s-.6-10.5 1.1-19.7 8-14.7 15.2-11.5c7.1 3.3 10.1 10.5 11.6 17.6 1.5 7-.6 31.4-.6 39.3 0 8-1.7 13.9-2.8 23.5-.7 6.6-1.6 18.3-1.5 24" style="display:inline;fill:none;stroke:#2969d0;stroke-width:3;stroke-linecap:round;stroke-miterlimit:10"/><g class="st3"><path class="st4" d="M230.3 103.9c.3.8 1 1.3 1.7 1.5.7.3 1.5.5 2.3.6.8.1 1.6.1 2.4.1.8 0 1.6-.1 2.3-.3 1.5-.4 2.8-1.2 3.9-2.4 1.1-1.1 1.9-2.5 2.7-4-.4 1.6-1 3.2-2.1 4.5-1.1 1.3-2.6 2.3-4.2 2.8-1.7.5-3.4.4-5.1 0-.8-.2-1.6-.5-2.4-.9-.8-.4-1.4-1.1-1.5-1.9z"/></g><path class="st2" d="M206.2 157.1c-1.3-9.9-.8-14.4 0-21.7"/></g></svg>