<svg xmlns="http://www.w3.org/2000/svg" viewBox="0 0 716.3 380" style="enable-background:new 0 0 716.3 380" xml:space="preserve" class="theme-bone"><style>.st0{display:none}.st1{opacity:.33;fill:#e0e1e2}.st1,.st2,.st3{display:inline}.st2{fill:none;stroke:#808285;stroke-width:2;stroke-miterlimit:10}.st3{opacity:.5}.st4{fill:#aeb0b2}.st5{display:inline;fill:none;stroke:#2969d0;stroke-width:3;stroke-linecap:round;stroke-miterlimit:10}</style><g id="neutral-right" class="st0" style="display:block"><path class="st1" d="M483.3 379.3c-4.7-9.9-8-19.1-9.3-39.5s1.2-22 0-38.1-2.4-12.6-1.2-24.7c1.1-12.1-5.5-27.8-5.6-33.7-.1-5.9.4-26.1-1.4-35.6-1.8-9.5-6-15.6-9-31.9-3-16.3-14.4-26.9-21.7-24.5s-8.5 10-7.6 12.8c-3.2-6.3-5.3-10-7.3-12.4-2-2.4-7.8-5.2-7.8-5.2s-9-1.9-12.5 6.2c-2.9.6-2.9 6.9-2.8 8.6-.7-3.8-2-9.2-3.1-10.9-1.2-1.7-3.5-4.4-6.7-5.8-3.2-1.4-11.4-.9-13.5.8-2.1 1.7-5.9 5.2-5.6 8.6.3 3.5 1.4 6.6 1.6 15.5s3.1 27.7 3.7 32.4 8.7 48 8.7 48-.3.7-.8.2c-.4-.5-9.9-53.3-13.3-61.1 1.3-8.3 2.1-31.8-3.3-37-2.3-5.2-16.3-9.3-21.6 2.4-5.3 11.6-3.6 32.4-4.6 40.4s.1 25.8 1.1 31.1c-.7-5.4-2.5-10.4-5.6-13.5s-8.2-6.2-11.8-7.5c-2.9-1-6.6.3-8.2 1.9-.5.5-1.2 1-1.9 1.1-.8.2-1.5.8-1.5.8 0 1.7 1.3 10.2 6 18.6-1.2 1.8.4 9.3-.9 14.6-1.3 5.2-2.8 8.8-.5 14.8-.9 1.6.3 6 2.3 7.6-1.2 3.7.3 8.4 4.3 18.2 5 12.3 2.5 25.9 6 32.9s7.7 9.4 12.3 16.6c4.5 7.2 22.1 29.7 29.3 35.4s10.2 11.8 10.2 11.8h103.6z"/><path class="st2" d="M483.3 379.3c-4.7-9.9-8-19.1-9.3-39.5s1.2-22 0-38.1-2.4-12.6-1.2-24.7c1.1-12.1-5.5-27.8-5.6-33.7-.1-5.9.4-26.1-1.4-35.6-1.8-9.5-4.5-16.5-9-31.9-5-17.2-14.4-26.9-21.7-24.5s-8.5 10-7.6 12.8c-3.2-6.3-5.3-10-7.3-12.4-1.5-1.8-5.6-4.9-9-5.4-2.5-.4-8.6.1-11.3 6.3-2.6.9-2.9 6.9-2.8 8.6-.7-3.8-2-9.2-3.1-10.9-1.2-1.7-3.5-4.4-6.7-5.8-3.2-1.4-11.4-.9-13.5.8-2.1 1.7-5.9 5.2-5.6 8.6.3 3.5 1.4 6.6 1.6 15.5s3.1 27.7 3.7 32.4 8.7 48 8.7 48-.3.7-.8.2c-.4-.5-9.9-53.3-13.3-61.1 1.3-8.3 2.1-31.8-3.3-37-2.3-5.2-16.3-9.3-21.6 2.4-5.3 11.6-3.6 32.4-4.6 40.4s.1 25.8 1.1 31.1c-.7-5.4-2.5-10.4-5.6-13.5s-8.2-6.2-11.8-7.5c-2.9-1-6.6.3-8.2 2-.6.6-1.4 1.2-2.3 1.3-.7.1-1.1.3-1.1.3 0 1.6 1.1 9.3 5 17 .5 1 .8 2.1.6 3.2-.4 2.9.6 8.9-.5 13.2-1.3 5.2-2.8 8.8-.5 14.8.2 3.2 1.2 6.4 2.3 7.6-.3 4.3.3 8.4 4.3 18.2 5 12.3 2.5 25.9 6 32.9s7.7 9.4 12.3 16.6c4.5 7.2 22.1 29.7 29.3 35.4s10.2 11.8 10.2 11.8"/><path class="st2" d="M343.1 310.4c.3-5.1 2.6-13.8 2.8-16.9.3-3.1-.6 1.3-.8-12.1-.1-13.5-1.3-34.7-3.5-44.2s-1.6-11.4-2.6-14.8m77.4 18.8c-2.2-3.3-4.7-9.1-5-24.5s-4.9-19.1-5.2-29.7-7.9-14-9.2-25.6m46.4 76c.1-3.8.2-23-1.8-34.5s-4-15.9-6.4-21c-2.5-5.2-6.7-13.1-7.9-17.7"/><g class="st3"><path class="st4" d="M316.3 209.3c.9.2 1.7.7 2.5 1.3.7.7 1.2 1.5 1.5 2.4.5 1.8 1 3.5 1.3 5.4.3 1.8.6 3.7.4 5.6 0 .5-.2 1-.3 1.4-.2.5-.5.9-.9 1.2-.8.7-1.8.8-2.7.5.9.1 1.8-.2 2.4-.9.6-.6.7-1.5.7-2.4 0-1.8-.3-3.6-.6-5.3-.3-1.8-.7-3.6-1.1-5.3-.3-1.6-1.5-3.1-3.2-3.9z"/></g></g><g id="d" class="st0" style="display:block"><path class="st1" d="M205.8 380.5c4.8-4.6 5.5-7 17.3-16.6 11.8-9.6 23.5-26.1 33.8-36.4 10.3-10.3 12.3-13.1 13.4-24.8 1-11.7 7.8-31.2 10.9-40.2 3.1-9-3.7-25.3-3.7-25.3s3.8-10.2 3-23.1c-6.1-5.2-19.5-1.3-27.6 17.6s-2.4 23.8-2.4 23.8-3.8 4-6.6 10.6-3.6 13.3-3.6 13.3 4.4-33.4 13.2-52.1c8.8-18.6 10.4-30 15.2-39.7 4.7-9.7 7.3-27.2 2.9-32.1-.8-4.5-9.8-10.8-17.5-2s-8.5 20-11.1 24.7c-2.7 4.6-11.3 15.8-13.9 20.3-2.5 4.5-15.5 33.2-16.9 36s-1.4-.7-1-2.2c.3-1.5 7-26.8 13.6-37.2 8-8.8 9.7-8.6 15.3-20 5.6-11.5 4.2-18.4 1.1-21.4-1.6-3.6-12.1-11.3-20 0-3.4.9-7.2 10-7.2 10l-2.2.9s2.1-3.4 1.9-8.5-4.9-8.4-9.8-8.3c-5 .1-12 5.9-12 5.9s-6.7 2.4-10.4 6.3c-1.7-4.6-7-8.6-9.5-9.2-2.5-.6-6.2 4.7-6.8 6.2-.6 1.5-8.9 10.4-14.2 21.9-5.3 11.5-9.8 20.3-12 23.9s-3.6 4.2-5.2 14.1c-1.6 10-3.8 6-4.8 17.9-1 11.9-11.6 25.1-10.9 40.4.7 15.3-1.8 22.9-1.8 29.3s-.2 26-3.9 41.8c-3.7 15.8-16 34-16 34h109.4z"/><path class="st2" d="M205.8 380.5c4.8-4.6 5.5-7 17.3-16.6 11.8-9.6 23.5-26.1 33.8-36.4 10.3-10.3 12.3-13.1 13.4-24.8 1-11.7 7.8-31.2 10.9-40.2 3.1-9-3.7-25.3-3.7-25.3s3.8-10.2 3-23.1c-6.1-5.2-19.5-1.3-27.6 17.6s-2.4 23.8-2.4 23.8-3.8 4-6.6 10.6-3.6 13.3-3.6 13.3 4.4-33.4 13.2-52.1c8.8-18.6 10.4-30 15.2-39.7 4.7-9.7 7.3-27.2 2.9-32.1-.8-4.5-9.8-10.8-17.5-2s-8.5 20-11.1 24.7c-2.7 4.6-11.3 15.8-13.9 20.3-2.5 4.5-15.5 33.2-16.9 36s-1.4-.7-1-2.2c.3-1.5 7-26.8 13.6-37.2 8-8.8 9.7-8.6 15.3-20 5.6-11.5 4.2-18.4 1.1-21.4-1.6-3.6-12.1-11.3-20 0-3.4.9-7.2 10-7.2 10l-2.2.9s2.1-3.4 1.9-8.5-4.9-8.4-9.8-8.3c-5 .1-12 5.9-12 5.9s-6.7 2.4-10.4 6.3c-.7-1.6-1.3-4.1-3.8-6.1-1.7-2-4.4-2.8-5.7-3.1-2.5-.6-6.2 4.7-6.8 6.2-.6 1.5-8.9 10.4-14.2 21.9-5.3 11.5-9.8 20.3-12 23.9s-3.6 4.2-5.2 14.1c-1.6 10-3.8 6-4.8 17.9-1 11.9-11.6 25.1-10.9 40.4.7 15.3-1.8 22.9-1.8 29.3s-.2 26-3.9 41.8c-3.7 15.8-16 34-16 34"/><path class="st5" d="M211.1 235.3c.2-3.6 7.1-29.8 13.7-40.1 8-8.8 9.7-8.6 15.3-20 5.6-11.5 4.2-18.4 1.1-21.4-1.6-3.6-12.1-11.3-20 0-3.4.9-7.2 10-7.2 10"/><path class="st2" d="M140.9 239.2c3.3-4.6 5-9.9 6.1-19.5 1.1-9.7 3.1-29.6 5.3-34.4 2.2-4.8 8.3-7.7 11-9.9 2.6-2.2 6.2-7.6 10.1-9.2 3.8-1.6 9-7.2 9-7.2"/><path class="st5" d="M167.1 236.2c4.3-3.2 8.8-15.5 14.5-33.2 5.7-17.7 9.4-26.3 16-28.7s10.4-10.4 26.2-9.4"/><g class="st3"><path class="st4" d="M221.1 156.9c.8.4 1.7.5 2.6.7.9.1 1.8.3 2.6.4 1.8.2 3.5.4 5.3.5 1.8.1 3.6.2 5.3.1.8-.1 1.7-.4 2.3-.9.7-.5 1.1-1.3 1.2-2.2.1.9-.2 1.9-.9 2.6-.7.7-1.6 1.1-2.5 1.3-1.9.3-3.7.3-5.5.2-1.8-.1-3.6-.4-5.4-.7-.9-.2-1.8-.4-2.6-.6-.4-.1-.9-.3-1.3-.5-.4-.3-.8-.5-1.1-.9z"/></g><g class="st3"><path class="st4" d="M277.7 215c-1.7 1.3-3.4 2.4-4.5 4.2-1.1 1.7-1.6 3.7-1.8 5.7-.2 2 0 4 .5 6 .3 1 .7 1.9 1.2 2.8.5.9 1.1 1.7 1.8 2.5-1.7-1.2-3-3.1-3.8-5.1-.4-1-.6-2.1-.8-3.1-.1-1.1-.1-2.2 0-3.2.2-2.1.8-4.3 2.2-6 .7-.9 1.5-1.6 2.3-2.2 1-.6 2-1.1 2.9-1.6z"/></g></g></svg>