<svg xmlns="http://www.w3.org/2000/svg" viewBox="0 0 716.3 380" style="enable-background:new 0 0 716.3 380" xml:space="preserve" class="theme-bone"><style>.st0{display:none}.st1{opacity:.33;fill:#e0e1e2}.st1,.st2,.st3{display:inline}.st2{fill:none;stroke:#808285;stroke-width:2;stroke-miterlimit:10}.st3{opacity:.5}.st4{fill:#aeb0b2}</style><g id="p" class="st0" style="display:block"><path class="st1" d="M425.7 379.5c-3.1-3.3-12.7-10.7-20.8-20-.2-.3-.3-.6-.6-.7-10-5.2-24.2-11-36.9-16.4-8.6-3.6-17.1-7.1-25.4-10.4-1.2-.4-2.8-1.2-4.4-2.4-2.4-1.8-4.1-4.1-5.9-7.6-2.1-4.1-2.7-5.9-4.2-10.5-2.1-6.6-13.7-26.1-14.9-29.7-.8-.8-1.8-2.5-2.7-4.3-1.7-3.5-2.3-7.5-2.3-7.5-.4-4.1-.6-12.4.2-23.3-.5-.7-6-10.9-7.9-21.6-.1-.4.8-.7 1.5-1.1 1.5-1 4.4-3 8.4-3.3 4.6-.3 8.1 1.6 9.1 2.2 1.2.7 2.2 1.6 4.1 3.4 2.8 2.7 4.6 4.4 6.6 6.9 4 5 6 9.6 6.4 10.5 2 4.6 2.5 8.3 2.7 9.2.4 2.7.3 5.4.2 7.1 1 .7 2.4 1.6 3.6 3 1.8 2.2 2.5 4.3 3 5.8 1.7 3 3.4 6 5.1 9.1.7.4 1.4.9 2.2 1.5 1.2.9 2 1.9 2.7 2.7-.3-2.4-.7-6-1.4-10.5-.5-3.5-1.4-8.6-5.1-26.2-1.7-8-2.5-12-3.1-14-1.8-7.1-3.1-10.4-5.5-19.3-1.1-3.9-2.5-7.1-3.1-12.1-.3-2.6-.6-4.8-.3-7.9.2-1.7.7-4.2 1.7-9.1.4-1.7.6-2.8.8-4.4.2-2.4.1-3.8.1-5.2 0-3 .6-5.3 1.4-8.3 1-3.9 2.3-8.6 6-12.6 1.1-1.2 1.8-1.7 2.1-1.9 3.8-2.7 8.1-2.1 8.7-2 2.1.3 3.6 1.1 5.1 2 2.3 1.3 4 2.8 5 4 .8-.9 1.5-1.7 2.3-2.6.1-.7.2-1.7.7-2.8 2.2-5.2 8.7-6.5 9.8-6.8 1.7-.3 7-.8 10.5 2.7.2.1 3.4 1.1 3.5.9 1.6-7.5 13.1-7.9 18.9-7.6 1.4.1 4.3 1 6.6 2.4-.6-1.9-1.1-4.2-1.3-7-.2-2.9-.2-4-.1-4.5.5-2.5 1.8-4.4 2.7-5.4.3-.7 1-1.8 2.1-2.8 2.4-2.1 6.3-3 9.5-1.5.7.3 2.1 1.1 3.3 2.8.7.5 1.6 1.3 2.6 2.3 1.8 1.9 2.9 3.7 3.5 4.8 3.2 5.7 4.6 9.5 4.6 9.5 2.7 6.7 5.3 14 7.7 21.9 1.8 5.8 3.6 15.6 6.4 23.6.2.7.7 2 1.3 4 .6 1.9 1.2 4.4 2.4 11 .9 5 .7 5.4 1.4 8.2.6 2.2 1.1 3.6 2.1 6.4 1.3 3.5 2 5.1 4.1 10.2 1.5 3.6 1.9 4.3 2.5 6.1.9 2.8 1.1 4.6 1.4 6.4.6 3.5 1.8 7 4.1 14.1 2.1 6.1 2.1 5.4 3.5 10 1.5 4.6 2.4 8.4 4.3 15.8 1.8 7.4 2.7 11.1 3.6 15.6 1.5 7.8 1.4 9.5 2.9 16.1.7 2.8 1.4 5.3 2.9 10.2 2.6 8.6 3.9 12.9 5 16 2.5 6.8 5.3 11.5 10.8 20.8 3.9 6.7 7.7 12.4 10.7 16.8 2 3 3.8 5.5 5 7.3-34.7.2-68.8.1-103.5 0z"/><g class="st3"><path class="st4" d="M423.5 125.4c.3 1 .6 2 1 2.9.4 1 .9 1.9 1.4 2.7.5.9 1.1 1.7 1.9 2.2.8.5 1.8.7 2.8.8.5 0 1 .1 1.5 0 .5 0 .9-.1 1.4-.3 1-.3 2-.6 2.7-1.2.4-.3.7-.7.8-1.1.2-.4.2-.9.2-1.4 0-1-.3-2-.6-3 .5.9.9 1.9 1.1 3 .1.5.1 1.1-.1 1.7-.2.6-.5 1-.9 1.5-.8.8-1.9 1.2-2.9 1.5-.3.1-.5.2-.8.2-.3.1-.6.1-.8.1h-1.6c-1.1-.1-2.2-.3-3.2-.9-.5-.3-.9-.8-1.2-1.2-.3-.4-.6-.9-.9-1.4-1-1.9-1.7-4-1.8-6.1z"/></g><path d="M419.9 140.3c-.6-1.9-.9-3.5-1.1-6.2-.2-2.9-.2-4-.1-4.5.5-2.5 1.8-4.4 2.7-5.4.3-.7 1-1.8 2.1-2.8 2.4-2.1 6.3-3 9.5-1.5.7.3 2.1 1.1 3.3 2.8.7.5 1.6 1.3 2.6 2.3 1.8 1.9 2.9 3.7 3.5 4.8 3.2 5.7 4.6 9.5 4.6 9.5 2.7 6.7 5.3 14 7.7 21.9 1.8 5.8 3.6 15.6 6.4 23.6.2.7.7 2 1.3 4 .6 1.9 1.2 4.4 2.4 11 .9 5 .5 4.6 1.2 7.4" style="display:inline;fill:none;stroke:#2969d0;stroke-width:3;stroke-linecap:round;stroke-miterlimit:10"/><path class="st2" d="M425.7 379.5c-3.1-3.3-12.7-10.7-20.8-20-.2-.3-.3-.6-.6-.7-10-5.2-24.2-11-36.9-16.4-8.6-3.6-17.1-7.1-25.4-10.4-1.2-.4-2.8-1.2-4.4-2.4-2.4-1.8-4.1-4.1-5.9-7.6-2.1-4.1-2.7-5.9-4.2-10.5-2.1-6.6-13.7-26.1-14.9-29.7-.8-.8-1.8-2.5-2.7-4.3-1.7-3.5-2.3-7.5-2.3-7.5-.4-4.1-.6-12.4.2-23.3-.5-.7-6-10.9-7.9-21.6-.1-.4.8-.7 1.5-1.1 1.5-1 4.4-3 8.4-3.3 4.6-.3 8.1 1.6 9.1 2.2 1.2.7 2.2 1.6 4.1 3.4 2.8 2.7 4.6 4.4 6.6 6.9 4 5 6 9.6 6.4 10.5 2 4.6 2.5 8.3 2.7 9.2.4 2.7.3 5.4.2 7.1 1 .7 2.4 1.6 3.6 3 1.8 2.2 2.5 4.3 3 5.8 1.7 3 3.4 6 5.1 9.1.7.4 1.4.9 2.2 1.5 1.2.9 2 1.9 2.7 2.7-.3-2.4-.7-6-1.4-10.5-.5-3.5-1.4-8.6-5.1-26.2-1.7-8-2.5-12-3.1-14-1.8-7.1-3.1-10.4-5.5-19.3-1.1-3.9-2.5-7.1-3.1-12.1-.3-2.6-.6-4.8-.3-7.9.2-1.7.7-4.2 1.7-9.1.4-1.7.6-2.8.8-4.4.2-2.4.1-3.8.1-5.2 0-3 .6-5.3 1.4-8.3 1-3.9 2.3-8.6 6-12.6 1.1-1.2 1.8-1.7 2.1-1.9 3.8-2.7 8.1-2.1 8.7-2 2.1.3 3.6 1.1 5.1 2 2.3 1.3 4 2.8 5 4 .8-.9 1.5-1.7 2.3-2.6.1-.7.2-1.7.7-2.8 2.2-5.2 8.7-6.5 9.8-6.8 1.7-.3 7-.8 10.5 2.7.2.1 3.4 1.1 3.5.9 1.6-7.5 13.1-7.9 18.9-7.6 1.4.1 4.3 1 6.6 2.4m45.9 67.2c.6 2.2 1.1 3.6 2.1 6.4 1.3 3.5 2 5.1 4.1 10.2 1.5 3.6 1.9 4.3 2.5 6.1.9 2.8 1.1 4.6 1.4 6.4.6 3.5 1.8 7 4.1 14.1 2.1 6.1 2.1 5.4 3.5 10 1.5 4.6 2.4 8.4 4.3 15.8 1.8 7.4 2.7 11.1 3.6 15.6 1.5 7.8 1.4 9.5 2.9 16.1.7 2.8 1.4 5.3 2.9 10.2 2.6 8.6 3.9 12.9 5 16 2.5 6.8 5.3 11.5 10.8 20.8 3.9 6.7 7.7 12.4 10.7 16.8 2 3 3.8 5.5 5 7.3"/><path class="st2" d="M448.2 214.4c-.9-1.3-2-3.3-2.9-6-.9-2.7-1.1-4.9-1.2-6-1.2-13.1-1.5-15.9-1.7-18.1-.9-8-2.5-13.5-3.2-15.8-1.4-5.1-3.7-9.2-7.8-14.5-1.1-1.4-2.7-3.2-3.6-4.8-2.5-4-6.8-7.8-8-8.5m-4 69.7c-.1 0-2.2-5.8-4.6-15.1-.6-2.3-2.2-14.5-2.9-16-1.4-3.4-2.8-8.1-3.7-11.8-.4-1.6-1.6-2.1-3.4-4.8-1.1-1.7-1.7-2.9-2.6-4.6-2.1-4.2-3.3-8.3-4.3-11.6-.1 0-.4.1-.5.1 1.5 4.7 3.4 9.7 5.9 15 1 2 4.1 9.8 4.9 12.7.9 3.1 1.6 5 2.3 7.4 1.4 4.4 2 6.3 3.3 11.2 3.3 11.1 5.7 17.5 5.6 17.5zm-34.1 18.5c-.9-5.9-2-10.6-2.9-13.7-1.4-5-1.8-4.9-5-14.8-1.2-3.7-2.5-7.7-3.7-12.4-.3-1-.8-2.6-1.5-5.7-1.2-5-2.2-10.1-1.8-16.8.2-2.6.6-7.3 1.4-11.3"/><g class="st3"><path class="st4" d="M310.2 244.3c.9-1.5 1.3-3.1 1.2-4.7-.1-.8-.1-1.7-.4-2.4-.2-.8-.5-1.6-.8-2.4-.6-1.6-1.1-3.2-1.8-4.8-.3-.8-.7-1.5-1.3-2-.6-.6-1.3-1.1-2-1.5.8.2 1.6.6 2.3 1.1.3.3.7.6 1 .9.3.4.5.7.7 1.1.8 1.5 1.4 3.1 2 4.8.3.8.6 1.6.8 2.5.2.9.3 1.8.2 2.7.1 1.8-.7 3.5-1.9 4.7z"/></g></g><g id="neutral-left" class="st0" style="display:block"><path class="st1" d="M231.1 381.6c1.3-1.6 6.9-7.4 13-13.5s18.6-27.6 22.3-31.9c3.7-4.3 13.5-14.9 15.9-20.2 2.4-5.3-.2-22.3 0-27.6s2.7-30.6 1-37.2c-1.7-6.6-4.4-9.3-6.6-13.9s-2.6-6-4.6-7.4-.8-13.4-.4-15.1 1.8-9.4 1.8-12.1 0-10.4 2.1-16.1.7-22.8-2.9-28.2-6.5-6.7-10.8-7-9 3.9-10.2 6.5-2.8 5-4.6 26.2c-2.5 5.7-7.3 10.7-9.4 17.6s-7.7 24.3-9 31.5-8.7 17-5.7 11.7c3-5.2 2.7-18 8.3-35s4.9-15.9 4.9-16.8c0-.9 3.3-4 4.4-11.4 2.1-3.4 6.2-20.3-1.4-25.2-.1-3.5-2.4-5.9-8.7-6.9-6.3-1-8.6.6-10 4.5-2.3.6-5.8 9.1-6.4 16.1-1.7 1-9.9 9.3-11.5 12.4s-6.1 18.7-7 22.7c-.9 4-6.7 29-8.3 31.3-1.6 2.3-2.3 3.9-1-1 1.3-4.9 7.3-34.4 9.9-39.7s2.9-9.7 10.1-20 6.2-15.3 4.9-18.6c-1.3-3.3-2.3-6.1-8.4-7.1-6.1-1-9.6 4.1-9.6 4.1s-3.7 1.1-12.6 10.7c-1.9-3.7-4.5-6.5-4.5-6.5s-1.9-4-7.3-4.8c-5.4-.8-7.6 5-7.9 7.1-1.8 0-5.5 8.3-6.8 16.6-1.3 8.4-3.4 20.4-5.6 27.5-2.2 7.1-3.6 13-4.1 18.2s-3.3 12.5-3.8 19.3c-.5 6.8-8.4 26.3-8.8 32.5-.5 6.2-.2 27.4-.8 32.3-.6 4.9-1.5 21.4 0 30.9 1.5 9.4.8 18.1-.8 22.8-1.6 4.7-7.6 20.3-7.6 20.3h108.5z"/><path class="st2" d="M231.1 381.6c1.3-1.6 6.9-7.4 13-13.5s18.6-27.6 22.3-31.9c3.7-4.3 13.5-14.9 15.9-20.2 2.4-5.3-.2-22.3 0-27.6s2.7-30.6 1-37.2c-1.7-6.6-4.4-9.3-6.6-13.9s-2.6-6-4.6-7.4-.8-13.4-.4-15.1 1.8-9.4 1.8-12.1 0-10.4 2.1-16.1.7-22.8-2.9-28.2-6.5-6.7-10.8-7-9 3.9-10.2 6.5-2.8 5-4.6 26.2c-2.5 5.7-7.3 10.7-9.4 17.6s-7.7 24.3-9 31.5-8.7 17-5.7 11.7c3-5.2 2.7-18 8.3-35s4.9-15.9 4.9-16.8c0-.9 3.3-4 4.4-11.4 2.1-3.4 6.2-20.3-1.4-25.2-.1-3.5-2.4-5.9-8.7-6.9-6.3-1-8.6.6-10 4.5-2.3.6-5.8 9.1-6.4 16.1-1.7 1-9.9 9.3-11.5 12.4s-6.1 18.7-7 22.7c-.9 4-6.7 29-8.3 31.3-1.6 2.3-2.3 3.9-1-1 1.3-4.9 7.3-34.4 9.9-39.7s2.9-9.7 10.1-20 6.2-15.3 4.9-18.6c-1.3-3.3-2.3-6.1-8.4-7.1-6.1-1-9.6 4.1-9.6 4.1s-3.7 1.1-12.6 10.7c-1.9-3.7-4.5-6.5-4.5-6.5s-1.9-4-7.3-4.8c-5.4-.8-7.6 5-7.9 7.1-1.8 0-5.5 8.3-6.8 16.6-1.3 8.4-3.4 20.4-5.6 27.5-2.2 7.1-3.6 13-4.1 18.2s-3.3 12.5-3.8 19.3c-.5 6.8-8.4 26.3-8.8 32.5-.5 6.2-.2 27.4-.8 32.3-.6 4.9-1.5 21.4 0 30.9 1.5 9.4.8 18.1-.8 22.8-1.6 4.7-7.6 20.3-7.6 20.3"/><path class="st2" d="M151.6 239.8c2.8-3 5.1-7.6 5.3-12.4.2-4.8-.3-29.7 6-39.2 6.3-9.5 17.8-22.8 17.8-22.8m82.6 132.7c-1.4-2.6-3.1-4.3-3.1-6.3s1.1-24.9 2.3-33.1c1.1-8.2 6.7-31.9 8.6-36.8"/></g></svg>