<svg xmlns="http://www.w3.org/2000/svg" viewBox="0 0 716.3 380" style="enable-background:new 0 0 716.3 380" xml:space="preserve" class="theme-bone"><style>.st0{display:none}.st1{opacity:.33;fill:#e0e1e2}.st1,.st2,.st3{display:inline}.st2{fill:none;stroke:#808285;stroke-width:2;stroke-miterlimit:10}.st3{opacity:.5}.st4{fill:#aeb0b2}</style><g id="neutral-right" class="st0" style="display:block"><path class="st1" d="M483.3 379.3c-4.7-9.9-8-19.1-9.3-39.5s1.2-22 0-38.1-2.4-12.6-1.2-24.7c1.1-12.1-5.5-27.8-5.6-33.7-.1-5.9.4-26.1-1.4-35.6-1.8-9.5-6-15.6-9-31.9-3-16.3-14.4-26.9-21.7-24.5s-8.5 10-7.6 12.8c-3.2-6.3-5.3-10-7.3-12.4-2-2.4-7.8-5.2-7.8-5.2s-9-1.9-12.5 6.2c-2.9.6-2.9 6.9-2.8 8.6-.7-3.8-2-9.2-3.1-10.9-1.2-1.7-3.5-4.4-6.7-5.8-3.2-1.4-11.4-.9-13.5.8-2.1 1.7-5.9 5.2-5.6 8.6.3 3.5 1.4 6.6 1.6 15.5s3.1 27.7 3.7 32.4 8.7 48 8.7 48-.3.7-.8.2c-.4-.5-9.9-53.3-13.3-61.1 1.3-8.3 2.1-31.8-3.3-37-2.3-5.2-16.3-9.3-21.6 2.4-5.3 11.6-3.6 32.4-4.6 40.4s.1 25.8 1.1 31.1c-.7-5.4-2.5-10.4-5.6-13.5s-8.2-6.2-11.8-7.5c-2.9-1-6.6.3-8.2 1.9-.5.5-1.2 1-1.9 1.1-.8.2-1.5.8-1.5.8 0 1.7 1.3 10.2 6 18.6-1.2 1.8.4 9.3-.9 14.6-1.3 5.2-2.8 8.8-.5 14.8-.9 1.6.3 6 2.3 7.6-1.2 3.7.3 8.4 4.3 18.2 5 12.3 2.5 25.9 6 32.9s7.7 9.4 12.3 16.6c4.5 7.2 22.1 29.7 29.3 35.4s10.2 11.8 10.2 11.8h103.6z"/><path class="st2" d="M483.3 379.3c-4.7-9.9-8-19.1-9.3-39.5s1.2-22 0-38.1-2.4-12.6-1.2-24.7c1.1-12.1-5.5-27.8-5.6-33.7-.1-5.9.4-26.1-1.4-35.6-1.8-9.5-4.5-16.5-9-31.9-5-17.2-14.4-26.9-21.7-24.5s-8.5 10-7.6 12.8c-3.2-6.3-5.3-10-7.3-12.4-1.5-1.8-5.6-4.9-9-5.4-2.5-.4-8.6.1-11.3 6.3-2.6.9-2.9 6.9-2.8 8.6-.7-3.8-2-9.2-3.1-10.9-1.2-1.7-3.5-4.4-6.7-5.8-3.2-1.4-11.4-.9-13.5.8-2.1 1.7-5.9 5.2-5.6 8.6.3 3.5 1.4 6.6 1.6 15.5s3.1 27.7 3.7 32.4 8.7 48 8.7 48-.3.7-.8.2c-.4-.5-9.9-53.3-13.3-61.1 1.3-8.3 2.1-31.8-3.3-37-2.3-5.2-16.3-9.3-21.6 2.4-5.3 11.6-3.6 32.4-4.6 40.4s.1 25.8 1.1 31.1c-.7-5.4-2.5-10.4-5.6-13.5s-8.2-6.2-11.8-7.5c-2.9-1-6.6.3-8.2 2-.6.6-1.4 1.2-2.3 1.3-.7.1-1.1.3-1.1.3 0 1.6 1.1 9.3 5 17 .5 1 .8 2.1.6 3.2-.4 2.9.6 8.9-.5 13.2-1.3 5.2-2.8 8.8-.5 14.8.2 3.2 1.2 6.4 2.3 7.6-.3 4.3.3 8.4 4.3 18.2 5 12.3 2.5 25.9 6 32.9s7.7 9.4 12.3 16.6c4.5 7.2 22.1 29.7 29.3 35.4s10.2 11.8 10.2 11.8"/><path class="st2" d="M343.1 310.4c.3-5.1 2.6-13.8 2.8-16.9.3-3.1-.6 1.3-.8-12.1-.1-13.5-1.3-34.7-3.5-44.2s-1.6-11.4-2.6-14.8m77.4 18.8c-2.2-3.3-4.7-9.1-5-24.5s-4.9-19.1-5.2-29.7-7.9-14-9.2-25.6m46.4 76c.1-3.8.2-23-1.8-34.5s-4-15.9-6.4-21c-2.5-5.2-6.7-13.1-7.9-17.7"/><g class="st3"><path class="st4" d="M316.3 209.3c.9.2 1.7.7 2.5 1.3.7.7 1.2 1.5 1.5 2.4.5 1.8 1 3.5 1.3 5.4.3 1.8.6 3.7.4 5.6 0 .5-.2 1-.3 1.4-.2.5-.5.9-.9 1.2-.8.7-1.8.8-2.7.5.9.1 1.8-.2 2.4-.9.6-.6.7-1.5.7-2.4 0-1.8-.3-3.6-.6-5.3-.3-1.8-.7-3.6-1.1-5.3-.3-1.6-1.5-3.1-3.2-3.9z"/></g></g><g id="v" class="st0" style="display:block"><path class="st1" d="M277.8 222.3c1-1.6 9.5-9.3 14.1-28.8s-15.9-19.2-23.1-8.3c-7.1 10.9-12.5 20.4-21.6 29.4-9.1 9-24.8 28.4-26.7 30.4-1.9 2-8.7 11.4-10.3 11.5-1.6.1-8.7-3.1-9.3-5.3-.6-2.2-.4-11.3 1.4-15.5 1.8-4.2 9.8-23 10.3-26.5 4.1-1.3 11.2-7.6 13.7-10.7 2.4-3.2 4.9-7.9 7-10.1 2.1-2.2 11.6-20.9 6.1-28.5-2.6-8.6-13.4-5.8-15.8-3.6-2.5 2.2-5.3 8.7-6.3 9.9-1 1.2-4.6 5.8-5.6 10-3.3 1.1-17.1 9.1-21.2 13.5-4.2 4.4-.1-3.8 1.4-4.8s12.2-10.3 15.5-18.2c3.3-7.9-.5-10.8-.5-10.8s-.1-6.8-6.8-6.4-13 10.2-13.9 10.5c-.9.3-2.7-1.1-8.6 4.9-2.6-2.2-5.6-3.2-6.5-3.5-1.2-1.7-5.6-3.1-7.2-1.1-1.5 1.9-3.3 7.1-4.2 8.5-.9 1.3-5.8 8.9-7.7 12.9-1.8 4-4.3 11.2-5.1 12.6-.8 1.3-7.2 7-8.2 10-.9 3-1.2 9.3-1.8 11.2-.6 1.9-2.8 6.7-3.7 11.9-2.2 1.7-5.8 7.8-8.8 26.9-3 19.2-10.3 18.6-9.9 39.4.4 20.8.1 52.3-1.6 60.1-1.7 7.9-4.6 17.9-10.2 26.5h113c3.3-2.4 9.9-8.4 12.3-11 2.4-2.6 16.7-18.7 25.1-26 8.4-7.3 10.4-10.5 11.6-14.2 1.2-3.7 3.7-21.2 8.8-34.5 5.2-13.3 7.2-19.7 6.4-22.1 1.2-2.2 1-12.7 1.7-15.3.7-2.6 1.8-5.8 1.6-7.1.6-1.4 7.5-16.5 6.7-21-.8-4.5-13-4-14.9-2.4 1.9-1.6 1.8-2.7 2.8-4.4zm-36.1 67c-.9.3-4.4 4.8-6.3 7.2l-2.8-.9c2.7-11.6 10.5-24.7 16.7-28.2-4.7 7-6.7 21.6-7.6 21.9z"/><path class="st2" d="M215.7 380.3c3.3-2.4 9.9-8.4 12.3-11 2.4-2.6 16.7-18.7 25.1-26 8.4-7.3 10.4-10.5 11.6-14.2 1.2-3.7 3.7-21.2 8.8-34.5 5.2-13.3 7.2-19.7 6.4-22.1 1.2-2.2 1-12.7 1.7-15.3s1.8-5.7 1.6-7.1c.6-1.4 7.5-16.5 6.7-21-.8-4.5-13-4-14.9-2.4 1.8-1.6 1.7-2.7 2.8-4.4 1-1.7 9.5-9.3 14.1-28.8s-15.9-19.2-23.1-8.3c-7.1 10.9-12.6 20.4-21.6 29.4-9.1 9-24.8 28.4-26.7 30.4s-8.7 11.4-10.3 11.5-8.7-3.1-9.3-5.3-.4-11.3 1.4-15.5c1.8-4.2 9.8-23 10.3-26.5 4.1-1.3 11.2-7.6 13.7-10.7s4.9-7.9 7-10.1c2.1-2.2 11.6-20.9 6.1-28.5-2.7-8.6-13.4-5.8-15.8-3.6s-5.3 8.7-6.3 9.9c-1 1.2-4.6 5.8-5.6 10-3.3 1.1-17 9.1-21.2 13.5-4.2 4.4-.1-3.8 1.4-4.8s12.2-10.3 15.5-18.2c3.3-7.9-.5-10.8-.5-10.8s-.1-6.8-6.8-6.4-13 10.2-13.9 10.5-2.7-1.1-8.6 4.9c-2.6-2.2-5.6-3.2-6.5-3.5-1.2-1.7-5.6-3.1-7.1-1.1-1.5 1.9-3.3 7.1-4.2 8.5-.9 1.3-5.8 8.9-7.7 12.9-1.8 4-4.3 11.2-5.1 12.6-.8 1.3-7.2 7-8.2 10-.9 3-1.2 9.3-1.8 11.2s-2.8 6.7-3.7 11.9c-2.2 1.7-5.8 7.8-8.8 26.9-3 19.2-10.3 18.6-9.9 39.4.4 20.8.1 52.3-1.6 60.1-1.7 7.9-4.6 17.9-10.2 26.5"/><path class="st2" d="M235.4 296.5c1.9-2.4 5.5-6.8 6.3-7.2.9-.3 2.9-14.9 7.6-22-6.2 3.5-14 16.6-16.7 28.2l2.8 1z"/><path d="M232.6 295.5c1.3-4.9 4.8-15.8 12.2-24.3s15-18.5 18.5-24.3c3.5-5.8 13.5-23 14.5-24.6 1-1.7 9.5-9.3 14.1-28.8s-15.9-19.2-23.1-8.3c-7.1 10.9-12.6 20.4-21.6 29.4-9.1 9-24.8 28.4-26.7 30.4s-11.3 14.8-15.1 15.9" style="display:inline;fill:none;stroke:#2969d0;stroke-width:3;stroke-linecap:round;stroke-miterlimit:10"/><path class="st2" d="M123.5 267.3c1.8-1.2 5.6-3.5 7.2-11.2 1.5-7.7.8-21.9 2.7-28.7m13.6-33.2c6.2-4.9 10.4-12 15.6-15.3 5.2-3.3 7.3-5.1 8.7-6.4 1.3-1.3 3.6-5 6.4-7.6m-23.8 95c2.4-2.7 7-9.6 10.2-24.8 3.1-15.2 10.6-28.1 11.4-31.2.7-3.1 3.9-8.3 13.8-13"/><g class="st3"><path class="st4" d="M275 182.3c-.6 1-1.4 1.9-1.9 2.9-.3.5-.5 1-.5 1.5s.1 1 .5 1.4c.6.8 1.7 1.4 2.7 1.9 1 .5 2.1.9 3.2 1.2 1.1.3 2.2.5 3.4.7.6.1 1.1.1 1.7.2.6 0 1.1 0 1.6-.1 1-.4 1.9-1.1 2.7-2 .8-.8 1.6-1.7 2.3-2.6-.6 1-1.2 2-2 2.9-.8.9-1.6 1.8-2.8 2.4-.6.3-1.3.3-1.9.3-.6 0-1.2 0-1.8-.1-1.2-.1-2.4-.3-3.5-.7-1.2-.3-2.3-.8-3.3-1.4-.5-.3-1-.6-1.5-1s-1-.8-1.3-1.4c-.4-.5-.6-1.2-.5-1.9.1-.7.4-1.2.7-1.7.6-.8 1.4-1.6 2.2-2.5z"/></g><g class="st3"><path class="st4" d="M286.9 227.4c-1.3.4-2.4 1.1-3.5 1.9-1.1.7-2.1 1.6-3 2.5-1.8 1.9-3.4 4-4.4 6.4-.5 1.2-.8 2.4-.9 3.7-.1 1.3.2 2.5.7 3.7.5 1.2 1.2 2.3 2.1 3.3.9 1 1.9 1.9 3.1 2.5-2.5-1-4.6-3-5.9-5.4-.6-1.2-1-2.7-.9-4.1 0-1.4.4-2.8.9-4.1 1.1-2.5 2.7-4.8 4.8-6.6 1.9-1.7 4.3-3.3 7-3.8z"/></g></g></svg>