<svg xmlns="http://www.w3.org/2000/svg" viewBox="0 0 716.3 380" style="enable-background:new 0 0 716.3 380" xml:space="preserve" class="theme-bone"><style>.st0{display:none}.st1{opacity:.33;fill:#e0e1e2}.st1,.st2,.st3{display:inline}.st2{fill:none;stroke:#808285;stroke-width:2;stroke-miterlimit:10}.st3{opacity:.5}.st4{fill:#aeb0b2}</style><g id="neutral-right" class="st0" style="display:block"><path class="st1" d="M483.3 379.3c-4.7-9.9-8-19.1-9.3-39.5s1.2-22 0-38.1-2.4-12.6-1.2-24.7c1.1-12.1-5.5-27.8-5.6-33.7-.1-5.9.4-26.1-1.4-35.6-1.8-9.5-6-15.6-9-31.9-3-16.3-14.4-26.9-21.7-24.5s-8.5 10-7.6 12.8c-3.2-6.3-5.3-10-7.3-12.4-2-2.4-7.8-5.2-7.8-5.2s-9-1.9-12.5 6.2c-2.9.6-2.9 6.9-2.8 8.6-.7-3.8-2-9.2-3.1-10.9-1.2-1.7-3.5-4.4-6.7-5.8-3.2-1.4-11.4-.9-13.5.8-2.1 1.7-5.9 5.2-5.6 8.6.3 3.5 1.4 6.6 1.6 15.5s3.1 27.7 3.7 32.4 8.7 48 8.7 48-.3.7-.8.2c-.4-.5-9.9-53.3-13.3-61.1 1.3-8.3 2.1-31.8-3.3-37-2.3-5.2-16.3-9.3-21.6 2.4-5.3 11.6-3.6 32.4-4.6 40.4s.1 25.8 1.1 31.1c-.7-5.4-2.5-10.4-5.6-13.5s-8.2-6.2-11.8-7.5c-2.9-1-6.6.3-8.2 1.9-.5.5-1.2 1-1.9 1.1-.8.2-1.5.8-1.5.8 0 1.7 1.3 10.2 6 18.6-1.2 1.8.4 9.3-.9 14.6-1.3 5.2-2.8 8.8-.5 14.8-.9 1.6.3 6 2.3 7.6-1.2 3.7.3 8.4 4.3 18.2 5 12.3 2.5 25.9 6 32.9s7.7 9.4 12.3 16.6c4.5 7.2 22.1 29.7 29.3 35.4s10.2 11.8 10.2 11.8h103.6z"/><path class="st2" d="M483.3 379.3c-4.7-9.9-8-19.1-9.3-39.5s1.2-22 0-38.1-2.4-12.6-1.2-24.7c1.1-12.1-5.5-27.8-5.6-33.7-.1-5.9.4-26.1-1.4-35.6-1.8-9.5-4.5-16.5-9-31.9-5-17.2-14.4-26.9-21.7-24.5s-8.5 10-7.6 12.8c-3.2-6.3-5.3-10-7.3-12.4-1.5-1.8-5.6-4.9-9-5.4-2.5-.4-8.6.1-11.3 6.3-2.6.9-2.9 6.9-2.8 8.6-.7-3.8-2-9.2-3.1-10.9-1.2-1.7-3.5-4.4-6.7-5.8-3.2-1.4-11.4-.9-13.5.8-2.1 1.7-5.9 5.2-5.6 8.6.3 3.5 1.4 6.6 1.6 15.5s3.1 27.7 3.7 32.4 8.7 48 8.7 48-.3.7-.8.2c-.4-.5-9.9-53.3-13.3-61.1 1.3-8.3 2.1-31.8-3.3-37-2.3-5.2-16.3-9.3-21.6 2.4-5.3 11.6-3.6 32.4-4.6 40.4s.1 25.8 1.1 31.1c-.7-5.4-2.5-10.4-5.6-13.5s-8.2-6.2-11.8-7.5c-2.9-1-6.6.3-8.2 2-.6.6-1.4 1.2-2.3 1.3-.7.1-1.1.3-1.1.3 0 1.6 1.1 9.3 5 17 .5 1 .8 2.1.6 3.2-.4 2.9.6 8.9-.5 13.2-1.3 5.2-2.8 8.8-.5 14.8.2 3.2 1.2 6.4 2.3 7.6-.3 4.3.3 8.4 4.3 18.2 5 12.3 2.5 25.9 6 32.9s7.7 9.4 12.3 16.6c4.5 7.2 22.1 29.7 29.3 35.4s10.2 11.8 10.2 11.8"/><path class="st2" d="M343.1 310.4c.3-5.1 2.6-13.8 2.8-16.9.3-3.1-.6 1.3-.8-12.1-.1-13.5-1.3-34.7-3.5-44.2s-1.6-11.4-2.6-14.8m77.4 18.8c-2.2-3.3-4.7-9.1-5-24.5s-4.9-19.1-5.2-29.7-7.9-14-9.2-25.6m46.4 76c.1-3.8.2-23-1.8-34.5s-4-15.9-6.4-21c-2.5-5.2-6.7-13.1-7.9-17.7"/><g class="st3"><path class="st4" d="M316.3 209.3c.9.2 1.7.7 2.5 1.3.7.7 1.2 1.5 1.5 2.4.5 1.8 1 3.5 1.3 5.4.3 1.8.6 3.7.4 5.6 0 .5-.2 1-.3 1.4-.2.5-.5.9-.9 1.2-.8.7-1.8.8-2.7.5.9.1 1.8-.2 2.4-.9.6-.6.7-1.5.7-2.4 0-1.8-.3-3.6-.6-5.3-.3-1.8-.7-3.6-1.1-5.3-.3-1.6-1.5-3.1-3.2-3.9z"/></g></g><g id="q" class="st0" style="display:block"><path class="st1" d="M172 381.8c4-4.9 16.7-23.8 28.5-32.7 11.8-8.9 47.5-34.8 52.7-40.5 5.2-5.6 6.3-11.3 9.4-21.4s14.8-36.9 16-40.7c1.2-3.8.9-13.2 2.2-17.7v-1.6s8.4-19.9 7.6-22.4c-.7-2.5-9.2-4.3-16-2.2-6.8 2-15.4 12.4-18.6 17.6s-7.8 13.2-6.1 20c-2 .2-3.1 1.8-3.4 3.1-.3 1.3-7.2 17.5-7.2 17.5s-2.8.9-4.7 2.8-2.7 4.5-2.7 4.5-2.7-1.7-3.2-3.1 2.5-14.5 6.2-23c3.7-8.4 12-24.9 13.8-28 1.9-3.1 10.8-20 12.2-24.1 1.4-4.1 10.2-12 11.6-18.3s4.2-11.3 1.1-18c-3.1-6.7-9.4-7-14.2-5.5-4.8 1.6-12.5 11.6-16.1 18.9-3.6 7.3-11.4 7-21.9 23.3s-16.7 25.6-17.4 28.1c-.6 2.5-.3 4.8-1.9 7.2-1.6.7-1.6-11.4 1-17.1 2.6-5.7 12.3-19.7 12.9-22.3 1.3-.6 9.7-2.5 14.1-10.2 2.2-3.8 4.8-2.2 7.9-7.7 3.1-5.5 3.4-9.3 1.3-12.5-.7-3.4-4.5-7.5-12.5-5.9s-10 3.4-10.3 3.6c-1-.5-2.7-4.7-7.8-5.5-5.2-.9-11 1.9-13.5 3.4-3-.1-9.7.3-13.1 2.8-4.2-.4-11.3 0-15.8 2.6 1.9-3.5 6.2-14 4.5-22.2-1.6-8.2-10.6-11-12.5-11.1-1.9-.1-5.2 6.9-7.4 10.8-2.3 3.9-14 24.2-19.2 33.8-5.2 9.6-10 24.2-11.6 28.2s-2.5 16.5-2.9 21.4c-.4 4.9-7.3 22.2-8.7 28-1.4 5.8-1.5 25.5-4.5 45.8-3 20.3 0 11.3-3.1 24.3s-5.7 20.7-17.1 36.7-13.4 22.8-18 29.2H172z"/><path class="st2" d="M172 381.8c4-4.9 16.7-23.8 28.5-32.7 11.8-8.9 47.5-34.8 52.7-40.5 5.2-5.6 6.3-11.3 9.4-21.4s14.8-36.9 16-40.7c1.2-3.8.9-13.2 2.2-17.7v-1.6s8.4-19.9 7.6-22.4c-.7-2.5-9.2-4.3-16-2.2-6.8 2-15.4 12.4-18.6 17.6s-7.8 13.2-6.1 20c-2 .2-3.1 1.8-3.4 3.1-.3 1.3-7.2 17.5-7.2 17.5s-2.8.9-4.7 2.8-2.7 4.5-2.7 4.5-2.7-1.7-3.2-3.1 2.5-14.5 6.2-23c3.7-8.4 12-24.9 13.8-28 1.9-3.1 10.8-20 12.2-24.1 1.4-4.1 10.2-12 11.6-18.3s4.2-11.3 1.1-18c-3.1-6.7-9.4-7-14.2-5.5-4.8 1.6-12.5 11.6-16.1 18.9-3.6 7.3-11.4 7-21.9 23.3s-16.7 25.6-17.4 28.1c-.6 2.5-.3 4.8-1.9 7.2-1.6.7-1.6-11.4 1-17.1 2.6-5.7 12.3-19.7 12.9-22.3 1.3-.6 9.7-2.5 14.1-10.2 2.2-3.8 4.8-2.2 7.9-7.7 3.1-5.5 3.4-9.3 1.3-12.5-.7-3.4-4.5-7.5-12.5-5.9s-10 3.4-10.3 3.6c-1-.5-2.7-4.7-7.8-5.5-5.2-.9-11 1.9-13.5 3.4-3-.1-9.7.3-13.1 2.8-4.2-.4-11.3 0-15.8 2.6 1.9-3.5 6.2-14 4.5-22.2-1.6-8.2-10.6-11-12.5-11.1-1.9-.1-5.2 6.9-7.4 10.8-2.3 3.9-14 24.2-19.2 33.8-5.2 9.6-10 24.2-11.6 28.2s-2.5 16.5-2.9 21.4c-.4 4.9-7.3 22.2-8.7 28-1.4 5.8-1.5 25.5-4.5 45.8-3 20.3 0 11.3-3.1 24.3s-5.7 20.7-17.1 36.7-13.4 22.8-18 29.2"/><path d="M164.2 156.8c1.9-3.5 6.2-14 4.5-22.2-1.6-8.2-10.6-11-12.5-11.1-1.9-.1-5.2 6.9-7.4 10.8-2.3 3.9-14 24.2-19.2 33.8-5.2 9.6-10 24.2-11.6 28.2s-2.5 16.5-2.9 21.4" style="display:inline;fill:none;stroke:#2969d0;stroke-width:3;stroke-linecap:round;stroke-miterlimit:10"/><path class="st2" d="M134.6 203.9c.5-6.1 6-35.1 11.2-39.1s12-3 13.8-4c1.7-1 4.6-4.7 8.1-5.5m20.2 1.9c-2.4-1.2-4.8-2.8-7.9-3m-26.5 66.7c4-.7 6.8-4.8 11.5-17s13.9-37.5 19.7-41.2c5.8-3.7 13.1-1.9 15.2-2.4 2.1-.5 5.1-2.8 11.2-2.4s13.2 4.9 13.2 4.9"/><path class="st2" d="M214.4 153.6s-2.7 1.6-5.1 4.3"/><g class="st3"><path class="st4" d="M285.9 205.5c-1.2-.1-2.3.2-3.3.8-1 .6-1.9 1.3-2.6 2.2-.8.9-1.5 1.7-2.2 2.7-.4.5-.6 1-1 1.4-.3.5-.6 1-.8 1.5-1 2.1-1.5 4.3-1.6 6.6 0 1.1.1 2.3.5 3.4.3 1.1 1 2.1 2.2 2.5-1.2-.1-2.1-1.2-2.6-2.3-.5-1.1-.7-2.3-.8-3.5-.1-1.2.1-2.4.3-3.6.3-1.2.6-2.3 1.1-3.4.3-.6.6-1.1.9-1.6.3-.5.7-1 1-1.5.7-.9 1.5-1.9 2.4-2.7.9-.8 1.9-1.6 3-2.1 1-.6 2.3-.7 3.5-.4z"/></g><g class="st3"><path class="st4" d="M159.3 126.9c1.7.8 3 2.4 3.3 4.4.2 1 .1 2-.3 2.9-.4.9-1 1.7-1.6 2.4-1.4 1.4-3.1 2.3-4.9 2.8-1.8.5-3.7.6-5.5.2 1.8 0 3.6-.4 5.3-.9 1.7-.6 3.2-1.5 4.4-2.8 1.2-1.2 2-2.8 1.9-4.5-.2-1.7-1.1-3.4-2.6-4.5z"/></g></g></svg>