<svg xmlns="http://www.w3.org/2000/svg" viewBox="0 0 716.3 380" style="enable-background:new 0 0 716.3 380" xml:space="preserve"><style>.st0{display:none}.st1{opacity:.33;fill:#e0e1e2}.st1,.st2,.st3{display:inline}.st2{fill:none;stroke:#808285;stroke-width:2;stroke-miterlimit:10}.st3{opacity:.5}.st4{fill:#aeb0b2}</style><g id="neutral-right" class="st0" style="display:block"><path class="st1" d="M483.3 379.3c-4.7-9.9-8-19.1-9.3-39.5s1.2-22 0-38.1-2.4-12.6-1.2-24.7c1.1-12.1-5.5-27.8-5.6-33.7-.1-5.9.4-26.1-1.4-35.6-1.8-9.5-6-15.6-9-31.9-3-16.3-14.4-26.9-21.7-24.5s-8.5 10-7.6 12.8c-3.2-6.3-5.3-10-7.3-12.4-2-2.4-7.8-5.2-7.8-5.2s-9-1.9-12.5 6.2c-2.9.6-2.9 6.9-2.8 8.6-.7-3.8-2-9.2-3.1-10.9-1.2-1.7-3.5-4.4-6.7-5.8-3.2-1.4-11.4-.9-13.5.8-2.1 1.7-5.9 5.2-5.6 8.6.3 3.5 1.4 6.6 1.6 15.5s3.1 27.7 3.7 32.4 8.7 48 8.7 48-.3.7-.8.2c-.4-.5-9.9-53.3-13.3-61.1 1.3-8.3 2.1-31.8-3.3-37-2.3-5.2-16.3-9.3-21.6 2.4-5.3 11.6-3.6 32.4-4.6 40.4s.1 25.8 1.1 31.1c-.7-5.4-2.5-10.4-5.6-13.5s-8.2-6.2-11.8-7.5c-2.9-1-6.6.3-8.2 1.9-.5.5-1.2 1-1.9 1.1-.8.2-1.5.8-1.5.8 0 1.7 1.3 10.2 6 18.6-1.2 1.8.4 9.3-.9 14.6-1.3 5.2-2.8 8.8-.5 14.8-.9 1.6.3 6 2.3 7.6-1.2 3.7.3 8.4 4.3 18.2 5 12.3 2.5 25.9 6 32.9s7.7 9.4 12.3 16.6c4.5 7.2 22.1 29.7 29.3 35.4s10.2 11.8 10.2 11.8h103.6z"/><path class="st2" d="M483.3 379.3c-4.7-9.9-8-19.1-9.3-39.5s1.2-22 0-38.1-2.4-12.6-1.2-24.7c1.1-12.1-5.5-27.8-5.6-33.7-.1-5.9.4-26.1-1.4-35.6-1.8-9.5-4.5-16.5-9-31.9-5-17.2-14.4-26.9-21.7-24.5s-8.5 10-7.6 12.8c-3.2-6.3-5.3-10-7.3-12.4-1.5-1.8-5.6-4.9-9-5.4-2.5-.4-8.6.1-11.3 6.3-2.6.9-2.9 6.9-2.8 8.6-.7-3.8-2-9.2-3.1-10.9-1.2-1.7-3.5-4.4-6.7-5.8-3.2-1.4-11.4-.9-13.5.8-2.1 1.7-5.9 5.2-5.6 8.6.3 3.5 1.4 6.6 1.6 15.5s3.1 27.7 3.7 32.4 8.7 48 8.7 48-.3.7-.8.2c-.4-.5-9.9-53.3-13.3-61.1 1.3-8.3 2.1-31.8-3.3-37-2.3-5.2-16.3-9.3-21.6 2.4-5.3 11.6-3.6 32.4-4.6 40.4s.1 25.8 1.1 31.1c-.7-5.4-2.5-10.4-5.6-13.5s-8.2-6.2-11.8-7.5c-2.9-1-6.6.3-8.2 2-.6.6-1.4 1.2-2.3 1.3-.7.1-1.1.3-1.1.3 0 1.6 1.1 9.3 5 17 .5 1 .8 2.1.6 3.2-.4 2.9.6 8.9-.5 13.2-1.3 5.2-2.8 8.8-.5 14.8.2 3.2 1.2 6.4 2.3 7.6-.3 4.3.3 8.4 4.3 18.2 5 12.3 2.5 25.9 6 32.9s7.7 9.4 12.3 16.6c4.5 7.2 22.1 29.7 29.3 35.4s10.2 11.8 10.2 11.8"/><path class="st2" d="M343.1 310.4c.3-5.1 2.6-13.8 2.8-16.9.3-3.1-.6 1.3-.8-12.1-.1-13.5-1.3-34.7-3.5-44.2s-1.6-11.4-2.6-14.8m77.4 18.8c-2.2-3.3-4.7-9.1-5-24.5s-4.9-19.1-5.2-29.7-7.9-14-9.2-25.6m46.4 76c.1-3.8.2-23-1.8-34.5s-4-15.9-6.4-21c-2.5-5.2-6.7-13.1-7.9-17.7"/><g class="st3"><path class="st4" d="M316.3 209.3c.9.2 1.7.7 2.5 1.3.7.7 1.2 1.5 1.5 2.4.5 1.8 1 3.5 1.3 5.4.3 1.8.6 3.7.4 5.6 0 .5-.2 1-.3 1.4-.2.5-.5.9-.9 1.2-.8.7-1.8.8-2.7.5.9.1 1.8-.2 2.4-.9.6-.6.7-1.5.7-2.4 0-1.8-.3-3.6-.6-5.3-.3-1.8-.7-3.6-1.1-5.3-.3-1.6-1.5-3.1-3.2-3.9z"/></g></g><g id="z" class="st0" style="display:block"><path class="st1" d="M245.4 381c11.2-11.5 28.5-33.9 36.9-40.4s6.7-21 10-32.4c3.3-11.4 11.4-29.6 10.1-32.2 2.1-1.3 2.7-6 3.4-10.6.7-4.6 3.7-7.1 3.6-9.8 2.1-2.7 11.2-16.7 11.3-19.7.1-3-7-9.9-21.7-3.1s-23.3 23.4-24.2 26.3.3 5.7-.4 7.1-2.7 1.1-5.5 9.8c-2.7 8.6-3.9 15.7-7.7 18.4.3-5 .8-26.7 1.5-35.2s7.6-33.5 9.9-44.3c2.2-10.8 1.3-21.4 2.5-29.3 1.2-7.9 1.3-23.5-3.7-29.9-5.1-6.4-12.4-6.3-17.2 0-4.8 6.3-4.3 23.6-4.9 29.9-3.8 9.6-12 33.1-13.3 39.7-1.3 6.6-4.8 20.5-5.8 20.9s-4.6-.7-4-5.2 10-43.7 10.3-47.4c1.5-3.5 4.9-14.9 4.9-18.7 2-3.2 4.7-21-1-22.6-1.1-3.5-3.1-5.3-9.8-5.7-6.7-.3-9.8 3-10 5.6-2 1.6-3.1 3.4-3.3 5 0-1.7-3.1-6.5-8.3-6.8-5.2-.3-7.7 1.6-10.3 4.6-3.1 1.2-7.2 4.8-12.8 13.4s-7.2 12.6-9.7 15.7c-3.2 2.7-8.5 7.8-10.6 12.3-2.1 4.5-8 20.1-9.3 21.8s-3.1 2.2-4.7 9.2c-1.6 7-3.8 9.6-4.8 15.4-1 5.9-1.1 8-1.3 13-.2 4.9-1.5 13-8.3 24.1s-1.4 28.5-5.7 47.1c-4.3 18.6 1.3 32.2-8.9 54h122.8z"/><path class="st2" d="M245.4 381c11.2-11.5 28.5-33.9 36.9-40.4s6.7-21 10-32.4c3.3-11.4 11.4-29.6 10.1-32.2 2.1-1.3 2.7-6 3.4-10.6.7-4.6 3.7-7.1 3.6-9.8 2.1-2.7 11.2-16.7 11.3-19.7.1-3-7-9.9-21.7-3.1s-23.3 23.4-24.2 26.3.3 5.7-.4 7.1-2.7 1.1-5.5 9.8c-2.7 8.6-3.9 15.7-7.7 18.4.3-5 .8-26.7 1.5-35.2s7.6-33.5 9.9-44.3c2.2-10.8 1.3-21.4 2.5-29.3 1.2-7.9 1.3-23.5-3.7-29.9-5.1-6.4-12.4-6.3-17.2 0-4.8 6.3-4.3 23.6-4.9 29.9-3.8 9.6-12 33.1-13.3 39.7-1.3 6.6-4.8 20.5-5.8 20.9s-4.6-.7-4-5.2 10-43.7 10.3-47.4c1.5-3.5 4.9-14.9 4.9-18.7 2-3.2 4.7-21-1-22.6-1.1-3.5-3.1-5.3-9.8-5.7-6.7-.3-9.8 3-10 5.6-2 1.6-3.1 3.4-3.3 5 0-1.7-3.1-6.5-8.3-6.8-5.2-.3-7.7 1.6-10.3 4.6-3.1 1.2-7.2 4.8-12.8 13.4s-7.2 12.6-9.7 15.7c-3.2 2.7-8.5 7.8-10.6 12.3-2.1 4.5-8 20.1-9.3 21.8s-3.1 2.2-4.7 9.2c-1.6 7-3.8 9.6-4.8 15.4-1 5.9-1.1 8-1.3 13-.2 4.9-1.5 13-8.3 24.1s-1.4 28.5-5.7 47.1c-4.3 18.6 1.3 32.2-8.9 54"/><path d="M175.4 184.8c-3.2 2.7-7.8 7.2-9.8 11.7-2.1 4.5-8 20.1-9.3 21.8s-3.1 2.2-4.7 9.2c-1.6 7-3.8 9.6-4.8 15.4-1 5.9-1.1 8-1.3 13" style="display:inline;fill:none;stroke:#2969d0;stroke-width:3;stroke-linecap:round;stroke-miterlimit:10"/><path class="st2" d="M156.5 254.3c2.2-1.9 3.5-4.3 3.5-9.4 0-5.2 1.9-22 2.6-27.6.7-5.6 2-11.7 3-13.5.9-1.9 9.8-16.3 12-21.6m4.8 71.8c4.1-3.6 8.3-11.3 12.6-38.3s8.6-26.8 10.8-31.5c2.2-4.7 4.4-10.4 8.2-14.4 0-4.5.3-8.9 3.2-12.5"/><g class="st3"><path class="st4" d="M317.9 235.8c-1.2 0-2.3.2-3.4.6-1.1.3-2.2.8-3.2 1.3s-1.9 1.2-2.8 1.9c-.9.7-1.6 1.6-2.2 2.5-.6.9-1.1 1.9-1.5 3-.4 1.1-.6 2.2-.7 3.3-.1 1.1 0 2.3.3 3.4s.8 2.2 1.4 3.1c-.9-.8-1.5-1.8-1.9-3-.4-1.1-.6-2.3-.6-3.5 0-1.2.2-2.4.6-3.6.4-1.1.8-2.3 1.5-3.3 1.3-2 3.4-3.5 5.5-4.5 2.3-.9 4.7-1.5 7-1.2z"/></g></g></svg>