<svg xmlns="http://www.w3.org/2000/svg" viewBox="0 0 716.3 380" style="enable-background:new 0 0 716.3 380" xml:space="preserve"><style>.st0{display:none}.st1{opacity:.33;fill:#e0e1e2}.st1,.st2,.st3{display:inline}.st2{fill:none;stroke:#808285;stroke-width:2;stroke-miterlimit:10}.st3{opacity:.5}.st4{fill:#aeb0b2}</style><g id="neutral-right" class="st0" style="display:block"><path class="st1" d="M483.3 379.3c-4.7-9.9-8-19.1-9.3-39.5s1.2-22 0-38.1-2.4-12.6-1.2-24.7c1.1-12.1-5.5-27.8-5.6-33.7-.1-5.9.4-26.1-1.4-35.6-1.8-9.5-6-15.6-9-31.9-3-16.3-14.4-26.9-21.7-24.5s-8.5 10-7.6 12.8c-3.2-6.3-5.3-10-7.3-12.4-2-2.4-7.8-5.2-7.8-5.2s-9-1.9-12.5 6.2c-2.9.6-2.9 6.9-2.8 8.6-.7-3.8-2-9.2-3.1-10.9-1.2-1.7-3.5-4.4-6.7-5.8-3.2-1.4-11.4-.9-13.5.8-2.1 1.7-5.9 5.2-5.6 8.6.3 3.5 1.4 6.6 1.6 15.5s3.1 27.7 3.7 32.4 8.7 48 8.7 48-.3.7-.8.2c-.4-.5-9.9-53.3-13.3-61.1 1.3-8.3 2.1-31.8-3.3-37-2.3-5.2-16.3-9.3-21.6 2.4-5.3 11.6-3.6 32.4-4.6 40.4s.1 25.8 1.1 31.1c-.7-5.4-2.5-10.4-5.6-13.5s-8.2-6.2-11.8-7.5c-2.9-1-6.6.3-8.2 1.9-.5.5-1.2 1-1.9 1.1-.8.2-1.5.8-1.5.8 0 1.7 1.3 10.2 6 18.6-1.2 1.8.4 9.3-.9 14.6-1.3 5.2-2.8 8.8-.5 14.8-.9 1.6.3 6 2.3 7.6-1.2 3.7.3 8.4 4.3 18.2 5 12.3 2.5 25.9 6 32.9s7.7 9.4 12.3 16.6c4.5 7.2 22.1 29.7 29.3 35.4s10.2 11.8 10.2 11.8h103.6z"/><path class="st2" d="M483.3 379.3c-4.7-9.9-8-19.1-9.3-39.5s1.2-22 0-38.1-2.4-12.6-1.2-24.7c1.1-12.1-5.5-27.8-5.6-33.7-.1-5.9.4-26.1-1.4-35.6-1.8-9.5-4.5-16.5-9-31.9-5-17.2-14.4-26.9-21.7-24.5s-8.5 10-7.6 12.8c-3.2-6.3-5.3-10-7.3-12.4-1.5-1.8-5.6-4.9-9-5.4-2.5-.4-8.6.1-11.3 6.3-2.6.9-2.9 6.9-2.8 8.6-.7-3.8-2-9.2-3.1-10.9-1.2-1.7-3.5-4.4-6.7-5.8-3.2-1.4-11.4-.9-13.5.8-2.1 1.7-5.9 5.2-5.6 8.6.3 3.5 1.4 6.6 1.6 15.5s3.1 27.7 3.7 32.4 8.7 48 8.7 48-.3.7-.8.2c-.4-.5-9.9-53.3-13.3-61.1 1.3-8.3 2.1-31.8-3.3-37-2.3-5.2-16.3-9.3-21.6 2.4-5.3 11.6-3.6 32.4-4.6 40.4s.1 25.8 1.1 31.1c-.7-5.4-2.5-10.4-5.6-13.5s-8.2-6.2-11.8-7.5c-2.9-1-6.6.3-8.2 2-.6.6-1.4 1.2-2.3 1.3-.7.1-1.1.3-1.1.3 0 1.6 1.1 9.3 5 17 .5 1 .8 2.1.6 3.2-.4 2.9.6 8.9-.5 13.2-1.3 5.2-2.8 8.8-.5 14.8.2 3.2 1.2 6.4 2.3 7.6-.3 4.3.3 8.4 4.3 18.2 5 12.3 2.5 25.9 6 32.9s7.7 9.4 12.3 16.6c4.5 7.2 22.1 29.7 29.3 35.4s10.2 11.8 10.2 11.8"/><path class="st2" d="M343.1 310.4c.3-5.1 2.6-13.8 2.8-16.9.3-3.1-.6 1.3-.8-12.1-.1-13.5-1.3-34.7-3.5-44.2s-1.6-11.4-2.6-14.8m77.4 18.8c-2.2-3.3-4.7-9.1-5-24.5s-4.9-19.1-5.2-29.7-7.9-14-9.2-25.6m46.4 76c.1-3.8.2-23-1.8-34.5s-4-15.9-6.4-21c-2.5-5.2-6.7-13.1-7.9-17.7"/><g class="st3"><path class="st4" d="M316.3 209.3c.9.2 1.7.7 2.5 1.3.7.7 1.2 1.5 1.5 2.4.5 1.8 1 3.5 1.3 5.4.3 1.8.6 3.7.4 5.6 0 .5-.2 1-.3 1.4-.2.5-.5.9-.9 1.2-.8.7-1.8.8-2.7.5.9.1 1.8-.2 2.4-.9.6-.6.7-1.5.7-2.4 0-1.8-.3-3.6-.6-5.3-.3-1.8-.7-3.6-1.1-5.3-.3-1.6-1.5-3.1-3.2-3.9z"/></g></g><g id="key-2" class="st0" style="display:block"><path class="st1" d="M292.5 203.9c.5-1.8 7.4-19.5 6.2-23-1.2-3.5-14.8-7.3-26.2 7.5-11.5 14.8-13.5 22.6-12.7 31.9-1.4 2-3 17-5.6 23.2-2.2 1.3-6 8-6.5 7.9-.6-.1-7.1-5-14.6-4.1 0-3.5-.2-13.6 3.9-23.9 4.1-10.3 14-25.8 17.8-31 3.7-5.2 2.8-6.3 3.3-7.3s10.6-8.4 9.7-24.1c-.8-15.7-14.8-13.1-16-12.6-1.1.5-6.5 4.4-11.6 12.9-3.7-1.5-10.5 1.1-18.8 12.9-8.2 11.8-18.7 30.6-19.3 31.1-.7.5-6.3.6-7.3-1.9-1-2.4-.8-7.8 1.9-16.2 4.2-7.3 8.6-17.8 9.6-22 2.5-.5 10.7-4.4 12.7-6.6 2.6.3 12.6-1.6 17.1-9.5 4.5-7.9-1.9-11.5-2.4-11.9-.6-.4-13.6-3.2-16.5-3.7-2.9-.6-7.9-.4-10.7.9-3.1 0-7-.7-14.5 2.9-2.5 1.2-5.2 2-7.8 2.7 1.2-2.9 12.7-25.2 8.7-33.9-4.1-8.7-9.8-10.4-14-8.3-2.5 1.2-6.2 4.8-8.3 12.5-3.5 3.3-5.8 7-7.2 10-1.4 3-3.4 10.1-4.4 11.5-1 1.4-4.6 5.6-6.2 9.1-1.5 3.6-2.9 9.4-4.1 11.3-2.8-.3-20-.3-24.1 1-4.1 1.4-12.8 9.8-14.4 12.1-1.7 2.4-5.7 7.8-9.3 10.4-3.6 2.6-4.8 5.4-4.9 7.9-.2 2.5 2 7.3 2.1 8.9.1 1.6-.1 11.6 2 17.7s4.5 6.8 5.6 11.7c1.1 4.8 2.4 17.1 3.6 23.5 1.2 6.4 4 13.6 5.3 19.8s2.3 16.5 3.1 20.3c.8 3.7 4.1 17.9 3.3 24.3-.8 6.4 0 9.1-7 24.2s-9.7 23.5-12.8 28.7c-3.1 5.1-12.9 18.5-14.4 20.1h101.9s12.8-18.8 17.8-26.6c5-7.9 12.2-20.3 25.7-30.7 13.5-10.4 41-30.9 46.2-35.7s5.2-8.5 7.7-24.9 5.6-29 4.8-29.8c1-.8 2.5-10.4 1.7-10.8.8-.4-.6-18.6-.1-20.4zm-161.4-4.6s-.7.6-1.4 0c-.6-.6 1.7-11-2.4-15.9 2.9-2.2 7-8 6.6-10.7 1.3.6 4.1.5 4.1.5-.7 2.7-5.4 15.6-6.9 26.1z"/><path class="st2" d="M184.8 138.5c1.2-2.9 12-23.6 7.9-32.4-4.1-8.7-9.8-10.4-14-8.3-2.5 1.2-6.1 4.8-8.3 12.5-3.5 3.3-5.8 7-7.2 10-1.4 3-3.4 10.1-4.4 11.5-.9 1.4-4.6 5.6-6.2 9.1-1.5 3.6-4.1 9.1-5.3 10.9-2 3.1-3.3 5-5.7 10.6-2.5 5.6-3.1 10.1-4 12.8s-5.1 13.5-6.6 24c0 0-.7.6-1.4 0-.6-.6 1.7-11-2.4-15.9 2.9-2.2 6.4-7.3 6.6-10.7 1.4.6 3.1.7 3.1.7"/><path class="st2" d="M147.4 151.9c-2.8-.3-18.8 0-23 1.4-4.1 1.4-12.7 9.8-14.4 12.2s-5.7 7.8-9.3 10.4c-3.6 2.6-4.7 5.4-4.9 7.9s2 7.3 2.1 8.9c.1 1.6-.1 11.6 2 17.7s4.5 6.8 5.6 11.7 2.4 17.1 3.6 23.5c1.2 6.4 4 13.6 5.3 19.8s2.3 16.5 3.1 20.3 4.1 17.9 3.3 24.3c-.8 6.4 0 9-7 24.2-7 15.1-9.7 23.5-12.8 28.7-3.1 5.1-12.9 18.5-14.4 20.1"/><path d="M184.8 138.5c1.2-2.9 12-23.6 7.9-32.4-4.1-8.7-9.8-10.4-14-8.3-2.5 1.2-6.1 4.8-8.3 12.5-3.5 3.3-5.8 7-7.2 10-1.4 3-3.4 10.1-4.4 11.5-.9 1.4-4.6 5.6-6.2 9.1-1.5 3.6-4.1 9.1-5.3 10.9-2 3.1-3.3 5-5.7 10.6-2.5 5.6-3.1 10.1-4 12.8s-5.1 13.5-6.6 24" style="display:inline;fill:none;stroke:#2969d0;stroke-width:3;stroke-linecap:round;stroke-miterlimit:10"/><path class="st2" d="M188.3 382.9s12.9-18.8 17.8-26.6 12.2-20.3 25.7-30.7c13.5-10.4 41-30.9 46.2-35.7 5.2-4.8 5.2-8.5 7.7-24.9s5.6-29 4.8-29.8c1-.8 2.5-10.4 1.7-10.8 1.1-.4-.2-18.7.2-20.5s7.4-19.5 6.2-23-14.8-7.3-26.2 7.5c-11.4 14.8-13.4 22.6-12.6 32-1.4 2-3 17-5.6 23.2-2.2 1.3-6 8-6.5 7.9-.6-.1-7.1-5-14.6-4.1 0-3.5-.2-13.6 3.9-23.9 4.1-10.3 14-25.8 17.7-31s2.8-6.3 3.3-7.3 10.6-8.4 9.7-24.1c-.8-15.7-14.9-13.1-16-12.6-1.1.5-6.5 4.4-11.6 12.9-3.7-1.5-10.6 1.1-18.8 12.9-8.2 11.8-18.7 30.6-19.3 31.1-.7.5-6.3.6-7.3-1.9-1-2.4-.7-7.8 1.9-16.3 4.2-7.3 8.6-17.7 9.6-22 2.5-.5 10.7-4.4 12.7-6.6 2.6.3 12.6-1.6 17.1-9.5s-1.9-11.5-2.4-11.9c-.6-.4-13.6-3.2-16.5-3.7-2.9-.6-7.9-.4-10.6.9-3.1 0-7-.7-14.5 2.9s-16.5 3.5-21.8 8.9c-5.2 5.3-11 32.4-12 37.3-.9 4.9-2.7 24.7-10.8 31.2"/><g class="st3"><path class="st4" d="M296.2 182.1c-2.5.3-4.9 1.2-6.6 2.9-1.8 1.6-2.9 3.8-3.6 6.2-.7 2.3-.9 4.8-.2 7.1s2.3 4.3 4 6.1c-1-.7-1.9-1.6-2.8-2.6-.8-1-1.5-2.1-2-3.3-.9-2.4-.8-5.2 0-7.6.7-2.4 2-4.9 4-6.5 1-.8 2.2-1.4 3.4-1.8 1.3-.4 2.5-.6 3.8-.5z"/></g><path class="st2" d="M134 172.7c.1-2.5.2-6.2-1.4-9.9m-5.2 20.6c-1.4-2-4.3-3.9-4.3-3.9m83.2-14.2c.4-3.6 0-7.4 0-7.4m34.1 3.7c3.4.2 10.2 1.6 14 3.8m-35.4-6.7c1.7-1.6 4.7-6.4 4.9-7.4"/><g class="st3"><path class="st4" d="M188.4 104.6c-.5 1.6-1.2 3.2-2.3 4.6-1 1.4-2.4 2.7-4 3.4-.4.2-.8.4-1.3.5-.4.2-.9.2-1.3.3-.4.1-.9 0-1.3.1-.4 0-.9 0-1.3-.1-.9-.1-1.7-.2-2.6-.5-.4-.1-.8-.3-1.2-.6-.4-.2-.8-.6-.7-1.1 0 .4.5.7.8.8.4.2.8.3 1.2.3.8.1 1.7.2 2.5.2 1.7 0 3.3-.2 4.7-.9 1.5-.7 2.7-1.8 3.8-3 1.2-1.1 2.2-2.5 3-4z"/></g></g></svg>