<svg xmlns="http://www.w3.org/2000/svg" viewBox="0 0 716.3 380" style="enable-background:new 0 0 716.3 380" xml:space="preserve" class="theme-bone"><style>.st0{display:none}.st1{opacity:.33;fill:#e0e1e2}.st1,.st2,.st3{display:inline}.st2{fill:none;stroke:#808285;stroke-width:2;stroke-miterlimit:10}.st3{opacity:.5}.st4{fill:#aeb0b2}</style><g id="u" class="st0" style="display:block"><path class="st1" d="M373.1 380c-1.6-2.6-4.3-6.8-8-11.5-4.5-5.6-6.4-6.9-11.1-12.5-4.5-5.4-7.4-9.9-10.4-14.6-5.7-8.9-4.9-9.3-10.4-17.5-2.4-3.6-3.9-5.6-8.7-12.7-3.5-5.3-4.9-7.6-6.1-11-.4-1.2-1.1-3.4-1.9-10.2-.6-5.3-.2-10.3-1.1-15.5-.3-1.7-.6-3-.8-3.7-.6-2.2-1.1-3.3-1.7-4.9-.5-1.4-2-5.3-2.5-10.1-.2-1.4-.3-3.2-.2-5.2-.6-1.1-1.2-2.2-1.7-3.3-.3-1.1-.5-2.4-.6-3.9-.1-2.7.3-5 .8-6.5 1.8-3 3.5-6.1 5.3-9.1 2.4-3.7 4.8-7.3 7.2-11 .2-.9.5-2.3.8-4 1-5.6 1.2-7.2 1.9-10 .9-3.4 1.2-5.1 2.2-6.6 1.6-2.3 3.8-3.5 5.3-4-.2-2-.4-5.2-.7-9.1-1.1-14.7-.8-14.3-1.5-22.1 0-.1-.7-7.7-1.3-17.5-.2-3-.3-5.2.2-8.2.5-2.5 1.3-7.2 5.1-11.3 1.5-1.7 3.9-4.2 7.8-4.8 3.7-.5 6.7 1.1 7.8 1.8 1.4.9 2.2 1.8 3 2.7.6.6 2.8 3.1 4.5 7.6 1.1 2.8 1.4 5 1.7 7.3.7 4.6.2 5.8.9 12.4.2 2.1.3 3.2.6 4.7.7 3.9 1.8 6.7 3.4 10.5 2.4 5.8 3.3 7.9 4.1 10 2.2 5.4 3.2 9.3 5.2 16.7 1.3 4.8 2.7 10.9 4 18.1.6-.1 1.1-.3 1.7-.4.3-1.3.6-2.7.9-4-.2-5.1-.2-10.5.2-16 0-.7.1-1.3.2-2-.4-1.3-.7-2.4-.9-3.2-1-3.9-.8-9-.9-9.9-.2-1.1-.9-1.6-1.5-2.5-.5-.7-1-1.8-1-3.5-.8-.9-1.7-2.1-2.5-3.7-.1-.1-1.3-2.6-1.6-5-.7-5.4 3.4-10.3 4.1-11.1.3-.6.8-1.5 1.6-2.3 3.1-3.2 7.5-3.2 8.7-3.2 2.7 0 4.8.8 6.2 1.5 2 .1 4.1.3 6.3.5 3.4.3 6.7.8 9.7 1.3 1.4-.3 3.7-.6 6.4 0 4.6 1 7.4 3.9 8.4 5 1.3.5 5.7 3 6.4 3.5 1.5.4 3.1.9 4.8 1.6 3 1.2 5.4 2.7 7.2 4.1 1 .3 2 .5 3 .8 0-1.2-.1-3 0-5.2.1-2.4.1-3.6.3-4.5.9-3.6 3.2-5.8 4-6.5 1.1-1 2.2-1.5 2.9-1.9.3-.5.8-1.2 1.6-1.8 2-1.4 4.4-.9 5.2-.8 3.4.7 5.2 3.4 5.6 4.1.7 1 .7 1.4 1.9 4.5.8 2 1.5 3.7 2 4.7 2.2 3.4 3.6 6.4 4.5 8.7 1.1 2.9 2.9 10.7 3.9 15.6 1.9 8.9 4.4 19.4 4.1 27.7-.3 6.9-1.4 12.5-3.4 22.1-.6 2.9-1.3 6-1.6 10.4-.3 3.8-.1 6.6-.1 8 .2 6.5-.3 12.3-1.4 23.8-1 10.5-1.7 12.4-2 20.6-.2 4.9.1 4.3-.1 8.6-.4 10.3-1.8 12.4-2.4 21.9-.5 6.9-.2 12.2 0 15.5.2 3.2.5 9.5 1.9 16.1 1.2 6.1 3.9 15.5 10.5 26.3-35.9-.4-71.9-.4-107.9-.4z"/><g class="st3"><path class="st4" d="M323.9 216.5c1.1-.5 2.1-1.1 3-1.8.8-.7 1.4-1.7 2-2.7 1.1-2 1.6-4.3 2.4-6.6 0 1.2-.1 2.4-.3 3.6-.2 1.2-.6 2.4-1.2 3.5s-1.3 2.2-2.4 2.9c-1.1.6-2.3 1-3.5 1.1z"/></g><path class="st2" d="M373.1 380c-1.6-2.6-4.3-6.8-8-11.5-4.5-5.6-6.4-6.9-11.1-12.5-4.5-5.4-7.4-9.9-10.4-14.6-5.7-8.9-4.9-9.3-10.4-17.5-2.4-3.6-3.9-5.6-8.7-12.7-3.5-5.3-4.9-7.6-6.1-11-.4-1.2-1.1-3.4-1.9-10.2-.6-5.3-.2-10.3-1.1-15.5-.3-1.7-.6-3-.8-3.7-.6-2.2-1.1-3.3-1.7-4.9-.5-1.4-2-5.3-2.5-10.1-.2-1.4-.3-3.2-.2-5.2-.6-1.1-1.2-2.2-1.7-3.3-.3-1.1-.5-2.4-.6-3.9-.1-2.7.3-5 .8-6.5 1.8-3 3.5-6.1 5.3-9.1 2.4-3.7 4.8-7.3 7.2-11 .2-.9.5-2.3.8-4 1-5.6 1.2-7.2 1.9-10 .9-3.4 1.2-5.1 2.2-6.6 1.6-2.3 3.8-3.5 5.3-4m45.7 18.3c.3-.1.6-.1.9-.2.3-1.3.6-2.7.9-4-.2-5.1-.2-10.5.2-16 0-.7.1-1.3.2-2-.4-1.3-.7-2.4-.9-3.2-1-3.9-.8-9-.9-9.9-.2-1.1-.9-1.6-1.5-2.5-.5-.7-1-1.8-1-3.5-.8-.9-1.7-2.1-2.5-3.7-.1-.1-1.3-2.6-1.6-5-.7-5.4 3.4-10.3 4.1-11.1.3-.6.8-1.5 1.6-2.3 3.1-3.2 7.5-3.2 8.7-3.2 2.7 0 4.8.8 6.2 1.5 2 .1 4.1.3 6.3.5 3.4.3 6.7.8 9.7 1.3 1.4-.3 3.7-.6 6.4 0 4.6 1 7.4 3.9 8.4 5 1.3.5 5.7 3 6.4 3.5 1.5.4 3.1.9 4.8 1.6 3 1.2 5.4 2.7 7.2 4.1 1 .3 2 .5 3 .8 0-1.2-.1-3 0-5.2.1-2.4.1-3.6.3-4.5.9-3.6 3.2-5.8 4-6.5 1.1-1 2.2-1.5 2.9-1.9.3-.5.8-1.2 1.6-1.8 2-1.4 4.4-.9 5.2-.8 3.4.7 5.2 3.4 5.6 4.1.7 1 .7 1.4 1.9 4.5.8 2 1.5 3.7 2 4.7 2.2 3.4 3.6 6.4 4.5 8.7 1.1 2.9 2.9 10.7 3.9 15.6 1.9 8.9 4.4 19.4 4.1 27.7-.3 6.9-1.4 12.5-3.4 22.1-.6 2.9-1.3 6-1.6 10.4-.3 3.8-.1 6.6-.1 8 .2 6.5-.3 12.3-1.4 23.8-1 10.5-1.7 12.4-2 20.6-.2 4.9.1 4.3-.1 8.6-.4 10.3-1.8 12.4-2.4 21.9-.5 6.9-.2 12.2 0 15.5.2 3.2.5 9.5 1.9 16.1 1.2 6.1 3.9 15.5 10.5 26.3"/><path class="st2" d="M336 278.1c1.5-2.9 3.5-7.3 4.5-12.9.7-3.7.7-6.6.8-10.2 0-4.1-.1-9.7-1.1-16.3-.3-4.6-.5-9.2-.8-13.8"/><path d="M339.5 224.9c-1.2-4.1-2.5-8.4-3.6-12.9-1.5-5.7-3.4-14.6-4.5-19.9-.2-2-.4-5.2-.7-9.1-1.1-14.7-.8-14.3-1.5-22.1 0-.1-.7-7.7-1.3-17.5-.2-3-.3-5.2.2-8.2.5-2.5 1.3-7.2 5.1-11.3 1.5-1.7 3.9-4.2 7.8-4.8 3.7-.5 6.7 1.1 7.8 1.8 1.4.9 2.2 1.8 3 2.7.6.6 2.8 3.1 4.5 7.6 1.1 2.8 1.4 5 1.7 7.3.7 4.6.2 5.8.9 12.4.2 2.1.3 3.2.6 4.7.7 3.9 1.8 6.7 3.4 10.5 2.4 5.8 3.3 7.9 4.1 10 2.2 5.4 3.2 9.3 5.2 16.7 1.3 4.8 2.7 10.9 4 18.1.3-.1.5-.1.8-.2" style="display:inline;fill:none;stroke:#2969d0;stroke-width:3;stroke-linecap:round;stroke-miterlimit:10"/><path class="st2" d="M407.3 147.2c1.2.5 3.5 1.8 5.2 3.1 1.2.9 3 2.3 4.6 4.7 2 3.1 2.4 6.3 2.7 8.7.2 1.5.2 2.7.2 3.6l.3 41.8c.1.8.3 1.8.7 2.8.9 2.8 2.3 5 3.5 6.4m28.3 11.9c-.5-.5-1-1.2-1.5-2.2-.9-2-.7-4-.6-4.8 0 0 2.4-20.9 3.1-31.6.2-2.5.1-5.5 0-11.5-.1-3.5-.2-6-1.2-9-.6-1.6-1.3-3.6-3.2-5.6-1.9-2-4.3-2.8-5.6-3.2"/><g class="st3"><path class="st4" d="M334.1 126.9c.3 1.7.6 3.4 1.1 4.9.3.7.9 1.1 1.7 1.3.8.1 1.6.1 2.5.1 3.4-.1 6.8-.4 10.2-.6h-.1c.5-.1.8-.6 1-1.2.2-.6.3-1.2.3-1.8v-1.9c-.1-.6-.1-1.3-.2-1.9.2.6.4 1.3.5 1.9.1.6.2 1.3.3 2 0 .7 0 1.3-.2 2s-.5 1.4-1.3 1.8h-.1c-1.7.2-3.4.4-5.1.5-1.7.1-3.4.2-5.1.2-.9 0-1.7 0-2.6-.3-.4-.1-.9-.3-1.3-.6s-.7-.8-.8-1.2c-.2-.9-.3-1.7-.4-2.6-.4-.9-.4-1.7-.4-2.6z"/></g></g><g id="neutral-left" class="st0" style="display:block"><path class="st1" d="M231.1 381.6c1.3-1.6 6.9-7.4 13-13.5s18.6-27.6 22.3-31.9c3.7-4.3 13.5-14.9 15.9-20.2 2.4-5.3-.2-22.3 0-27.6s2.7-30.6 1-37.2c-1.7-6.6-4.4-9.3-6.6-13.9s-2.6-6-4.6-7.4-.8-13.4-.4-15.1 1.8-9.4 1.8-12.1 0-10.4 2.1-16.1.7-22.8-2.9-28.2-6.5-6.7-10.8-7-9 3.9-10.2 6.5-2.8 5-4.6 26.2c-2.5 5.7-7.3 10.7-9.4 17.6s-7.7 24.3-9 31.5-8.7 17-5.7 11.7c3-5.2 2.7-18 8.3-35s4.9-15.9 4.9-16.8c0-.9 3.3-4 4.4-11.4 2.1-3.4 6.2-20.3-1.4-25.2-.1-3.5-2.4-5.9-8.7-6.9-6.3-1-8.6.6-10 4.5-2.3.6-5.8 9.1-6.4 16.1-1.7 1-9.9 9.3-11.5 12.4s-6.1 18.7-7 22.7c-.9 4-6.7 29-8.3 31.3-1.6 2.3-2.3 3.9-1-1 1.3-4.9 7.3-34.4 9.9-39.7s2.9-9.7 10.1-20 6.2-15.3 4.9-18.6c-1.3-3.3-2.3-6.1-8.4-7.1-6.1-1-9.6 4.1-9.6 4.1s-3.7 1.1-12.6 10.7c-1.9-3.7-4.5-6.5-4.5-6.5s-1.9-4-7.3-4.8c-5.4-.8-7.6 5-7.9 7.1-1.8 0-5.5 8.3-6.8 16.6-1.3 8.4-3.4 20.4-5.6 27.5-2.2 7.1-3.6 13-4.1 18.2s-3.3 12.5-3.8 19.3c-.5 6.8-8.4 26.3-8.8 32.5-.5 6.2-.2 27.4-.8 32.3-.6 4.9-1.5 21.4 0 30.9 1.5 9.4.8 18.1-.8 22.8-1.6 4.7-7.6 20.3-7.6 20.3h108.5z"/><path class="st2" d="M231.1 381.6c1.3-1.6 6.9-7.4 13-13.5s18.6-27.6 22.3-31.9c3.7-4.3 13.5-14.9 15.9-20.2 2.4-5.3-.2-22.3 0-27.6s2.7-30.6 1-37.2c-1.7-6.6-4.4-9.3-6.6-13.9s-2.6-6-4.6-7.4-.8-13.4-.4-15.1 1.8-9.4 1.8-12.1 0-10.4 2.1-16.1.7-22.8-2.9-28.2-6.5-6.7-10.8-7-9 3.9-10.2 6.5-2.8 5-4.6 26.2c-2.5 5.7-7.3 10.7-9.4 17.6s-7.7 24.3-9 31.5-8.7 17-5.7 11.7c3-5.2 2.7-18 8.3-35s4.9-15.9 4.9-16.8c0-.9 3.3-4 4.4-11.4 2.1-3.4 6.2-20.3-1.4-25.2-.1-3.5-2.4-5.9-8.7-6.9-6.3-1-8.6.6-10 4.5-2.3.6-5.8 9.1-6.4 16.1-1.7 1-9.9 9.3-11.5 12.4s-6.1 18.7-7 22.7c-.9 4-6.7 29-8.3 31.3-1.6 2.3-2.3 3.9-1-1 1.3-4.9 7.3-34.4 9.9-39.7s2.9-9.7 10.1-20 6.2-15.3 4.9-18.6c-1.3-3.3-2.3-6.1-8.4-7.1-6.1-1-9.6 4.1-9.6 4.1s-3.7 1.1-12.6 10.7c-1.9-3.7-4.5-6.5-4.5-6.5s-1.9-4-7.3-4.8c-5.4-.8-7.6 5-7.9 7.1-1.8 0-5.5 8.3-6.8 16.6-1.3 8.4-3.4 20.4-5.6 27.5-2.2 7.1-3.6 13-4.1 18.2s-3.3 12.5-3.8 19.3c-.5 6.8-8.4 26.3-8.8 32.5-.5 6.2-.2 27.4-.8 32.3-.6 4.9-1.5 21.4 0 30.9 1.5 9.4.8 18.1-.8 22.8-1.6 4.7-7.6 20.3-7.6 20.3"/><path class="st2" d="M151.6 239.8c2.8-3 5.1-7.6 5.3-12.4.2-4.8-.3-29.7 6-39.2 6.3-9.5 17.8-22.8 17.8-22.8m82.6 132.7c-1.4-2.6-3.1-4.3-3.1-6.3s1.1-24.9 2.3-33.1c1.1-8.2 6.7-31.9 8.6-36.8"/></g></svg>