<svg xmlns="http://www.w3.org/2000/svg" viewBox="0 0 716.3 380" style="enable-background:new 0 0 716.3 380" xml:space="preserve"><style>.st0{display:none}.st1{opacity:.33;fill:#e0e1e2}.st1,.st2,.st3{display:inline}.st2{fill:none;stroke:#808285;stroke-width:2;stroke-miterlimit:10}.st3{opacity:.5}.st4{fill:#aeb0b2}</style><g id="semicolon" class="st0" style="display:block"><path class="st1" d="M381.9 380c-3.6-5.5-6.6-8.7-8.6-10.7-.9-.9-4.1-4-7.2-6.7-3.8-3.3-6.3-6.2-21.6-27.1-3.3-4.5-5.1-7.9-9-12.3-2-2.3-3.8-4.1-5-5.2-.6-.8-1.4-1.9-2.1-3.5-1.4-3.1-1.4-5.9-1.4-7.8-.1-7-.1-10.6-.2-11.5-.6-8-3.4-15.4-4-16.8-.6-1.5-1.3-3.3-2-6-.8-3.3-.9-6.2-.9-8-1.2-2.9-1.9-5.4-2.4-7.4-.4-2-.9-4.5-.8-7.7 0-.9.3-2.8.9-6.6 1-6.3 1.1-7.1 1.2-8.4.1-1.7.1-4.2-.3-7.3-1.2-3-2.3-6.4-3.3-10.1-.7-2.7-1.3-5.4-1.8-7.8.5-.1 1.1-.1 1.6-.2.4-.4 1-1 1.9-1.5 3.3-1.9 7.1-.8 9.2-.2 6.6 1.9 10.3 6.9 10.9 7.7 2.8 3.9 3.5 7.9 4 10.4.7 3.8 2.3 14 2.6 16.2.9 5.8 2.3 13.5 2.3 13.5-.7-13.8-3.7-26.8-5.1-41.1-.1-4.4-.1-13.1.1-21 0-1.6.1-5.2.4-12.3.4-10.9.5-14.2 1.5-18.9 1.8-8.2 4-10.4 5-11.2 3.7-3.2 8.1-3 8.7-3 4.6.2 7.6 2.9 8.6 3.9 2.5 2.4 3.4 5.1 4.2 7.7 1.4 4.5 1.2 8 .9 14-.2 3.1-.5 8.7-.9 16.4.6 2 1.5 4.9 2.6 8.5 2 7 3.7 13.1 4.9 20.6.9 5.8.5 5.9 1.6 14.8.8 6.6 1.7 12 2.4 15.4.4.9.8 1.7 1.2 2.6.7-.5 1.4-.9 2.2-1.4-1.6-8.1-2.8-15-3.8-20.2-1.7-9.7-2.8-15.6-3.9-23.8-.5-4.1-.6-4.6-1.4-11.6-1.1-9.3-1.6-11.7-2.7-20.9-2.8-22.8-.5-11.1-1.2-16.1-.1-.7-.3-2 0-3.8.9-4.8 5.1-7.5 5.4-7.7 4.5-2.9 10.1-2 13.8.1.8.4 4.5 2.6 6 6.7.2.4.5 2.1 1.1 5.4.9 4.7.9 4.9 1.1 5.8.6 2.5 1.4 4.5 3 8.2 2.9 6.7 3.8 7.3 4.8 11.2.5 1.8.3 1.8 1 5.5.1.7 1.8 8.6 2.1 8.6.2 0-.1-3.7-2-18.1-2.3-3.9-3.9-7.3-4.9-9.7-2.3-5.3-2.5-7.1-2.6-8-.2-4 1.4-7.3 2.5-9.1.2-.7.6-1.8 1.5-2.8 2.7-3.1 7.4-2.5 8.1-2.4 3.1.4 5.1 2.1 7.4 4.1 1.9 1.6 4.9 4.7 7.3 9.6l3 6 .1-.1c-.2-1.4-1-5.3-.4-7.4.2-.9 1.5-5.3 5.8-7.4 4.9-2.3 10.4.2 13.1 3 .4.4.9 1.2 1.9 2.6 1.9 2.9 3.4 5.7 4.8 8.6 1.2 2.5 2.8 6.2 4.5 11.7 2.1 6.6 1.4 6.2 3.8 14.5 2.1 7.4 3.3 9.7 4.2 15.6.4 2.6.6 4.6.9 6.9.5 5.1.5 7.7.7 14.7.2 7.5.3 11.2.7 14.1.7 6.1 1.8 10.1 2.5 12.8 1.4 6 2.7 15.1 1.8 27.8.2 2.3.5 5.7.8 9.9.2 3.2.8 13.6.8 30.4 0 12.3-.3 15.8.4 24.2.6 7.3 1.3 10.7 1.6 12.1 1.9 8.5 5.1 15 7.6 19.4-34.6-.3-69-.4-103.5-.4z"/><path class="st2" d="M469.5 238.3c.1 2.2.2 3.9.4 5.3.7 6.1 1.8 10.1 2.5 12.8 1.4 6 2.7 15.1 1.8 27.8.2 2.3.5 5.7.8 9.9.2 3.2.8 13.6.8 30.4 0 12.3-.3 15.8.4 24.2.6 7.3 1.3 10.7 1.6 12.1 1.9 8.5 5.1 15 7.6 19.4"/><path d="M430 166c-.2-1.4-1-4.6-.4-6.7.2-.9 1.5-5.3 5.8-7.4 4.9-2.3 10.4.2 13.1 3 .4.4.9 1.2 1.9 2.6 1.9 2.9 3.4 5.7 4.8 8.6 1.2 2.5 2.8 6.2 4.5 11.7 2.1 6.6 1.4 6.2 3.8 14.5 2.1 7.4 3.3 9.7 4.2 15.6.4 2.6.6 4.6.9 6.9.5 5.1.5 7.7.7 14.7.1 3.7.2 6.5.3 8.8" style="display:inline;fill:none;stroke:#2969d0;stroke-width:3;stroke-linecap:round;stroke-miterlimit:10"/><path class="st2" d="M345 310.8c-.2-2.3-.2-5.8.9-9.8.3-1.1.7-2.1 1.1-3.1 1-2.4 1.2-4.9.9-7.4-.1-.5-.1-1.1-.2-1.7-.6-11.1-.6-27.8-1.8-34.8m72.6-13.7c-3.4-6.9-4.5-12.4-5-16.2-.2-1.7-.5-5.6-.6-7.4-.5-6.6-.5-7.7-.8-10.1-.4-2.3-1.1-5.7-2.6-9.8m35.8 39.6c.4-8.5.1-15.7-.4-21.1-.4-5.2-.8-10.6-2.5-17.7-.4-1.7-1.5-6.2-3.5-12-1.6-4.6-5.6-12.4-9.2-18.9"/><g class="st3"><path class="st4" d="M321.4 227c1.2-1.1 2.1-2.5 1.8-4.1-.1-1.6-.3-3.2-.6-4.8-.1-.8-.2-1.6-.4-2.4-.1-.8-.3-1.6-.6-2.3-.2-.7-.7-1.4-1.2-2-.5-.6-1.1-1.1-1.8-1.6 1.5.7 2.9 1.7 3.7 3.3.7 1.6 1 3.2 1.3 4.8.2 1.6.4 3.3.4 4.9 0 .4 0 .8-.1 1.3s-.3.8-.6 1.2c-.6.7-1.2 1.3-1.9 1.7z"/></g><g class="st3"><path class="st4" d="M434.9 156.8c0 1.1.8 2 1.4 2.9.6.9 1.4 1.7 2 2.6.7.9 1.4 1.7 2.2 2.1.9.5 1.9.6 3 .6s2.1-.1 3.2-.3c.5-.1 1.1-.2 1.6-.4.5-.1 1-.3 1.4-.5.2-.1.2-.1.2-.4 0-.2-.1-.5-.2-.7-.2-.5-.5-1-.7-1.5-.5-1-.9-2-1.4-3 .7.9 1.2 1.9 1.8 2.8.3.5.6.9.9 1.4.1.3.3.5.3.9 0 .2 0 .4-.1.6-.1.2-.3.4-.4.4-1.1.7-2.1.9-3.3 1.2-1.1.2-2.2.4-3.4.4-1.1 0-2.4-.1-3.4-.8-1.1-.6-1.8-1.6-2.5-2.5-.6-.9-1.3-1.8-1.8-2.8-.3-.5-.5-1-.7-1.6-.1-.2-.3-.8-.1-1.4z"/></g><path class="st2" d="M381.9 380c-3.6-5.5-6.6-8.7-8.6-10.7-.9-.9-4.1-4-7.2-6.7-3.8-3.3-6.3-6.2-21.6-27.1-3.3-4.5-5.1-7.9-9-12.3-2-2.3-3.8-4.1-5-5.2-.6-.8-1.4-1.9-2.1-3.5-1.4-3.1-1.4-5.9-1.4-7.8-.1-7-.1-10.6-.2-11.5-.6-8-3.4-15.4-4-16.8-.6-1.5-1.3-3.3-2-6-.8-3.3-.9-6.2-.9-8-1.2-2.9-1.9-5.4-2.4-7.4-.4-2-.9-4.5-.8-7.7 0-.9.3-2.8.9-6.6 1-6.3 1.1-7.1 1.2-8.4.1-1.7.1-4.2-.3-7.3-1.2-3-2.3-6.4-3.3-10.1-.7-2.7-1.3-5.4-1.8-7.8.5-.1 1.1-.1 1.6-.2.4-.4 1-1 1.9-1.5 3.3-1.9 7.1-.8 9.2-.2 6.6 1.9 10.3 6.9 10.9 7.7 2.8 3.9 3.5 7.9 4 10.4.7 3.8 2.3 14 2.6 16.2.9 5.8 2.3 13.5 2.3 13.5-.7-13.8-3.7-26.8-5.1-41.1-.1-4.4-.1-13.1.1-21 0-1.6.1-5.2.4-12.3.4-10.9.5-14.2 1.5-18.9 1.8-8.2 4-10.4 5-11.2 3.7-3.2 8.1-3 8.7-3 4.6.2 7.6 2.9 8.6 3.9 2.5 2.4 3.4 5.1 4.2 7.7 1.4 4.5 1.2 8 .9 14-.2 3.1-.5 8.7-.9 16.4.6 2 1.5 4.9 2.6 8.5 2 7 3.7 13.1 4.9 20.6.9 5.8.5 5.9 1.6 14.8.8 6.6 1.7 12 2.4 15.4.4.9.8 1.7 1.2 2.6.7-.5 1.4-.9 2.2-1.4-1.6-8.1-2.8-15-3.8-20.2-1.7-9.7-2.8-15.6-3.9-23.8-.5-4.1-.6-4.6-1.4-11.6-1.1-9.3-1.6-11.7-2.7-20.9-2.8-22.8-.5-11.1-1.2-16.1-.1-.7-.3-2 0-3.8.9-4.8 5.1-7.5 5.4-7.7 4.5-2.9 10.1-2 13.8.1.8.4 4.5 2.6 6 6.7.2.4.5 2.1 1.1 5.4.9 4.7.9 4.9 1.1 5.8.6 2.5 1.4 4.5 3 8.2 2.9 6.7 3.8 7.3 4.8 11.2.5 1.8.3 1.8 1 5.5.1.7 1.8 8.6 2.1 8.6.2 0-.1-3.7-2-18.1-2.3-3.9-3.9-7.3-4.9-9.7-2.3-5.3-2.5-7.1-2.6-8-.2-4 1.4-7.3 2.5-9.1.2-.7.6-1.8 1.5-2.8 2.7-3.1 7.4-2.5 8.1-2.4 3.1.4 5.1 2.1 7.4 4.1 1.9 1.6 4.9 4.7 7.3 9.6l3 6 .1-.1"/></g><g id="neutral-left" class="st0" style="display:block"><path class="st1" d="M231.1 381.6c1.3-1.6 6.9-7.4 13-13.5s18.6-27.6 22.3-31.9c3.7-4.3 13.5-14.9 15.9-20.2 2.4-5.3-.2-22.3 0-27.6s2.7-30.6 1-37.2c-1.7-6.6-4.4-9.3-6.6-13.9s-2.6-6-4.6-7.4-.8-13.4-.4-15.1 1.8-9.4 1.8-12.1 0-10.4 2.1-16.1.7-22.8-2.9-28.2-6.5-6.7-10.8-7-9 3.9-10.2 6.5-2.8 5-4.6 26.2c-2.5 5.7-7.3 10.7-9.4 17.6s-7.7 24.3-9 31.5-8.7 17-5.7 11.7c3-5.2 2.7-18 8.3-35s4.9-15.9 4.9-16.8c0-.9 3.3-4 4.4-11.4 2.1-3.4 6.2-20.3-1.4-25.2-.1-3.5-2.4-5.9-8.7-6.9-6.3-1-8.6.6-10 4.5-2.3.6-5.8 9.1-6.4 16.1-1.7 1-9.9 9.3-11.5 12.4s-6.1 18.7-7 22.7c-.9 4-6.7 29-8.3 31.3-1.6 2.3-2.3 3.9-1-1 1.3-4.9 7.3-34.4 9.9-39.7s2.9-9.7 10.1-20 6.2-15.3 4.9-18.6c-1.3-3.3-2.3-6.1-8.4-7.1-6.1-1-9.6 4.1-9.6 4.1s-3.7 1.1-12.6 10.7c-1.9-3.7-4.5-6.5-4.5-6.5s-1.9-4-7.3-4.8c-5.4-.8-7.6 5-7.9 7.1-1.8 0-5.5 8.3-6.8 16.6-1.3 8.4-3.4 20.4-5.6 27.5-2.2 7.1-3.6 13-4.1 18.2s-3.3 12.5-3.8 19.3c-.5 6.8-8.4 26.3-8.8 32.5-.5 6.2-.2 27.4-.8 32.3-.6 4.9-1.5 21.4 0 30.9 1.5 9.4.8 18.1-.8 22.8-1.6 4.7-7.6 20.3-7.6 20.3h108.5z"/><path class="st2" d="M231.1 381.6c1.3-1.6 6.9-7.4 13-13.5s18.6-27.6 22.3-31.9c3.7-4.3 13.5-14.9 15.9-20.2 2.4-5.3-.2-22.3 0-27.6s2.7-30.6 1-37.2c-1.7-6.6-4.4-9.3-6.6-13.9s-2.6-6-4.6-7.4-.8-13.4-.4-15.1 1.8-9.4 1.8-12.1 0-10.4 2.1-16.1.7-22.8-2.9-28.2-6.5-6.7-10.8-7-9 3.9-10.2 6.5-2.8 5-4.6 26.2c-2.5 5.7-7.3 10.7-9.4 17.6s-7.7 24.3-9 31.5-8.7 17-5.7 11.7c3-5.2 2.7-18 8.3-35s4.9-15.9 4.9-16.8c0-.9 3.3-4 4.4-11.4 2.1-3.4 6.2-20.3-1.4-25.2-.1-3.5-2.4-5.9-8.7-6.9-6.3-1-8.6.6-10 4.5-2.3.6-5.8 9.1-6.4 16.1-1.7 1-9.9 9.3-11.5 12.4s-6.1 18.7-7 22.7c-.9 4-6.7 29-8.3 31.3-1.6 2.3-2.3 3.9-1-1 1.3-4.9 7.3-34.4 9.9-39.7s2.9-9.7 10.1-20 6.2-15.3 4.9-18.6c-1.3-3.3-2.3-6.1-8.4-7.1-6.1-1-9.6 4.1-9.6 4.1s-3.7 1.1-12.6 10.7c-1.9-3.7-4.5-6.5-4.5-6.5s-1.9-4-7.3-4.8c-5.4-.8-7.6 5-7.9 7.1-1.8 0-5.5 8.3-6.8 16.6-1.3 8.4-3.4 20.4-5.6 27.5-2.2 7.1-3.6 13-4.1 18.2s-3.3 12.5-3.8 19.3c-.5 6.8-8.4 26.3-8.8 32.5-.5 6.2-.2 27.4-.8 32.3-.6 4.9-1.5 21.4 0 30.9 1.5 9.4.8 18.1-.8 22.8-1.6 4.7-7.6 20.3-7.6 20.3"/><path class="st2" d="M151.6 239.8c2.8-3 5.1-7.6 5.3-12.4.2-4.8-.3-29.7 6-39.2 6.3-9.5 17.8-22.8 17.8-22.8m82.6 132.7c-1.4-2.6-3.1-4.3-3.1-6.3s1.1-24.9 2.3-33.1c1.1-8.2 6.7-31.9 8.6-36.8"/></g></svg>