<svg xmlns="http://www.w3.org/2000/svg" viewBox="0 0 716.3 380" style="enable-background:new 0 0 716.3 380" xml:space="preserve" class="theme-bone"><style>.st0{display:none}.st1{opacity:.33;fill:#e0e1e2}.st1,.st2,.st3{display:inline}.st2{fill:none;stroke:#808285;stroke-width:2;stroke-miterlimit:10}.st3{opacity:.5}.st4{fill:#aeb0b2}</style><g id="n" class="st0" style="display:block"><path class="st1" d="M373.7 380c-7-5.4-12.5-10-16.3-13.2-7-6-7.5-7-12.1-10.4-3.9-2.9-7.7-6-11.6-8.9-2.6-1.9-3.7-2.8-4.8-4.5-1.9-2.7-2-4.9-3.2-10.3 0 0-1.1-5.3-2.8-10.8-1.7-5.8-3.9-10.3-4.8-12.1-1.9-3.8-4-7.2-5.9-12.3-.2-.5-.4-1.1-.8-2-1.7-4.4-3-6.8-3.6-8.3-.4-1-1.1-2.8-1.4-10.6-.2-4.2-.3-9.8.1-16.7-1.5-2.4-3-5.4-4.5-8.9-1.6-3.9-2.5-7.4-3.2-10.4 1-.8 2.7-2 5-2.8 4.7-1.6 8.7-.5 9.9-.1.8.2 3.7 1.2 8.7 5.7 2.9 2.7 7.1 6.6 10.4 13.4 1.3 2.6 4.2 8.8 4.1 16.9 0 1-.1 1.8-.1 2.4 1.3 2 2.6 4 3.9 6.2 1.7 2.8 3.2 5.6 4.6 8.3-5.3-15.1-10.7-30.3-16-45.4-.6-2-1.4-4.8-2-8.3-.8-4.5-.9-7.9-.9-10.4-.2-11.7-.3-17.5.4-22 .7-5 4.6-19.1 6.2-21 .7-.7 1.7-1.7 3.2-2.5.9-.5 4-2.3 8.1-1.9 5.7.5 10.1 5 11.2 8.4.2.5.6 2 .8 3.8.2 1.8.1 3.1.1 3.7-.3 7.9-.5 12-.4 14 .2 4.6 1.1 8.1 1.5 9.9.9 3.7 1.9 5.9 3.4 9.5 3.5 8.7 2.8 8.1 7 18.8 1.2 3.2 3.1 7.7 5.5 13.1l8.4-1.5c-.3-8.5-1.6-15.2-2.8-19.7-1.1-4.2-2.1-6.7-3.6-13.1-.9-4-1.4-7.2-2.2-11.6-1.1-6.3-1.7-11.1-1.9-12.9-1.1-8.4-.7-8-1.5-14-1.1-7.5-1.7-8.5-2.4-15.3-.6-5.7-.5-8.7.1-11.8.6-2.7 1.2-5.7 3.7-8.3.7-.8 2.9-2.9 6.4-3.6 5.2-.9 9.2 2.3 10.1 3.1 2.9 2.3 4 5.2 5.1 8 .3.8 1.1 3 1.9 8.8.4 2.9.8 6.9.9 11.7 1 2 2.4 4.9 3.9 8.4 3.4 7.9 5.3 14.1 7.3 20.6 1 3.4 3.3 11.3 5.5 21.6 1.2 5.5 2 10.2 2.5 13.9l1.2-.6c-.7-5.1-1.4-10.4-2-15.7-.6-5.3-.8-10.7-2-19-.2-1.5-.4-2.7-.5-3.5-1.3-3.2-2.6-6.7-3.9-10.5-1.2-3.8-2.2-7.5-3.1-10.9-2.1-4.2-3.8-7.9-5-10.9-2.5-5.9-2.9-7.5-3.1-9-.3-2.2-.9-7.5 2.4-11.7.6-.8 2.4-3 5.3-3.7 3.9-.9 7.2 1.4 9.7 3.2 4.8 3.3 7.1 7.5 9 10.9 1.3 2.4 3 6 4.1 10.7 1 1.3 2 2.8 3 4.3 1.3 2 2.4 3.9 3.3 5.7-1.3-4-1.8-7.4-1.9-9.7-.2-2.5-.4-4.8.3-7.7.4-2 1-4.4 2.9-6.6.8-.9 2.9-3.3 6.3-3.6 4.1-.4 7.1 2.4 7.5 2.8 1.3 1.9 3 4.6 4.6 8.2 1 2.4 1.6 4.2 2.4 6.8.9 2.8 1.9 6.7 2.9 11.5 2.3 9.3 4 17.1 5.2 22.9 2.2 10.6 3.3 15.9 3.6 20.1.2 2.1 1.1 13.2 1.8 19.9.1.8.3 2.8.8 5.3.6 3 1.2 5.1 1.5 6 0 0 6.4 34.6 7.4 39.3 1.2 5.4 2.9 13.3 4.1 23.3 1.2 10 .8 13 2.7 21.6 1 4.6 2 7.7 2.2 8.5.7 2.1 2.8 8.7 7.2 16.5 1.6 2.9 3.8 6.5 6.7 10.5-42.5.2-85.1.4-127.7.5z"/><path class="st2" d="m376.9 259.6 5.1-.9c-.3-8.5-1.6-15.2-2.8-19.7-1.1-4.2-2.1-6.7-3.6-13.1-.9-4-1.4-7.2-2.2-11.6-1.1-6.3-1.7-11.1-1.9-12.9-1.1-8.4-.7-8-1.5-14-1.1-7.5-1.7-8.5-2.4-15.3-.6-5.7-.5-8.7.1-11.8.6-2.7 1.2-5.7 3.7-8.3.7-.8 2.9-2.9 6.4-3.6 5.2-.9 9.2 2.3 10.1 3.1 2.9 2.3 4 5.2 5.1 8 .3.8 1.1 3 1.9 8.8.4 2.9.8 6.9.9 11.7 1 2 2.4 4.9 3.9 8.4 3.4 7.9 5.3 14.1 7.3 20.6 1 3.4 3.3 11.3 5.5 21.6 1.2 5.5 2 10.2 2.5 13.9l1.2-.6c-.7-5.1-1.4-10.4-2-15.7-.6-5.3-.8-10.7-2-19-.2-1.5-.4-2.7-.5-3.5-1.3-3.2-2.6-6.7-3.9-10.5-1.2-3.8-2.2-7.5-3.1-10.9-2.1-4.2-3.8-7.9-5-10.9-2.5-5.9-2.9-7.5-3.1-9-.3-2.2-.9-7.5 2.4-11.7.6-.8 2.4-3 5.3-3.7 3.9-.9 7.2 1.4 9.7 3.2 4.8 3.3 7.1 7.5 9 10.9 1.3 2.4 3 6 4.1 10.7 1 1.3 2 2.8 3 4.3 1.3 2 2.4 3.9 3.3 5.7-1.3-4-1.8-7.4-1.9-9.7-.2-2.5-.4-4.8.3-7.7.4-2 1-4.4 2.9-6.6.8-.9 2.9-3.3 6.3-3.6 4.1-.4 7.1 2.4 7.5 2.8 1.3 1.9 3 4.6 4.6 8.2 1 2.4 1.6 4.2 2.4 6.8.9 2.8 1.9 6.7 2.9 11.5 2.3 9.3 4 17.1 5.2 22.9 2.2 10.6 3.3 15.9 3.6 20.1.2 2.1 1.1 13.2 1.8 19.9.1.8.3 2.8.8 5.3.6 3 1.2 5.1 1.5 6 0 0 6.4 34.6 7.4 39.3 1.2 5.4 2.9 13.3 4.1 23.3 1.2 10 .8 13 2.7 21.6 1 4.6 2 7.7 2.2 8.5.7 2.1 2.8 8.7 7.2 16.5 1.6 2.9 3.8 6.5 6.7 10.5"/><path d="M336.5 263.6c-3-8.5-4.1-10-7.1-18.5-.6-2-1.4-4.8-2-8.3-.8-4.5-.9-7.9-.9-10.4-.2-11.7-.3-17.5.4-22 .7-5 2.3-12.4 6.2-21 .7-.7 1.7-1.7 3.2-2.5.9-.5 4-2.3 8.1-1.9 5.7.5 10.1 5 11.2 8.4.2.5.6 2 .8 3.8.2 1.8.1 3.1.1 3.7-.3 7.9-.5 12-.4 14 .2 4.6 1.1 8.1 1.5 9.9.9 3.7 1.9 5.9 3.4 9.5 3.5 8.7 2.8 8.1 7 18.8 1.2 3.2 3.1 7.7 5.5 13.1l3.3-.6" style="display:inline;fill:none;stroke:#2969d0;stroke-width:3;stroke-linecap:round;stroke-miterlimit:10"/><path class="st2" d="M447 238.9c-.4-7.8-1-14.4-1.6-19.5-1.3-10.8-2.5-14.7-3.6-17.6-.8-2.1-1.3-3-4-8.8-2.8-6-5-10.9-6.4-14.1"/><g class="st3"><path class="st4" d="M308.4 258.2c.4-.1.5-.6.6-1 .1-.4.1-.8.1-1.2v-.3l-.1-.3-.2-.6-.4-1.2c-.6-1.5-1-3.1-1.5-4.7s-.8-3.2-1.5-4.6c-.3-.7-.8-1.3-1.4-1.8-.6-.5-1.3-1-2.1-1 .8-.1 1.7.3 2.4.7.7.5 1.4 1.1 1.8 1.8.5.7.8 1.5 1 2.3.3.8.5 1.6.7 2.3.5 1.6.9 3.2 1.2 4.8.1.4.2.8.2 1.2 0 .2.1.4.1.6v.6c0 .4-.1.8-.2 1.2 0 .6-.2 1.1-.7 1.2z"/></g><g class="st3"><path class="st4" d="M334.2 187.3c-.2.9-.3 1.8-.1 2.6.1.1.2.1.5.1.2 0 .4-.1.6-.1.4-.1.8-.2 1.3-.4 1.7-.6 3.5-1 5.3-1.4 1.8-.3 3.6-.5 5.4-.6.4 0 .8-.1.8-.3.1-.4.1-.9.2-1.3.1-.9.2-1.8.1-2.7.3.9.3 1.8.4 2.7v1.6c-.1.2-.1.2-.2.3-.1.1-.3.2-.4.3-.3.1-.5.1-.8.2-1.8.2-3.6.5-5.3.8-1.8.3-3.5.6-5.3 1-.4.1-.9.2-1.4.2h-1.1c-.2 0-.3-.2-.3-.3-.2-.9 0-1.8.3-2.7z"/></g><path class="st2" d="M373.7 380c-7-5.4-12.5-10-16.3-13.2-7-6-7.5-7-12.1-10.4-3.9-2.9-7.7-6-11.6-8.9-2.6-1.9-3.7-2.8-4.8-4.5-1.9-2.7-2-4.9-3.2-10.3 0 0-1.1-5.3-2.8-10.8-1.7-5.8-3.9-10.3-4.8-12.1-1.9-3.8-4-7.2-5.9-12.3-.2-.5-.4-1.1-.8-2-1.7-4.4-3-6.8-3.6-8.3-.4-1-1.1-2.8-1.4-10.6-.2-4.2-.3-9.8.1-16.7-1.5-2.4-3-5.4-4.5-8.9-1.6-3.9-2.5-7.4-3.2-10.4 1-.8 2.7-2 5-2.8 4.7-1.6 8.7-.5 9.9-.1.8.2 3.7 1.2 8.7 5.7 2.9 2.7 7.1 6.6 10.4 13.4 1.3 2.6 4.2 8.8 4.1 16.9 0 1-.1 1.8-.1 2.4 1.3 2 2.6 4 3.9 6.2 1.7 2.8 3.2 5.6 4.6 8.3-2.4-6.7-7.1-19-9.4-25.7"/></g><g id="neutral-left" class="st0" style="display:block"><path class="st1" d="M231.1 381.6c1.3-1.6 6.9-7.4 13-13.5s18.6-27.6 22.3-31.9c3.7-4.3 13.5-14.9 15.9-20.2 2.4-5.3-.2-22.3 0-27.6s2.7-30.6 1-37.2c-1.7-6.6-4.4-9.3-6.6-13.9s-2.6-6-4.6-7.4-.8-13.4-.4-15.1 1.8-9.4 1.8-12.1 0-10.4 2.1-16.1.7-22.8-2.9-28.2-6.5-6.7-10.8-7-9 3.9-10.2 6.5-2.8 5-4.6 26.2c-2.5 5.7-7.3 10.7-9.4 17.6s-7.7 24.3-9 31.5-8.7 17-5.7 11.7c3-5.2 2.7-18 8.3-35s4.9-15.9 4.9-16.8c0-.9 3.3-4 4.4-11.4 2.1-3.4 6.2-20.3-1.4-25.2-.1-3.5-2.4-5.9-8.7-6.9-6.3-1-8.6.6-10 4.5-2.3.6-5.8 9.1-6.4 16.1-1.7 1-9.9 9.3-11.5 12.4s-6.1 18.7-7 22.7c-.9 4-6.7 29-8.3 31.3-1.6 2.3-2.3 3.9-1-1 1.3-4.9 7.3-34.4 9.9-39.7s2.9-9.7 10.1-20 6.2-15.3 4.9-18.6c-1.3-3.3-2.3-6.1-8.4-7.1-6.1-1-9.6 4.1-9.6 4.1s-3.7 1.1-12.6 10.7c-1.9-3.7-4.5-6.5-4.5-6.5s-1.9-4-7.3-4.8c-5.4-.8-7.6 5-7.9 7.1-1.8 0-5.5 8.3-6.8 16.6-1.3 8.4-3.4 20.4-5.6 27.5-2.2 7.1-3.6 13-4.1 18.2s-3.3 12.5-3.8 19.3c-.5 6.8-8.4 26.3-8.8 32.5-.5 6.2-.2 27.4-.8 32.3-.6 4.9-1.5 21.4 0 30.9 1.5 9.4.8 18.1-.8 22.8-1.6 4.7-7.6 20.3-7.6 20.3h108.5z"/><path class="st2" d="M231.1 381.6c1.3-1.6 6.9-7.4 13-13.5s18.6-27.6 22.3-31.9c3.7-4.3 13.5-14.9 15.9-20.2 2.4-5.3-.2-22.3 0-27.6s2.7-30.6 1-37.2c-1.7-6.6-4.4-9.3-6.6-13.9s-2.6-6-4.6-7.4-.8-13.4-.4-15.1 1.8-9.4 1.8-12.1 0-10.4 2.1-16.1.7-22.8-2.9-28.2-6.5-6.7-10.8-7-9 3.9-10.2 6.5-2.8 5-4.6 26.2c-2.5 5.7-7.3 10.7-9.4 17.6s-7.7 24.3-9 31.5-8.7 17-5.7 11.7c3-5.2 2.7-18 8.3-35s4.9-15.9 4.9-16.8c0-.9 3.3-4 4.4-11.4 2.1-3.4 6.2-20.3-1.4-25.2-.1-3.5-2.4-5.9-8.7-6.9-6.3-1-8.6.6-10 4.5-2.3.6-5.8 9.1-6.4 16.1-1.7 1-9.9 9.3-11.5 12.4s-6.1 18.7-7 22.7c-.9 4-6.7 29-8.3 31.3-1.6 2.3-2.3 3.9-1-1 1.3-4.9 7.3-34.4 9.9-39.7s2.9-9.7 10.1-20 6.2-15.3 4.9-18.6c-1.3-3.3-2.3-6.1-8.4-7.1-6.1-1-9.6 4.1-9.6 4.1s-3.7 1.1-12.6 10.7c-1.9-3.7-4.5-6.5-4.5-6.5s-1.9-4-7.3-4.8c-5.4-.8-7.6 5-7.9 7.1-1.8 0-5.5 8.3-6.8 16.6-1.3 8.4-3.4 20.4-5.6 27.5-2.2 7.1-3.6 13-4.1 18.2s-3.3 12.5-3.8 19.3c-.5 6.8-8.4 26.3-8.8 32.5-.5 6.2-.2 27.4-.8 32.3-.6 4.9-1.5 21.4 0 30.9 1.5 9.4.8 18.1-.8 22.8-1.6 4.7-7.6 20.3-7.6 20.3"/><path class="st2" d="M151.6 239.8c2.8-3 5.1-7.6 5.3-12.4.2-4.8-.3-29.7 6-39.2 6.3-9.5 17.8-22.8 17.8-22.8m82.6 132.7c-1.4-2.6-3.1-4.3-3.1-6.3s1.1-24.9 2.3-33.1c1.1-8.2 6.7-31.9 8.6-36.8"/></g></svg>