<svg xmlns="http://www.w3.org/2000/svg" viewBox="0 0 716.3 380" style="enable-background:new 0 0 716.3 380" xml:space="preserve"><style>.st0{display:none}.st1{opacity:.33;fill:#e0e1e2}.st1,.st2,.st3{display:inline}.st2{fill:none;stroke:#808285;stroke-width:2;stroke-miterlimit:10}.st3{opacity:.5}.st4{fill:#aeb0b2}</style><g id="neutral-right" class="st0" style="display:block"><path class="st1" d="M483.3 379.3c-4.7-9.9-8-19.1-9.3-39.5s1.2-22 0-38.1-2.4-12.6-1.2-24.7c1.1-12.1-5.5-27.8-5.6-33.7-.1-5.9.4-26.1-1.4-35.6-1.8-9.5-6-15.6-9-31.9-3-16.3-14.4-26.9-21.7-24.5s-8.5 10-7.6 12.8c-3.2-6.3-5.3-10-7.3-12.4-2-2.4-7.8-5.2-7.8-5.2s-9-1.9-12.5 6.2c-2.9.6-2.9 6.9-2.8 8.6-.7-3.8-2-9.2-3.1-10.9-1.2-1.7-3.5-4.4-6.7-5.8-3.2-1.4-11.4-.9-13.5.8-2.1 1.7-5.9 5.2-5.6 8.6.3 3.5 1.4 6.6 1.6 15.5s3.1 27.7 3.7 32.4 8.7 48 8.7 48-.3.7-.8.2c-.4-.5-9.9-53.3-13.3-61.1 1.3-8.3 2.1-31.8-3.3-37-2.3-5.2-16.3-9.3-21.6 2.4-5.3 11.6-3.6 32.4-4.6 40.4s.1 25.8 1.1 31.1c-.7-5.4-2.5-10.4-5.6-13.5s-8.2-6.2-11.8-7.5c-2.9-1-6.6.3-8.2 1.9-.5.5-1.2 1-1.9 1.1-.8.2-1.5.8-1.5.8 0 1.7 1.3 10.2 6 18.6-1.2 1.8.4 9.3-.9 14.6-1.3 5.2-2.8 8.8-.5 14.8-.9 1.6.3 6 2.3 7.6-1.2 3.7.3 8.4 4.3 18.2 5 12.3 2.5 25.9 6 32.9s7.7 9.4 12.3 16.6c4.5 7.2 22.1 29.7 29.3 35.4s10.2 11.8 10.2 11.8h103.6z"/><path class="st2" d="M483.3 379.3c-4.7-9.9-8-19.1-9.3-39.5s1.2-22 0-38.1-2.4-12.6-1.2-24.7c1.1-12.1-5.5-27.8-5.6-33.7-.1-5.9.4-26.1-1.4-35.6-1.8-9.5-4.5-16.5-9-31.9-5-17.2-14.4-26.9-21.7-24.5s-8.5 10-7.6 12.8c-3.2-6.3-5.3-10-7.3-12.4-1.5-1.8-5.6-4.9-9-5.4-2.5-.4-8.6.1-11.3 6.3-2.6.9-2.9 6.9-2.8 8.6-.7-3.8-2-9.2-3.1-10.9-1.2-1.7-3.5-4.4-6.7-5.8-3.2-1.4-11.4-.9-13.5.8-2.1 1.7-5.9 5.2-5.6 8.6.3 3.5 1.4 6.6 1.6 15.5s3.1 27.7 3.7 32.4 8.7 48 8.7 48-.3.7-.8.2c-.4-.5-9.9-53.3-13.3-61.1 1.3-8.3 2.1-31.8-3.3-37-2.3-5.2-16.3-9.3-21.6 2.4-5.3 11.6-3.6 32.4-4.6 40.4s.1 25.8 1.1 31.1c-.7-5.4-2.5-10.4-5.6-13.5s-8.2-6.2-11.8-7.5c-2.9-1-6.6.3-8.2 2-.6.6-1.4 1.2-2.3 1.3-.7.1-1.1.3-1.1.3 0 1.6 1.1 9.3 5 17 .5 1 .8 2.1.6 3.2-.4 2.9.6 8.9-.5 13.2-1.3 5.2-2.8 8.8-.5 14.8.2 3.2 1.2 6.4 2.3 7.6-.3 4.3.3 8.4 4.3 18.2 5 12.3 2.5 25.9 6 32.9s7.7 9.4 12.3 16.6c4.5 7.2 22.1 29.7 29.3 35.4s10.2 11.8 10.2 11.8"/><path class="st2" d="M343.1 310.4c.3-5.1 2.6-13.8 2.8-16.9.3-3.1-.6 1.3-.8-12.1-.1-13.5-1.3-34.7-3.5-44.2s-1.6-11.4-2.6-14.8m77.4 18.8c-2.2-3.3-4.7-9.1-5-24.5s-4.9-19.1-5.2-29.7-7.9-14-9.2-25.6m46.4 76c.1-3.8.2-23-1.8-34.5s-4-15.9-6.4-21c-2.5-5.2-6.7-13.1-7.9-17.7"/><g class="st3"><path class="st4" d="M316.3 209.3c.9.2 1.7.7 2.5 1.3.7.7 1.2 1.5 1.5 2.4.5 1.8 1 3.5 1.3 5.4.3 1.8.6 3.7.4 5.6 0 .5-.2 1-.3 1.4-.2.5-.5.9-.9 1.2-.8.7-1.8.8-2.7.5.9.1 1.8-.2 2.4-.9.6-.6.7-1.5.7-2.4 0-1.8-.3-3.6-.6-5.3-.3-1.8-.7-3.6-1.1-5.3-.3-1.6-1.5-3.1-3.2-3.9z"/></g></g><g id="a" class="st0" style="display:block"><path class="st1" d="M205.3 380.4c2.1-2.1 6.8-8.3 19.8-19.3s18-20.8 34.6-36.9 6-17.9 15.5-43 7.3-29.3 5.1-35.7c-2.2-6.4-2.7-8.1-2.7-8.1s3.6-17 2.3-22.6-14.5-3.6-22.9 9.2c-8.4 12.8-11.5 26.7-6.7 31.7-2.5 2-9.5 15.9-10.5 22.9 1.9-6.9 2-24 8.9-40.7 6.9-16.7 13.7-34.9 16.8-44.5 3.1-9.5 10.9-18.4 6.1-38.5-1.2-3.9-7-5.6-10.1-5.5-3.1.2-7.5 3.1-9.4 6.4-2.5 2.2-5.5 9-7.8 17.5-2.3 8.4-12.8 19.7-15.1 24s-15.4 30.9-17.3 37.6c-1.9 6.7-3-5.9 4.4-23.4 7.3-17.5 7.5-16.8 8.4-17.6.9-.8 11.5-8 15.8-22.5 4.2-14.5 1.6-15.9.2-17.6-1.4-1.7-2.8-5.3-10.6-5.6-7.8-.3-8.7 5.5-9.6 6.6-.9 1.1-4.8 3.9-7.4 9-2.6 5.1 1.4-3.6.5-6.7-.9-3.1-1.9-8.2-8.9-9.6s-8.5 4.1-14.2 7.1c-5.7 3.1-8 4.4-8 4.4s-1.8-2.3-4.2-4.2c-2.3-1.8-6.9-7.2-12.7-.7-5.8 6.5-15.2 23.1-17.9 29.5-2.7 6.3-8.1 16.4-9.4 18.1-1.3 1.6-3.3 4-4.5 8.1-1.3 4.2-.7 6.3-3.1 11.7-2.3 5.4-2.7 14.3-4.3 20.1-1.6 5.8-7.2 18.4-8.3 23.5-1.1 5.1-1.1 30.4-1.8 34.5-.7 4.2-1.3 41.7-6.3 53s-14.1 27.9-14.1 27.9h109.4z"/><path class="st2" d="M205.3 380.4c2.1-2.1 6.8-8.3 19.8-19.3s18-20.8 34.6-36.9 6-17.9 15.5-43 7.3-29.3 5.1-35.7c-2.2-6.4-2.7-8.1-2.7-8.1s3.6-17 2.3-22.6-14.5-3.6-22.9 9.2c-8.4 12.8-11.5 26.7-6.7 31.7-2.5 2-9.5 15.9-10.5 22.9 1.9-6.9 2-24 8.9-40.7 6.9-16.7 13.7-34.9 16.8-44.5 3.1-9.5 10.9-18.4 6.1-38.5-1.2-3.9-7-5.6-10.1-5.5-3.1.2-7.5 3.1-9.4 6.4-2.5 2.2-5.5 9-7.8 17.5-2.3 8.4-12.8 19.7-15.1 24s-15.4 30.9-17.3 37.6c-1.9 6.7-3-5.9 4.4-23.4 7.3-17.5 7.5-16.8 8.4-17.6.9-.8 11.5-8 15.8-22.5 4.2-14.5 1.6-15.9.2-17.6-1.4-1.7-2.8-5.3-10.6-5.6-7.8-.3-8.7 5.5-9.6 6.6-.9 1.1-4.8 3.9-7.4 9-2.6 5.1 1.4-3.6.5-6.7-.9-3.1-1.9-8.2-8.9-9.6s-8.5 4.1-14.2 7.1c-5.7 3.1-9.2 5.3-9.2 5.3s-.5-2.8-3-5.1c-2.2-2-6.9-7.2-12.7-.7-5.8 6.5-15.2 23.1-17.9 29.5-2.7 6.3-8.1 16.4-9.4 18.1-1.3 1.6-3.3 4-4.5 8.1-1.3 4.2-.7 6.3-3.1 11.7-2.3 5.4-2.7 14.3-4.3 20.1-1.6 5.8-7.2 18.4-8.3 23.5-1.1 5.1-1.1 30.4-1.8 34.5-.7 4.2-1.3 41.7-6.3 53s-14.1 27.9-14.1 27.9"/><path d="M180.4 157.8c-.5-.8-1.3-2.1-2.1-2.9-1.9-2.1-6.9-7.2-12.7-.7-5.8 6.5-15.2 23.1-17.9 29.5-2.7 6.3-8.1 16.4-9.4 18.1-1.3 1.6-3.3 4-4.5 8.1-1.3 4.2-.7 6.3-3.1 11.7-2.3 5.4-2.7 14.3-4.3 20.1" style="display:inline;fill:none;stroke:#2969d0;stroke-width:3;stroke-linecap:round;stroke-miterlimit:10"/><path class="st2" d="M140.5 238.9c3.3-5.1 3.3-5.6 4.4-9.8 1.1-4.2 4.7-29.5 5.3-32 .6-2.5-.4-14 8.3-18.8 8.7-4.8 8.7-8.2 12.5-10.9s8-5.5 11.6-8.4m-15.9 77.1c2.2-1.5 4.4-4 6-7.1s14.9-46.1 19.1-51.1 20.3-13 23.7-13.6c3.3-.6 8.4 0 8.4 0"/><g class="st3"><path class="st4" d="M277.1 214.8c-.9.5-1.8 1-2.6 1.7s-1.5 1.4-2 2.3c-.5.9-.9 1.8-1.1 2.8-.2 1-.2 2-.2 3 0 2.1.2 4.1.6 6.2.2 1 .5 2 .9 3 .4.9.9 1.9 1.9 2.4-1-.3-1.8-1.3-2.3-2.2-.5-.9-.9-2-1.2-3-.6-2.1-.8-4.2-.9-6.3v-1.6c0-.6.1-1.1.2-1.7.3-1.1.7-2.1 1.4-3 1.4-1.8 3.3-3.1 5.3-3.6z"/></g><g class="st3"><path class="st4" d="M175.6 155.4c.8.5 1.2 1.5 1.5 2.4.2.9.1 2-.5 2.9-1.1 1.5-2.4 3-4.1 4-.9.5-1.8.8-2.9.8-1.1 0-2-.4-2.8-.9-.8-.5-1.6-1.1-2.2-1.9-.3-.4-.6-.8-.8-1.2-.2-.4-.5-.9-.2-1.4-.2.5.2.9.4 1.2.3.4.6.7.9 1 .7.6 1.4 1.1 2.2 1.5.8.4 1.7.7 2.5.6.8 0 1.6-.3 2.4-.7 1.5-.9 2.8-2.2 4-3.6.5-.6.7-1.5.6-2.4-.1-.7-.4-1.6-1-2.3z"/></g></g></svg>