<svg xmlns="http://www.w3.org/2000/svg" viewBox="0 0 716.3 380" style="enable-background:new 0 0 716.3 380" xml:space="preserve" class="theme-bone"><style>.st0{display:none}.st1{opacity:.33;fill:#e0e1e2}.st1,.st2,.st3{display:inline}.st2{fill:none;stroke:#808285;stroke-width:2;stroke-miterlimit:10}.st3{opacity:.5}.st4{fill:#aeb0b2}</style><g id="neutral-right" class="st0" style="display:block"><path class="st1" d="M483.3 379.3c-4.7-9.9-8-19.1-9.3-39.5s1.2-22 0-38.1-2.4-12.6-1.2-24.7c1.1-12.1-5.5-27.8-5.6-33.7-.1-5.9.4-26.1-1.4-35.6-1.8-9.5-6-15.6-9-31.9-3-16.3-14.4-26.9-21.7-24.5s-8.5 10-7.6 12.8c-3.2-6.3-5.3-10-7.3-12.4-2-2.4-7.8-5.2-7.8-5.2s-9-1.9-12.5 6.2c-2.9.6-2.9 6.9-2.8 8.6-.7-3.8-2-9.2-3.1-10.9-1.2-1.7-3.5-4.4-6.7-5.8-3.2-1.4-11.4-.9-13.5.8-2.1 1.7-5.9 5.2-5.6 8.6.3 3.5 1.4 6.6 1.6 15.5s3.1 27.7 3.7 32.4 8.7 48 8.7 48-.3.7-.8.2c-.4-.5-9.9-53.3-13.3-61.1 1.3-8.3 2.1-31.8-3.3-37-2.3-5.2-16.3-9.3-21.6 2.4-5.3 11.6-3.6 32.4-4.6 40.4s.1 25.8 1.1 31.1c-.7-5.4-2.5-10.4-5.6-13.5s-8.2-6.2-11.8-7.5c-2.9-1-6.6.3-8.2 1.9-.5.5-1.2 1-1.9 1.1-.8.2-1.5.8-1.5.8 0 1.7 1.3 10.2 6 18.6-1.2 1.8.4 9.3-.9 14.6-1.3 5.2-2.8 8.8-.5 14.8-.9 1.6.3 6 2.3 7.6-1.2 3.7.3 8.4 4.3 18.2 5 12.3 2.5 25.9 6 32.9s7.7 9.4 12.3 16.6c4.5 7.2 22.1 29.7 29.3 35.4s10.2 11.8 10.2 11.8h103.6z"/><path class="st2" d="M483.3 379.3c-4.7-9.9-8-19.1-9.3-39.5s1.2-22 0-38.1-2.4-12.6-1.2-24.7c1.1-12.1-5.5-27.8-5.6-33.7-.1-5.9.4-26.1-1.4-35.6-1.8-9.5-4.5-16.5-9-31.9-5-17.2-14.4-26.9-21.7-24.5s-8.5 10-7.6 12.8c-3.2-6.3-5.3-10-7.3-12.4-1.5-1.8-5.6-4.9-9-5.4-2.5-.4-8.6.1-11.3 6.3-2.6.9-2.9 6.9-2.8 8.6-.7-3.8-2-9.2-3.1-10.9-1.2-1.7-3.5-4.4-6.7-5.8-3.2-1.4-11.4-.9-13.5.8-2.1 1.7-5.9 5.2-5.6 8.6.3 3.5 1.4 6.6 1.6 15.5s3.1 27.7 3.7 32.4 8.7 48 8.7 48-.3.7-.8.2c-.4-.5-9.9-53.3-13.3-61.1 1.3-8.3 2.1-31.8-3.3-37-2.3-5.2-16.3-9.3-21.6 2.4-5.3 11.6-3.6 32.4-4.6 40.4s.1 25.8 1.1 31.1c-.7-5.4-2.5-10.4-5.6-13.5s-8.2-6.2-11.8-7.5c-2.9-1-6.6.3-8.2 2-.6.6-1.4 1.2-2.3 1.3-.7.1-1.1.3-1.1.3 0 1.6 1.1 9.3 5 17 .5 1 .8 2.1.6 3.2-.4 2.9.6 8.9-.5 13.2-1.3 5.2-2.8 8.8-.5 14.8.2 3.2 1.2 6.4 2.3 7.6-.3 4.3.3 8.4 4.3 18.2 5 12.3 2.5 25.9 6 32.9s7.7 9.4 12.3 16.6c4.5 7.2 22.1 29.7 29.3 35.4s10.2 11.8 10.2 11.8"/><path class="st2" d="M343.1 310.4c.3-5.1 2.6-13.8 2.8-16.9.3-3.1-.6 1.3-.8-12.1-.1-13.5-1.3-34.7-3.5-44.2s-1.6-11.4-2.6-14.8m77.4 18.8c-2.2-3.3-4.7-9.1-5-24.5s-4.9-19.1-5.2-29.7-7.9-14-9.2-25.6m46.4 76c.1-3.8.2-23-1.8-34.5s-4-15.9-6.4-21c-2.5-5.2-6.7-13.1-7.9-17.7"/><g class="st3"><path class="st4" d="M316.3 209.3c.9.2 1.7.7 2.5 1.3.7.7 1.2 1.5 1.5 2.4.5 1.8 1 3.5 1.3 5.4.3 1.8.6 3.7.4 5.6 0 .5-.2 1-.3 1.4-.2.5-.5.9-.9 1.2-.8.7-1.8.8-2.7.5.9.1 1.8-.2 2.4-.9.6-.6.7-1.5.7-2.4 0-1.8-.3-3.6-.6-5.3-.3-1.8-.7-3.6-1.1-5.3-.3-1.6-1.5-3.1-3.2-3.9z"/></g></g><g id="e" class="st0" style="display:block"><path class="st1" d="M211.9 381.8c4.6-5.6 5.6-10.5 10.9-12.6 5.3-2.1 12.6-8.8 16.5-13.3 3.9-4.6 23.5-27.7 28.7-32.2s8.8-9.8 9.8-12.6c1.1-2.8 1.4-11.6 2.8-18.2 1.4-6.7 1.8-9.8 4.8-18.6s6.2-16.9 4.1-18.2c1.2-1.1.9-6.7.7-8.3-.2-1.7-.6-13.3-.2-14.1.4-.8 3-5.8 4.2-9.9 1.2-4.2 1.7-11.4 1-12.5-.7-1.2-12.5-6.9-24.1 8.7-11.5 15.6-13.6 26-12.1 31.8-3.9 2.6-2.8 8.7-5.3 13.5-2.5 4.8-2.2 9.1-2.2 9.1s-4.4 3-6 7.5c-1.7 4.5.8-16.8 2.5-25.7 1.7-8.9 3.7-14.7 8.2-23.9 4.4-9.1 9.2-23.9 10.1-28.9.9-5 0-10.3 4.8-20.4 4.8-10.1 4.6-24.1.7-30.5-3.9-6.5-12.1-6.9-16.1-2.3-4 4.6-6.4 7.2-9.4 17.1-3 9.9-3.1 11.9-10.7 25.4s-17.7 42.2-18.7 43.4-4 1.3-4.8-.2c-.8-1.5-1.4-6.7 0-11.5s4.5-12.3 6.4-23.4c1.9-11.1 2.3-14.4 6.7-23.5s4.3-16.2 5.1-18.3c.8-2 8.6-21.5.8-30.6.1-3.6-12.3-6.7-16.1-3-3.7 3.7-5.7 10.1-6.3 12-.6 1.9-3.1 7.3-4.3 13.8-4.5-.3-10.5 4.2-12 5.8-2.8-.5-6.7.1-8.4 1.6-1.7 1.4-3.9 2.3-4.3 2.6-.4.3-1.7-3.1-3.6-4-1.8-1-5-1.5-9 2.4s-4.7 6.1-9.9 10.4c-5.2 4.3-15.8 23.1-18.3 30.9-2.6 7.9-3.4 1.2-7.5 18.6-4.1 17.5-2.6 26.4-5.4 33.2-2.8 6.8-6 15.4-6.1 26.3s1.2 30 1.1 41.5 2.7 17.9-5.2 37.2c-7.9 19.4-12.6 24-12.6 24h108.7z"/><path class="st2" d="M211.9 381.8c4.6-5.6 5.6-10.5 10.9-12.6 5.3-2.1 12.6-8.8 16.5-13.3 3.9-4.6 23.5-27.7 28.7-32.2s8.8-9.8 9.8-12.6c1.1-2.8 1.4-11.6 2.8-18.2 1.4-6.7 1.8-9.8 4.8-18.6s6.2-16.9 4.1-18.2c1.2-1.1.9-6.7.7-8.3-.2-1.7-.6-13.3-.2-14.1.4-.8 3-5.8 4.2-9.9 1.2-4.2 1.7-11.4 1-12.5-.7-1.2-12.5-6.9-24.1 8.7-11.5 15.6-13.6 26-12.1 31.8-3.9 2.6-2.8 8.7-5.3 13.5-2.5 4.8-2.2 9.1-2.2 9.1s-4.4 3-6 7.5c-1.7 4.5.8-16.8 2.5-25.7 1.7-8.9 3.7-14.7 8.2-23.9 4.4-9.1 9.2-23.9 10.1-28.9.9-5 0-10.3 4.8-20.4 4.8-10.1 4.6-24.1.7-30.5-3.9-6.5-12.1-6.9-16.1-2.3-4 4.6-6.4 7.2-9.4 17.1-3 9.9-3.1 11.9-10.7 25.4s-17.7 42.2-18.7 43.4-4 1.3-4.8-.2c-.8-1.5-1.4-6.7 0-11.5s4.5-12.3 6.4-23.4c1.9-11.1 2.3-14.4 6.7-23.5s4.3-16.2 5.1-18.3c.8-2 8.6-21.5.8-30.6.1-3.6-12.3-6.7-16.1-3-3.7 3.7-5.7 10.1-6.3 12-.6 1.9-3.1 7.3-4.3 13.8-4.5-.3-10.5 4.2-12 5.8-2.8-.5-6.7.1-8.4 1.6-1.7 1.4-3.9 2.3-4.3 2.6-.4.3-1.7-3.1-3.6-4-1.8-1-5-1.5-9 2.4s-4.7 6.1-9.9 10.4c-5.2 4.3-15.8 23.1-18.3 30.9-2.6 7.9-3.4 1.2-7.5 18.6-4.1 17.5-2.6 26.4-5.4 33.2-2.8 6.8-6 15.4-6.1 26.3s1.2 30 1.1 41.5 2.7 17.9-5.2 37.2c-7.9 19.4-12.6 24-12.6 24"/><path class="st2" d="M140 237.7c3.6-6 3.6-9.4 3.6-12.9s0-10.9 1.5-15.4 1.3-8.4 2.2-12.4c.9-3.9 1.5-6.9 9.4-14.2 7.9-7.3 8.1-12.8 22.8-21.6"/><path d="M165.5 245.1c4.5-4.7 7.5-15 10.9-27.4 3.4-12.4 6-25.3 8.2-29.2 0-2 2.2-9.1 8.4-18.1 6.3-9 11.1-19.1 11.1-19.1 1.3-6.6 3.7-12 4.3-13.8.6-1.9 2.6-8.3 6.3-12 3.7-3.7 16.2-.6 16.1 3 7.8 9.1 0 28.6-.8 30.6s-.6 9.1-5.1 18.3c-4.4 9.1-4.9 12.4-6.7 23.5-1.9 11.1-5 18.6-6.4 23.4s-.8 10 0 11.5" style="display:inline;fill:none;stroke:#2969d0;stroke-width:3;stroke-linecap:round;stroke-miterlimit:10"/><g class="st3"><path class="st4" d="M293 212.5c-1.1.2-2.1.7-2.9 1.3-.9.6-1.6 1.4-2.3 2.2-1.4 1.6-2.5 3.5-3.4 5.4-.5 1-.8 2-1.1 3-.2 1-.2 2 0 3.1.2 1 .7 2 1.3 2.9.6.9 1.3 1.7 2.1 2.4-1.9-1.1-3.5-2.9-4.1-5.1-.3-1.1-.4-2.3-.2-3.4s.6-2.2 1.1-3.2c.9-2 2.2-3.9 3.7-5.5.8-.8 1.7-1.5 2.6-2.1 1-.6 2.1-1 3.2-1z"/></g><g class="st3"><path class="st4" d="M229.3 130.1c-.4 1.8-1.1 3.6-2.1 5.2s-2.4 3-4.1 4c-.8.5-1.9.8-2.8.9-1 .1-1.9 0-2.9-.1-1.9-.2-3.7-.8-5.4-1.5 1.8.3 3.7.6 5.5.7 1.8.1 3.7.1 5.1-.9 1.6-.9 2.9-2.1 4-3.6 1-1.3 1.9-3 2.7-4.7z"/></g></g></svg>