<svg xmlns="http://www.w3.org/2000/svg" viewBox="0 0 716.3 380" style="enable-background:new 0 0 716.3 380" xml:space="preserve" class="theme-bone"><style>.st0{display:none}.st1{opacity:.33;fill:#e0e1e2}.st1,.st2,.st3{display:inline}.st2{fill:none;stroke:#808285;stroke-width:2;stroke-miterlimit:10}.st3{opacity:.5}.st4{fill:#aeb0b2}</style><g id="neutral-right" class="st0" style="display:block"><path class="st1" d="M483.3 379.3c-4.7-9.9-8-19.1-9.3-39.5s1.2-22 0-38.1-2.4-12.6-1.2-24.7c1.1-12.1-5.5-27.8-5.6-33.7-.1-5.9.4-26.1-1.4-35.6-1.8-9.5-6-15.6-9-31.9-3-16.3-14.4-26.9-21.7-24.5s-8.5 10-7.6 12.8c-3.2-6.3-5.3-10-7.3-12.4-2-2.4-7.8-5.2-7.8-5.2s-9-1.9-12.5 6.2c-2.9.6-2.9 6.9-2.8 8.6-.7-3.8-2-9.2-3.1-10.9-1.2-1.7-3.5-4.4-6.7-5.8-3.2-1.4-11.4-.9-13.5.8-2.1 1.7-5.9 5.2-5.6 8.6.3 3.5 1.4 6.6 1.6 15.5s3.1 27.7 3.7 32.4 8.7 48 8.7 48-.3.7-.8.2c-.4-.5-9.9-53.3-13.3-61.1 1.3-8.3 2.1-31.8-3.3-37-2.3-5.2-16.3-9.3-21.6 2.4-5.3 11.6-3.6 32.4-4.6 40.4s.1 25.8 1.1 31.1c-.7-5.4-2.5-10.4-5.6-13.5s-8.2-6.2-11.8-7.5c-2.9-1-6.6.3-8.2 1.9-.5.5-1.2 1-1.9 1.1-.8.2-1.5.8-1.5.8 0 1.7 1.3 10.2 6 18.6-1.2 1.8.4 9.3-.9 14.6-1.3 5.2-2.8 8.8-.5 14.8-.9 1.6.3 6 2.3 7.6-1.2 3.7.3 8.4 4.3 18.2 5 12.3 2.5 25.9 6 32.9s7.7 9.4 12.3 16.6c4.5 7.2 22.1 29.7 29.3 35.4s10.2 11.8 10.2 11.8h103.6z"/><path class="st2" d="M483.3 379.3c-4.7-9.9-8-19.1-9.3-39.5s1.2-22 0-38.1-2.4-12.6-1.2-24.7c1.1-12.1-5.5-27.8-5.6-33.7-.1-5.9.4-26.1-1.4-35.6-1.8-9.5-4.5-16.5-9-31.9-5-17.2-14.4-26.9-21.7-24.5s-8.5 10-7.6 12.8c-3.2-6.3-5.3-10-7.3-12.4-1.5-1.8-5.6-4.9-9-5.4-2.5-.4-8.6.1-11.3 6.3-2.6.9-2.9 6.9-2.8 8.6-.7-3.8-2-9.2-3.1-10.9-1.2-1.7-3.5-4.4-6.7-5.8-3.2-1.4-11.4-.9-13.5.8-2.1 1.7-5.9 5.2-5.6 8.6.3 3.5 1.4 6.6 1.6 15.5s3.1 27.7 3.7 32.4 8.7 48 8.7 48-.3.7-.8.2c-.4-.5-9.9-53.3-13.3-61.1 1.3-8.3 2.1-31.8-3.3-37-2.3-5.2-16.3-9.3-21.6 2.4-5.3 11.6-3.6 32.4-4.6 40.4s.1 25.8 1.1 31.1c-.7-5.4-2.5-10.4-5.6-13.5s-8.2-6.2-11.8-7.5c-2.9-1-6.6.3-8.2 2-.6.6-1.4 1.2-2.3 1.3-.7.1-1.1.3-1.1.3 0 1.6 1.1 9.3 5 17 .5 1 .8 2.1.6 3.2-.4 2.9.6 8.9-.5 13.2-1.3 5.2-2.8 8.8-.5 14.8.2 3.2 1.2 6.4 2.3 7.6-.3 4.3.3 8.4 4.3 18.2 5 12.3 2.5 25.9 6 32.9s7.7 9.4 12.3 16.6c4.5 7.2 22.1 29.7 29.3 35.4s10.2 11.8 10.2 11.8"/><path class="st2" d="M343.1 310.4c.3-5.1 2.6-13.8 2.8-16.9.3-3.1-.6 1.3-.8-12.1-.1-13.5-1.3-34.7-3.5-44.2s-1.6-11.4-2.6-14.8m77.4 18.8c-2.2-3.3-4.7-9.1-5-24.5s-4.9-19.1-5.2-29.7-7.9-14-9.2-25.6m46.4 76c.1-3.8.2-23-1.8-34.5s-4-15.9-6.4-21c-2.5-5.2-6.7-13.1-7.9-17.7"/><g class="st3"><path class="st4" d="M316.3 209.3c.9.2 1.7.7 2.5 1.3.7.7 1.2 1.5 1.5 2.4.5 1.8 1 3.5 1.3 5.4.3 1.8.6 3.7.4 5.6 0 .5-.2 1-.3 1.4-.2.5-.5.9-.9 1.2-.8.7-1.8.8-2.7.5.9.1 1.8-.2 2.4-.9.6-.6.7-1.5.7-2.4 0-1.8-.3-3.6-.6-5.3-.3-1.8-.7-3.6-1.1-5.3-.3-1.6-1.5-3.1-3.2-3.9z"/></g></g><g id="f" class="st0" style="display:block"><path class="st1" d="M205.3 380.4c2.7-2.5 5.9-7 13.1-11.9s26.7-29.3 41.6-43.6 5.5-14.7 16-44.5 5.7-29.4 1.7-43.2c0 0 3.1-12.1 2.6-22.6-8.1-5.5-19.9 1.5-27.2 18s-1.8 23.9-1.8 23.9-4.3 2.9-7.3 14-3.4 10.9-3.7 8.6c-.4-2.2 1.5-16.2 2.9-22.1 1.5-5.9 5-19.8 10.9-32.1 5.9-12.4 9.2-22.7 10.7-28.9s7.2-11.8 8.5-26.5c1.3-14.7-2-14.4-2-14.4s-6.8-12.7-18.4 0c-10.1 14.2-2.6 17.5-18 36.1s-20.1 41.8-23.4 44 2.9-18.6 6.4-27.8c3.5-9.2 6.4-13.8 6.4-13.8s11.6-6.1 16-21.3c4.4-15.3 0-17.3 0-17.3s-.6-5.5-9-6.3-9.6 6.4-9.6 6.4-2.2-.4-7.2 8.3l-2.2 1.1s2-3.9 1.5-8.5c-.6-4.6-4-7.4-8.3-8.3-4.2-.9-14 6.3-14 6.3s-5.9 1.3-9.2 5.7c0 0 0-.7-4.2-4.4-2.8-4.2-7.4-4.6-9.6-2.4s-3.5 5.7-3.5 5.7-7.4 7.5-14.7 23.4c-7.4 15.8-11.6 21-13.4 24.7-1.8 3.7-4 11-6.4 17.1-2.4 6.1.4 13.8-7.7 33.3s-3.9 25.8-5.5 45.5c-1.7 19.7-1.3 36.1-5.7 48.6s-14 29.4-14 29.4h107.7z"/><path class="st2" d="M205.3 380.4c2.7-2.5 5.9-7 13.1-11.9s26.7-29.3 41.6-43.6 5.5-14.7 16-44.5 5.7-29.4 1.7-43.2c0 0 3.1-12.1 2.6-22.6-8.1-5.5-19.9 1.5-27.2 18s-1.8 23.9-1.8 23.9-4.3 2.9-7.3 14-3.4 10.9-3.7 8.6c-.4-2.2 1.5-16.2 2.9-22.1 1.5-5.9 5-19.8 10.9-32.1 5.9-12.4 9.2-22.7 10.7-28.9s7.2-11.8 8.5-26.5c1.3-14.7-2-14.4-2-14.4s-6.8-12.7-18.4 0c-10.1 14.2-2.6 17.5-18 36.1s-20.1 41.8-23.4 44 2.9-18.6 6.4-27.8c3.5-9.2 6.4-13.8 6.4-13.8s11.6-6.1 16-21.3c4.4-15.3 0-17.3 0-17.3s-.6-5.5-9-6.3-9.6 6.4-9.6 6.4-2.2-.4-7.2 8.3l-2.2 1.1s2-3.9 1.5-8.5c-.6-4.6-4-7.4-8.3-8.3-4.2-.9-14 6.3-14 6.3s-5.9 1.3-9.2 5.7c0 0 0-.7-4.2-4.4-2.8-4.2-7.4-4.6-9.6-2.4s-3.5 5.7-3.5 5.7-7.4 7.5-14.7 23.4c-7.4 15.8-11.6 21-13.4 24.7-1.8 3.7-4 11-6.4 17.1-2.4 6.1.4 13.8-7.7 33.3s-3.9 25.8-5.5 45.5c-1.7 19.7-1.3 36.1-5.7 48.6s-14 29.4-14 29.4"/><path d="M243 257c1.5-5.9 5-19.8 10.9-32.1 5.9-12.4 9.2-22.7 10.7-28.9s7.2-11.8 8.5-26.5c1.3-14.7-2-14.4-2-14.4s-6.8-12.7-18.4 0c-10.1 14.2-2.6 17.5-18 36.1s-20.1 41.8-23.4 44" style="display:inline;fill:none;stroke:#2969d0;stroke-width:3;stroke-linecap:round;stroke-miterlimit:10"/><path class="st2" d="M140.9 239.6c3.6-5.9 5.3-12.8 7-26.8 1.7-14 2.5-26.5 6.4-31 3.9-4.5 9.5-7 14.2-12.3s11-5.4 13.6-9.8m-15 76.8c4.3-4.3 8.5-11.5 13.8-31.2 5.3-19.8 11.3-28.6 15.6-30.6 4.3-2 13-9.5 19.9-10.3s8.9.8 8.9.8"/><g class="st3"><path class="st4" d="M253.2 158c.2.8.9 1.4 1.5 1.8.7.4 1.5.7 2.2 1 1.6.5 3.2.8 4.8.8 1.6 0 3.3-.2 4.9-.7.8-.2 1.5-.6 2.2-1 .7-.4 1.2-1.1 1.5-1.9-.1.9-.6 1.7-1.2 2.3-.7.6-1.4 1-2.2 1.4-1.6.7-3.4 1-5.1 1-1.8 0-3.5-.4-5.1-1.1-.8-.3-1.6-.8-2.3-1.3-.6-.6-1.2-1.4-1.2-2.3z"/></g><g class="st3"><path class="st4" d="M276.9 215.3c-1.7 1.1-3.2 2.7-4.2 4.4-1.1 1.7-1.7 3.7-1.8 5.6-.1 1 0 2 .1 3s.3 2 .6 3 .7 1.9 1.2 2.8c.5.9 1.1 1.7 1.9 2.4-1.9-1-3.1-2.9-3.9-4.9-.8-2-1.1-4.1-1-6.3.1-1.1.3-2.1.7-3.2.4-1 .9-2 1.5-2.8 1.3-1.8 3-3.2 4.9-4z"/></g></g></svg>